<svg version="1.2" xmlns="http://www.w3.org/2000/svg" viewBox="0 0 940 940" width="940" height="940">
	<title>375259ca-1275-4c8c-b908-3db308ab423e-svg</title>
	<style>
		.s0 { fill: #000000 } 
	</style>
	<path id="Layer" fill-rule="evenodd" class="s0" d="m473.6 72.4l17.6-0.7c26.2 1.5 113.6 73.6 131.5 94.4 17 19.8 26.2 43.5 33.4 68.3 13.3 45.7 11.7 93.2 21 139.3 7.7 38.8 30.3 79.1 26.5 118.9-1.7 17.3-12.2 26.1-24.7 36.4l24.9 7.1c8.6-27.2 25.3-47.5 38.9-72.2l46.6-87.1c24.9-43.5 53.4-87.6 73.4-133.5 12.8 15.6 29.2 35.9 35.8 55.2 1.4 4.2 1.5 11.5-0.5 15.5-3.4 6.8-8.8 13.3-12.9 19.9l-38.7 60.4c-32.6 52.1-63.2 106.3-90 161.7l53.3 38.8c-3.5 8.6-6.9 16.8-15.5 21-20.4 1.5-36.6-14.3-51.7-26.1-11.3 15.8-17.8 34.4-27.2 51.4l134.4 83.2c54.4 40.4 72.4 104.2 81.9 168.2l-25.5-35.6c-9.3-13.7-17.7-28.1-30.4-39l-4 0.9c-21.4 19.1-69.1 76.3-70.8 76.4-4.4 0.4-46-20.5-54.9-24-47.2-18.2-96.8-31.5-147-38.2-76.8-10.3-159.6-9.2-236 4.3-38.3 6.7-75.8 17.5-113.1 28.5l-47.7 15.7c-18 6.8-33.6 14.2-53 17.5-10.3-7.8-18.8-19.5-28.1-28.8-6.5-6.5-57.9-57.5-62.7-58.3-0.5-0.1-7.5 4.3-8.4 4.8-10 5.8-33.3 25.4-43 25.4 0-3.4 0-6.9 0.7-10.1 2-8.8 6.8-18.3 10-26.8 28.1-72.8 85.2-117.6 155.9-146.7l51.5-19.7c6.6-2.5 14.4-4.4 20.5-7.9 11.6-6.6 16.2-20.4 21.5-31.7 0.6-1.3 2.6-6.7 3.5-7.4 7.1-5.5 20.1-2.2 27.3-7.1-1.5-6.9-0.8-13.3-0.2-20.2-19.2-16.7-46.5-44.4-55.9-68.6-2.6-6.8-1.8-17.2-0.8-24.4 4.6-31 16.5-60.7 22.3-91.4 8.3-43.5 11.5-87.8 21.8-130.9 3.8-15.8 9.3-31.1 16.4-45.7 33.8-69.3 101.8-106.8 172.1-131.1zm-10.7 153c-42.6 8.7-102 36.7-126.6 74.8-15.1 23.4-25.4 53.7-19.4 81.6 1.8 8.2 6.9 14.3 13.9 18.7 9.1 5.6 20.7 4.7 30.8 2.2 38-9.8 75.2-42.3 115.7-37.8 36.6 8.5 99 53.1 133.6 31.4 5.7-3.5 11.2-7.3 12.7-14.1 1.6-7.2-0.6-15.3-2.1-22.3-5-23.5-12-46.8-26.1-66.7-25.3-35.5-76-60.3-118.2-66.9-4.8-0.7-9.5-1.4-14.3-0.9zm-7.7 191.7l-26.4 60-35.6 0.2 0.4 20.5c7.7 2.5 18 1.3 26.2 1.2-8 17.1-22.4 41.8-23.9 60.4l23.5 0.3 49.4-116.5 8 20.9 40.1 96.4c8.5-0.2 17.9 0.3 26-2l-24.8-59.4c6.4 0.1 19.8 2.1 25.2-0.6 0.1-5.6 1.6-16.5-0.6-21.3l-34.2-0.2-24.8-60.2zm193.3 145.1c-5 9.6-7.2 12.3-3.8 23.3 0.8 2.6 2.4 10.1 3.9 11.9 2.9 3.4 11.7 7.6 15.7 10.2l4.3-1.1 2.4-5.2c4.7-8.3 12.2-18.7 13.9-28-3.9-6-10-9.4-16.9-10.9-6.4-1.4-13.1-0.7-19.5-0.2z"/>
</svg>