<?xml version="1.0" encoding="UTF-8"?>
<svg version="1.1" xmlns="http://www.w3.org/2000/svg" width="180" height="180">
<path d="M0 0 C34.65450118 27.59534064 34.65450118 27.59534064 37.43035889 45.1288147 C37.92816197 50.37771642 37.97633146 55.52015942 37.73931885 60.78462219 C37.69545044 61.79801666 37.65158203 62.81141113 37.60638428 63.85551453 C36.63930509 80.68559707 36.63930509 80.68559707 32.50250244 84.86274719 C31.71440186 85.49696594 30.92630127 86.13118469 30.11431885 86.78462219 C31.27664291 89.63759943 32.11540091 90.78540607 34.66583252 92.63301086 C38.49885125 97.56674691 37.73323888 102.4526227 37.6026001 108.52290344 C37.59198799 110.37675911 37.59198799 110.37675911 37.5811615 112.26806641 C37.55794599 115.54173761 37.51308662 118.81416379 37.4576416 122.0874176 C37.40634078 125.43233268 37.3840517 128.77730215 37.35845947 132.12251282 C37.30336028 138.67703456 37.21970846 145.23072659 37.11431885 151.78462219 C35.54991667 152.42086718 33.98443447 153.05445692 32.41851807 153.68696594 C31.54686005 154.0400885 30.67520203 154.39321106 29.77713013 154.7570343 C25.66530307 156.34380229 21.47898025 157.58960167 17.23931885 158.78462219 C16.33294678 159.0402594 15.42657471 159.29589661 14.49273682 159.5592804 C-2.36294527 164.20504191 -19.5119758 166.93834546 -36.88568115 168.78462219 C-37.78657471 168.88323547 -38.68746826 168.98184875 -39.61566162 169.08345032 C-50.01660867 170.05579146 -60.44289317 169.93551356 -70.87982178 169.91499329 C-74.14223834 169.90961138 -77.40451865 169.91497669 -80.66693115 169.92134094 C-82.76588979 169.92068045 -84.86484834 169.91939989 -86.96380615 169.91743469 C-88.40786835 169.92047104 -88.40786835 169.92047104 -89.88110352 169.92356873 C-92.55156903 169.91440264 -95.21634012 169.85984714 -97.88568115 169.78462219 C-98.66821762 169.78114273 -99.45075409 169.77766327 -100.25700378 169.77407837 C-106.85237378 169.46841163 -110.70000268 166.6973613 -115.6395874 162.49946594 C-116.42794983 161.83170639 -117.21631226 161.16394684 -118.02856445 160.47595215 C-120.55053541 158.27238481 -123.00765039 156.01547881 -125.44818115 153.72212219 C-126.27506439 152.94761719 -127.10194763 152.17311218 -127.95388794 151.37513733 C-139.73165186 139.94918033 -145.44546361 129.95996959 -145.83660889 113.38056946 C-145.81015109 111.22325578 -145.76414109 109.06608958 -145.69818115 106.90962219 C-145.67361847 105.85088898 -145.64905579 104.79215576 -145.62374878 103.70133972 C-145.51065474 100.65572458 -145.3022802 97.64020901 -145.0302124 94.60493469 C-144.9622345 93.70010849 -144.89425659 92.79528229 -144.82421875 91.86303711 C-144.29325272 87.92550801 -143.77066118 85.61266683 -140.81228638 82.84461975 C-134.90424449 78.78462219 -134.90424449 78.78462219 -131.88568115 78.78462219 C-132.3830629 78.36338074 -132.88044464 77.94213928 -133.39289856 77.50813293 C-137.60897742 73.43981593 -139.37449503 70.46376363 -139.68035889 64.55220032 C-139.67925991 62.139807 -139.64025455 59.72722132 -139.5692749 57.31587219 C-139.55937027 56.03982117 -139.54946564 54.76377014 -139.53926086 53.4490509 C-139.50684821 50.08081746 -139.44415064 46.71599918 -139.36633301 43.34870911 C-139.29430038 39.90316548 -139.26266505 36.45726669 -139.22747803 33.01118469 C-139.15050355 26.26806507 -139.033521 19.52654048 -138.88568115 12.78462219 C-138.02934837 12.79128403 -138.02934837 12.79128403 -137.15571594 12.79808044 C-100.44278202 13.50618656 -100.44278202 13.50618656 -63.88568115 10.78462219 C-62.91775635 10.65571594 -61.94983154 10.52680969 -60.95257568 10.39399719 C-43.04328413 7.90186836 -25.2191996 4.02322178 -8.07269287 -1.76005554 C-4.8408602 -2.43290304 -2.76294805 -1.78080252 0 0 Z " fill="#0F0F0F" transform="translate(142.88568115234375,6.2153778076171875)"/>
<path d="M0 0 C1.91621412 15.65727092 1.91621412 15.65727092 -1.09863281 20.91650391 C-4.02959478 24.38064503 -7.59032574 27.04427573 -11.25146484 29.69433594 C-13.89120971 31.66548304 -16.23442804 33.92493262 -18.625 36.1875 C-23.00650692 40.16378085 -27.51626318 43.93834811 -32.12109375 47.65234375 C-34.71082195 49.76418452 -37.25596947 51.91635037 -39.79272461 54.09082031 C-46.3268894 59.68903898 -53.04878454 64.92749142 -60 70 C-39.12704773 71.29259108 -17.0706864 65.0176716 3 60 C3 66.93 3 73.86 3 81 C-9.53037482 85.02762048 -21.84524223 87.66219567 -34.8671875 89.54589844 C-36.89746568 89.84018751 -38.92627348 90.14488338 -40.953125 90.46191406 C-62.23413074 93.75506435 -83.5293898 93.3050247 -105 93 C-105.12845529 89.92965562 -105.22249692 86.86469956 -105.296875 83.79296875 C-105.35657471 82.49256653 -105.35657471 82.49256653 -105.41748047 81.16589355 C-105.535154 74.69230098 -105.535154 74.69230098 -102.79760742 71.15087891 C-99.97766664 69.11598153 -97.10545 67.5622276 -94 66 C-92.04611596 64.7332537 -90.10853693 63.44102665 -88.1875 62.125 C-87.17945312 61.45726562 -86.17140625 60.78953125 -85.1328125 60.1015625 C-74.4506951 52.93575307 -64.22257145 45.1850063 -54.01977539 37.35742188 C-53.15344482 36.69291016 -52.28711426 36.02839844 -51.39453125 35.34375 C-50.61956299 34.74755859 -49.84459473 34.15136719 -49.04614258 33.53710938 C-47.40381083 32.30335199 -45.70913153 31.13942102 -44 30 C-44.6305127 30.06058594 -45.26102539 30.12117188 -45.91064453 30.18359375 C-64.00253129 31.87108812 -81.85313354 32.2258946 -100 32 C-100 25.07 -100 18.14 -100 11 C-97.71707031 10.95101562 -95.43414062 10.90203125 -93.08203125 10.8515625 C-64.30236416 10.19311356 -36.1247414 8.30364514 -8.08691406 1.21923828 C-5.29345971 0.51341126 -2.89764976 0 0 0 Z " fill="#FCFCFC" transform="translate(158,63)"/>
<path d="M0 0 C34.65450118 27.59534064 34.65450118 27.59534064 37.43035889 45.1288147 C37.92816197 50.37771642 37.97633146 55.52015942 37.73931885 60.78462219 C37.69545044 61.79801666 37.65158203 62.81141113 37.60638428 63.85551453 C36.63930509 80.68559707 36.63930509 80.68559707 32.50250244 84.86274719 C31.71440186 85.49696594 30.92630127 86.13118469 30.11431885 86.78462219 C31.27664291 89.63759943 32.11540091 90.78540607 34.66583252 92.63301086 C38.49885125 97.56674691 37.73323888 102.4526227 37.6026001 108.52290344 C37.59198799 110.37675911 37.59198799 110.37675911 37.5811615 112.26806641 C37.55794599 115.54173761 37.51308662 118.81416379 37.4576416 122.0874176 C37.40634078 125.43233268 37.3840517 128.77730215 37.35845947 132.12251282 C37.30336028 138.67703456 37.21970846 145.23072659 37.11431885 151.78462219 C35.54991667 152.42086718 33.98443447 153.05445692 32.41851807 153.68696594 C31.54686005 154.0400885 30.67520203 154.39321106 29.77713013 154.7570343 C25.66530307 156.34380229 21.47898025 157.58960167 17.23931885 158.78462219 C16.33294678 159.0402594 15.42657471 159.29589661 14.49273682 159.5592804 C-2.36294527 164.20504191 -19.5119758 166.93834546 -36.88568115 168.78462219 C-37.78657471 168.88323547 -38.68746826 168.98184875 -39.61566162 169.08345032 C-50.01660867 170.05579146 -60.44289317 169.93551356 -70.87982178 169.91499329 C-74.14223834 169.90961138 -77.40451865 169.91497669 -80.66693115 169.92134094 C-82.76588979 169.92068045 -84.86484834 169.91939989 -86.96380615 169.91743469 C-88.40786835 169.92047104 -88.40786835 169.92047104 -89.88110352 169.92356873 C-92.55156903 169.91440264 -95.21634012 169.85984714 -97.88568115 169.78462219 C-98.66821762 169.78114273 -99.45075409 169.77766327 -100.25700378 169.77407837 C-106.85237378 169.46841163 -110.70000268 166.6973613 -115.6395874 162.49946594 C-116.42794983 161.83170639 -117.21631226 161.16394684 -118.02856445 160.47595215 C-120.55053541 158.27238481 -123.00765039 156.01547881 -125.44818115 153.72212219 C-126.27506439 152.94761719 -127.10194763 152.17311218 -127.95388794 151.37513733 C-139.73165186 139.94918033 -145.44546361 129.95996959 -145.83660889 113.38056946 C-145.81015109 111.22325578 -145.76414109 109.06608958 -145.69818115 106.90962219 C-145.67361847 105.85088898 -145.64905579 104.79215576 -145.62374878 103.70133972 C-145.51065474 100.65572458 -145.3022802 97.64020901 -145.0302124 94.60493469 C-144.9622345 93.70010849 -144.89425659 92.79528229 -144.82421875 91.86303711 C-144.29325272 87.92550801 -143.77066118 85.61266683 -140.81228638 82.84461975 C-134.90424449 78.78462219 -134.90424449 78.78462219 -131.88568115 78.78462219 C-132.3830629 78.36338074 -132.88044464 77.94213928 -133.39289856 77.50813293 C-137.60897742 73.43981593 -139.37449503 70.46376363 -139.68035889 64.55220032 C-139.67925991 62.139807 -139.64025455 59.72722132 -139.5692749 57.31587219 C-139.55937027 56.03982117 -139.54946564 54.76377014 -139.53926086 53.4490509 C-139.50684821 50.08081746 -139.44415064 46.71599918 -139.36633301 43.34870911 C-139.29430038 39.90316548 -139.26266505 36.45726669 -139.22747803 33.01118469 C-139.15050355 26.26806507 -139.033521 19.52654048 -138.88568115 12.78462219 C-138.02934837 12.79128403 -138.02934837 12.79128403 -137.15571594 12.79808044 C-100.44278202 13.50618656 -100.44278202 13.50618656 -63.88568115 10.78462219 C-62.91775635 10.65571594 -61.94983154 10.52680969 -60.95257568 10.39399719 C-43.04328413 7.90186836 -25.2191996 4.02322178 -8.07269287 -1.76005554 C-4.8408602 -2.43290304 -2.76294805 -1.78080252 0 0 Z M-12.0067749 6.92134094 C-51.57330201 18.4983546 -90.9799006 20.33119114 -131.88568115 19.78462219 C-132.14073952 26.43661388 -132.31496102 33.08733212 -132.43499756 39.74311829 C-132.4850673 42.00336312 -132.55314831 44.2632876 -132.64007568 46.52241516 C-133.78999794 59.60201614 -133.78999794 59.60201614 -129.61517334 71.4848175 C-127.15922046 73.89225773 -124.69280058 75.81805623 -121.88568115 77.78462219 C-121.88568115 78.44462219 -121.88568115 79.10462219 -121.88568115 79.78462219 C-124.17106088 81.39176019 -126.44746377 82.88567506 -128.82318115 84.34712219 C-133.07999098 86.78290213 -133.07999098 86.78290213 -136.88568115 89.78462219 C-140.08978983 105.25896985 -141.36193612 122.5332219 -132.86633301 136.47924805 C-124.89497029 148.07928494 -113.66477869 159.85428734 -99.71710205 163.64601135 C-84.28320399 166.49365818 -68.37628943 164.94393255 -52.90527344 163.12818909 C-49.03323915 162.68763199 -45.15561211 162.34373858 -41.27388 162.00138855 C-32.84721308 161.25082364 -24.48326389 160.30407127 -16.13568115 158.90962219 C-15.08694824 158.73672668 -14.03821533 158.56383118 -12.95770264 158.38569641 C-0.79304575 156.32888388 10.92948312 153.61770728 22.6182251 149.65180969 C23.44036499 149.37522522 24.26250488 149.09864075 25.10955811 148.81367493 C27.11193461 148.13966524 29.11324101 147.46247778 31.11431885 146.78462219 C31.3952497 140.29356167 31.58666552 133.80408704 31.71856689 127.30830383 C31.77359161 125.10328107 31.84844269 122.89865428 31.94415283 120.69502258 C33.08123476 106.45768526 33.08123476 106.45768526 27.13014221 94.19973755 C24.92341335 92.17981714 22.61738508 90.41955517 20.11431885 88.78462219 C21.26480137 85.79336763 22.7818895 84.12582918 25.13018799 82.04560852 C28.69418262 78.57687779 29.37589995 75.45617933 29.8604126 70.60884094 C29.94228821 69.81790543 30.02416382 69.02696991 30.10852051 68.21206665 C30.32432175 65.63104302 30.45513077 63.06026807 30.55181885 60.47212219 C30.58901031 59.59322327 30.62620178 58.71432434 30.66452026 57.80879211 C30.94216142 44.58641337 27.66429751 36.17306043 18.68379211 26.46350098 C7.7001589 15.16149984 7.7001589 15.16149984 -4.88568115 5.78462219 C-7.66863878 5.78462219 -9.38419782 6.13018379 -12.0067749 6.92134094 Z " fill="#FDFDFD" transform="translate(142.88568115234375,6.2153778076171875)"/>
</svg>
