<?xml version="1.0" encoding="UTF-8"?>
<svg version="1.1" xmlns="http://www.w3.org/2000/svg" width="1080" height="141">
<path d="M0 0 C1.2365332 -0.01836914 1.2365332 -0.01836914 2.49804688 -0.03710938 C3.30435547 -0.03904297 4.11066406 -0.04097656 4.94140625 -0.04296875 C5.66142822 -0.04707764 6.3814502 -0.05118652 7.12329102 -0.05541992 C10.06994758 0.25388731 12.64393803 1.22399737 15.4375 2.1875 C15.46082869 19.12012204 15.47847903 36.05273908 15.48931217 52.9853735 C15.49447519 60.84694391 15.50151801 68.70850435 15.51293945 76.57006836 C15.5228861 83.41975475 15.52935338 90.26943392 15.53158849 97.11912733 C15.53289563 100.74819396 15.53598169 104.37723994 15.54323006 108.00629997 C15.55124356 112.05100304 15.55149115 116.09566989 15.55102539 120.14038086 C15.55462067 121.35238159 15.55821594 122.56438232 15.56192017 123.81311035 C15.5605455 124.90832504 15.55917084 126.00353973 15.55775452 127.13194275 C15.55913721 128.56855711 15.55913721 128.56855711 15.56054783 130.03419399 C15.4375 132.1875 15.4375 132.1875 14.4375 133.1875 C12.3769469 133.28743532 10.3129741 133.31830906 8.25 133.3203125 C6.99445313 133.32160156 5.73890625 133.32289063 4.4453125 133.32421875 C3.78821289 133.32212402 3.13111328 133.3200293 2.45410156 133.31787109 C0.44588665 133.31252234 -1.56210459 133.31781691 -3.5703125 133.32421875 C-5.45363281 133.32228516 -5.45363281 133.32228516 -7.375 133.3203125 C-8.53644531 133.31918457 -9.69789062 133.31805664 -10.89453125 133.31689453 C-13.5625 133.1875 -13.5625 133.1875 -14.5625 132.1875 C-14.5625 126.9075 -14.5625 121.6275 -14.5625 116.1875 C-33.7025 116.1875 -52.8425 116.1875 -72.5625 116.1875 C-71.57020944 112.21833775 -70.94292449 111.13774863 -68.3125 108.25 C-67.72984375 107.60160156 -67.1471875 106.95320313 -66.546875 106.28515625 C-65.11437171 104.7708762 -63.63514289 103.30033333 -62.12890625 101.859375 C-59.44203731 99.22187995 -59.44203731 99.22187995 -57.35546875 95.85546875 C-54.33501464 91.60887192 -51.40622134 88.32320422 -46.5625 86.1875 C-35.93382405 84.497585 -25.27006915 85.61466708 -14.5625 86.1875 C-14.5625 72.6575 -14.5625 59.1275 -14.5625 45.1875 C-15.2225 45.1875 -15.8825 45.1875 -16.5625 45.1875 C-16.830625 45.785625 -17.09875 46.38375 -17.375 47 C-18.56167406 49.18597854 -19.65849113 50.60082594 -21.5625 52.1875 C-22.2225 52.1875 -22.8825 52.1875 -23.5625 52.1875 C-23.789375 52.73921875 -24.01625 53.2909375 -24.25 53.859375 C-25.94975926 56.87442417 -28.11054816 58.99980369 -30.5625 61.4375 C-31.8928125 62.77554688 -31.8928125 62.77554688 -33.25 64.140625 C-35.5625 66.1875 -35.5625 66.1875 -37.5625 66.1875 C-37.871875 66.991875 -37.871875 66.991875 -38.1875 67.8125 C-40.09500426 71.10728009 -42.61069384 73.78113628 -45.5625 76.1875 C-46.2225 76.1875 -46.8825 76.1875 -47.5625 76.1875 C-48.5525 78.1675 -48.5525 78.1675 -49.5625 80.1875 C-50.2225 80.1875 -50.8825 80.1875 -51.5625 80.1875 C-51.871875 80.991875 -51.871875 80.991875 -52.1875 81.8125 C-54.09500426 85.10728009 -56.61069384 87.78113628 -59.5625 90.1875 C-60.2225 90.1875 -60.8825 90.1875 -61.5625 90.1875 C-61.9646875 91.0846875 -61.9646875 91.0846875 -62.375 92 C-63.56167406 94.18597854 -64.65849113 95.60082594 -66.5625 97.1875 C-67.2225 97.1875 -67.8825 97.1875 -68.5625 97.1875 C-68.789375 97.73921875 -69.01625 98.2909375 -69.25 98.859375 C-70.94975926 101.87442417 -73.11054816 103.99980369 -75.5625 106.4375 C-76.449375 107.32953125 -77.33625 108.2215625 -78.25 109.140625 C-80.5625 111.1875 -80.5625 111.1875 -82.5625 111.1875 C-82.82973877 111.75823242 -83.09697754 112.32896484 -83.37231445 112.91699219 C-87.6326828 121.0444641 -94.44058977 128.87083907 -102.5625 133.1875 C-112.7204697 135.36995108 -123.31676542 134.33069182 -133.5625 133.1875 C-133.64379374 130.94721765 -133.70182289 128.70608284 -133.75 126.46484375 C-133.78480469 125.21695068 -133.81960937 123.96905762 -133.85546875 122.68334961 C-133.46726866 118.05115199 -131.92042993 116.03920878 -128.6328125 112.91796875 C-127.94960937 112.34691406 -127.26640625 111.77585937 -126.5625 111.1875 C-125.87929687 110.58550781 -125.19609375 109.98351562 -124.4921875 109.36328125 C-123.14031846 108.17846827 -121.77850596 107.00488966 -120.40625 105.84375 C-118.7270422 104.3353091 -117.3399584 102.82456312 -115.9375 101.0625 C-113.40397587 97.99560237 -110.61299784 95.72958154 -107.5625 93.1875 C-106.7375 92.1975 -105.9125 91.2075 -105.0625 90.1875 C-102.47544664 87.08303597 -99.66528666 84.76215276 -96.5625 82.1875 C-95.82 81.259375 -95.0775 80.33125 -94.3125 79.375 C-93.44625 78.2921875 -93.44625 78.2921875 -92.5625 77.1875 C-91.9025 77.1875 -91.2425 77.1875 -90.5625 77.1875 C-90.5625 76.5275 -90.5625 75.8675 -90.5625 75.1875 C-89.9025 75.1875 -89.2425 75.1875 -88.5625 75.1875 C-88.5625 74.5275 -88.5625 73.8675 -88.5625 73.1875 C-87.9025 73.1875 -87.2425 73.1875 -86.5625 73.1875 C-86.0675 71.7025 -86.0675 71.7025 -85.5625 70.1875 C-83.125 67.5 -83.125 67.5 -80.5625 65.1875 C-79.9025 65.1875 -79.2425 65.1875 -78.5625 65.1875 C-78.5625 64.5275 -78.5625 63.8675 -78.5625 63.1875 C-77.9025 63.1875 -77.2425 63.1875 -76.5625 63.1875 C-76.5625 62.5275 -76.5625 61.8675 -76.5625 61.1875 C-75.9025 61.1875 -75.2425 61.1875 -74.5625 61.1875 C-74.5625 60.5275 -74.5625 59.8675 -74.5625 59.1875 C-73.9025 59.1875 -73.2425 59.1875 -72.5625 59.1875 C-71.9025 57.8675 -71.2425 56.5475 -70.5625 55.1875 C-69.9025 55.1875 -69.2425 55.1875 -68.5625 55.1875 C-68.5625 54.5275 -68.5625 53.8675 -68.5625 53.1875 C-67.9025 53.1875 -67.2425 53.1875 -66.5625 53.1875 C-66.5625 52.5275 -66.5625 51.8675 -66.5625 51.1875 C-65.9025 51.1875 -65.2425 51.1875 -64.5625 51.1875 C-64.5625 50.5275 -64.5625 49.8675 -64.5625 49.1875 C-63.9025 49.1875 -63.2425 49.1875 -62.5625 49.1875 C-62.335625 48.630625 -62.10875 48.07375 -61.875 47.5 C-60.18872733 44.52894815 -58.032146 42.54227875 -55.5625 40.1875 C-54.69625 39.28 -53.83 38.3725 -52.9375 37.4375 C-50.5625 35.1875 -50.5625 35.1875 -47.5625 34.1875 C-47.5625 33.5275 -47.5625 32.8675 -47.5625 32.1875 C-46.9025 32.1875 -46.2425 32.1875 -45.5625 32.1875 C-45.5625 31.5275 -45.5625 30.8675 -45.5625 30.1875 C-44.9025 30.1875 -44.2425 30.1875 -43.5625 30.1875 C-43.5625 29.5275 -43.5625 28.8675 -43.5625 28.1875 C-42.9025 28.1875 -42.2425 28.1875 -41.5625 28.1875 C-40.9025 26.8675 -40.2425 25.5475 -39.5625 24.1875 C-38.9025 24.1875 -38.2425 24.1875 -37.5625 24.1875 C-36.9025 22.8675 -36.2425 21.5475 -35.5625 20.1875 C-34.9025 20.1875 -34.2425 20.1875 -33.5625 20.1875 C-33.5625 19.5275 -33.5625 18.8675 -33.5625 18.1875 C-32.9025 18.1875 -32.2425 18.1875 -31.5625 18.1875 C-30.9025 16.8675 -30.2425 15.5475 -29.5625 14.1875 C-28.9025 14.1875 -28.2425 14.1875 -27.5625 14.1875 C-27.31886719 13.62417969 -27.07523437 13.06085937 -26.82421875 12.48046875 C-25.31846716 9.74400998 -23.53811765 7.75247191 -21.375 5.5 C-20.27091797 4.31857422 -20.27091797 4.31857422 -19.14453125 3.11328125 C-13.78285802 -0.88566717 -6.45508245 0.00507076 0 0 Z " fill="#000000" transform="translate(137.5625,2.8125)"/>
<path d="M0 0 C24.48366162 -3.92775082 24.48366162 -3.92775082 34.39050293 2.04364014 C37.67927211 4.68802302 40.49083044 7.71297663 43.2421875 10.90234375 C43.95500004 11.72576956 43.95500004 11.72576956 44.68221283 12.56583023 C47.14191774 15.44476895 49.5393549 18.3697099 51.91479492 21.31835938 C69.64249258 43.44210777 69.64249258 43.44210777 95.0390625 53.47265625 C105.42200291 54.17708114 115.8270747 53.21396908 126.06835938 51.47460938 C127.36580078 51.31798828 128.66324219 51.16136719 130 51 C132 53 132 53 132.24291992 55.36669922 C132.23881104 56.33623535 132.23470215 57.30577148 132.23046875 58.3046875 C132.22853516 59.36300781 132.22660156 60.42132813 132.22460938 61.51171875 C132.21236328 62.62160156 132.20011719 63.73148438 132.1875 64.875 C132.1865332 66.52822266 132.1865332 66.52822266 132.18554688 68.21484375 C132.13892906 76.74072464 132.13892906 76.74072464 131 81 C130.41800842 80.96811584 129.83601685 80.93623169 129.23638916 80.90338135 C123.06965459 80.58638074 116.91045489 80.4181816 110.73632812 80.32861328 C108.44679896 80.27698664 106.1577417 80.18986266 103.87109375 80.06396484 C102.76894531 80.00547363 101.66679688 79.94698242 100.53125 79.88671875 C99.5628418 79.82476318 98.59443359 79.76280762 97.59667969 79.69897461 C76.635037 80.4294561 78.51973128 84.48026872 61 102 C85.09 102.33 109.18 102.66 134 103 C134.66 104.32 135.32 105.64 136 107 C136.99 107.33 137.98 107.66 139 108 C139 108.66 139 109.32 139 110 C139.99 110.33 140.98 110.66 142 111 C148.89208758 117.38778849 148.89208758 117.38778849 149.1953125 121.91796875 C149.17210937 122.99691406 149.14890625 124.07585937 149.125 125.1875 C149.10695313 126.27417969 149.08890625 127.36085938 149.0703125 128.48046875 C149.04710937 129.31191406 149.02390625 130.14335937 149 131 C145.62870234 133.03100197 143.05437539 133.24928506 139.14830017 133.24723816 C137.95232712 133.25143265 136.75635406 133.25562714 135.5241394 133.25994873 C134.21542877 133.25432922 132.90671814 133.24870972 131.55834961 133.24291992 C130.16362926 133.24399308 128.76890935 133.24593225 127.37419128 133.24867249 C123.58917939 133.25351822 119.80428546 133.24586881 116.01928782 133.23571944 C112.05953655 133.22693536 108.09978894 133.22869645 104.14002991 133.2290802 C97.49136379 133.22814378 90.84274332 133.2194623 84.1940918 133.20581055 C76.5039683 133.19007882 68.81389478 133.18481268 61.12375635 133.1855461 C53.72873804 133.18615615 46.33373603 133.18105318 38.93872261 133.17275429 C35.79006384 133.16922117 32.64141083 133.167391 29.49275017 133.16686058 C25.7868663 133.16585704 22.08102449 133.15975945 18.3751545 133.14969444 C16.36355139 133.14537385 14.35193966 133.14594145 12.34033203 133.14663696 C10.55060219 133.14023949 10.55060219 133.14023949 8.72471619 133.13371277 C7.68552001 133.13203692 6.64632383 133.13036108 5.57563686 133.12863445 C3 133 3 133 0 132 C-2.20856705 127.5828659 -0.95725799 121.68706199 0 117 C1.75358007 114.51576157 3.34263184 113.66736826 6 112 C6.66 111.175 7.32 110.35 8 109.5 C10 107 10 107 12.9375 104.5625 C16.06920147 101.94209673 18.43019531 99.16283654 21 96 C22.6454378 94.31237149 24.31288577 92.6459651 26 91 C26.52078125 90.45730469 27.0415625 89.91460937 27.578125 89.35546875 C29.01467299 87.86661925 30.5042053 86.42931493 32 85 C32.66 85 33.32 85 34 85 C34.66 83.68 35.32 82.36 36 81 C36.66 81 37.32 81 38 81 C38.22429688 80.44828125 38.44859375 79.8965625 38.6796875 79.328125 C40.40385183 76.28788256 42.62515822 74.18574327 45.125 71.75 C46.03507813 70.85796875 46.94515625 69.9659375 47.8828125 69.046875 C48.58148437 68.37140625 49.28015625 67.6959375 50 67 C48.42306589 63.10297892 45.88838498 60.7510227 42.875 57.875 C41.21276567 56.28810774 39.57775654 54.67090822 38 53 C38 52.34 38 51.68 38 51 C37.4134111 50.73807358 36.8268222 50.47614716 36.22245789 50.20628357 C33.87732766 48.93341713 32.32598149 47.57970412 30.44067383 45.69946289 C29.76349808 45.02859146 29.08632233 44.35772003 28.3886261 43.66651917 C27.6686998 42.9425444 26.9487735 42.21856964 26.20703125 41.47265625 C25.46039719 40.72793564 24.71376312 39.98321503 23.94450378 39.21592712 C22.36947718 37.64226019 20.7969682 36.06607 19.22680664 34.48754883 C16.8181204 32.0681454 14.39894693 29.65960003 11.97851562 27.25195312 C10.44987901 25.72199517 8.92186276 24.19141707 7.39453125 22.66015625 C6.66853226 21.93820572 5.94253326 21.21625519 5.1945343 20.47242737 C4.1929554 19.46139198 4.1929554 19.46139198 3.17114258 18.42993164 C2.58142166 17.83861954 1.99170074 17.24730743 1.3841095 16.63807678 C-1.58584039 13.12317715 -1.15104464 9.38029465 -1 5 C-0.68879347 3.32906033 -0.35963885 1.66118897 0 0 Z " fill="#010101" transform="translate(620,4)"/>
<path d="M0 0 C1.0904811 0.00092179 2.1809622 0.00184359 3.30448818 0.00279331 C4.55115765 0.00141865 5.79782711 0.00004398 7.08227444 -0.00137234 C8.47653127 0.00216727 9.87078785 0.00580209 11.26504421 0.00952244 C12.72330123 0.0098043 14.18155839 0.00964659 15.63981533 0.00907993 C19.61071618 0.00879193 23.58158708 0.01468906 27.55248094 0.02165389 C31.69783233 0.02788702 35.84318434 0.02849119 39.9885397 0.0296793 C47.84377459 0.03279274 55.69899564 0.04100629 63.55422443 0.05102879 C72.49482531 0.06218954 81.43542684 0.06770028 90.37603295 0.07272422 C108.77255694 0.0831889 127.16906802 0.10078858 145.56558132 0.12304783 C146.79289891 14.66651044 146.79289891 14.66651044 142.61785793 19.88804722 C141.26259748 21.29207089 139.86608078 22.65709721 138.43716335 23.98608494 C137.30081448 25.13053829 137.30081448 25.13053829 136.14150906 26.29811192 C133.65300387 28.78636573 131.11567588 31.21721278 128.57339382 33.65039158 C126.82628402 35.37457472 125.08233895 37.10197004 123.34142971 38.83241367 C118.76848579 43.3596138 114.151443 47.83913489 109.52432156 52.310853 C105.7409169 55.98204632 101.98964317 59.68514233 98.23965549 63.39041901 C90.51013341 71.02723853 82.76018814 78.64369588 74.95278835 86.20092869 C73.86953777 87.25961658 73.86953777 87.25961658 72.76440334 88.33969212 C72.10535 88.97431873 71.44629665 89.60894535 70.767272 90.26280308 C70.19391676 90.81851962 69.62056152 91.37423616 69.02983189 91.9467926 C67.56558132 93.12304783 67.56558132 93.12304783 65.56558132 93.12304783 C65.30587551 93.70774342 65.0461697 94.292439 64.77859402 94.89485264 C63.47900336 97.28208376 62.07836694 98.85766022 60.1573782 100.77417088 C59.46325832 101.47136738 58.76913845 102.16856388 58.05398464 102.88688755 C57.30499905 103.62868763 56.55601345 104.37048771 55.78433132 105.13476658 C54.63039883 106.28801174 54.63039883 106.28801174 53.45315456 107.46455479 C51.82811907 109.08657203 50.20065665 110.70616096 48.57095242 112.32348728 C46.06988428 114.80627632 43.57693329 117.29699694 41.08511257 119.78906345 C39.50615713 121.36310442 37.92674556 122.93668799 36.34683132 124.50976658 C35.22335293 125.63157574 35.22335293 125.63157574 34.077178 126.77604771 C33.38305813 127.46378773 32.68893826 128.15152775 31.97378445 128.86010838 C31.36248684 129.46759418 30.75118923 130.07507999 30.12136745 130.70097446 C25.65842332 134.78034877 18.8064549 133.30763733 13.12808132 133.31054783 C11.87446804 133.32279392 10.62085476 133.33504002 9.3292532 133.3476572 C7.53004421 133.35055759 7.53004421 133.35055759 5.69448757 133.35351658 C4.59177517 133.35762547 3.48906277 133.36173435 2.35293484 133.36596775 C-0.43441868 133.12304783 -0.43441868 133.12304783 -3.43441868 131.12304783 C-4.88990896 126.56384692 -4.65197397 122.7211863 -3.43441868 118.12304783 C0.3016501 112.18352358 5.83524464 107.54280222 10.94058132 102.81054783 C12.32364352 101.47560764 13.70388418 100.13773765 15.08120632 98.79687595 C25.12268932 89.12304783 25.12268932 89.12304783 27.56558132 89.12304783 C28.22558132 87.80304783 28.88558132 86.48304783 29.56558132 85.12304783 C30.22558132 85.12304783 30.88558132 85.12304783 31.56558132 85.12304783 C31.93683132 84.19492283 31.93683132 84.19492283 32.31558132 83.24804783 C33.80298501 80.71946156 35.00236141 80.40465779 37.56558132 79.12304783 C37.8395071 78.54522556 38.11343288 77.9674033 38.39565945 77.37207127 C39.92472195 74.43264643 41.94560033 72.483563 44.28433132 70.13867283 C45.6823196 68.73681736 45.6823196 68.73681736 47.10855007 67.30664158 C47.59372097 66.82566013 48.07889187 66.34467869 48.57876492 65.84912205 C50.06764471 64.37099935 51.54549783 62.88244872 53.02261257 61.39257908 C53.95460476 60.46316502 54.88659695 59.53375095 55.84683132 58.57617283 C56.70341335 57.72184666 57.55999538 56.86752048 58.44253445 55.98730564 C60.56558132 54.12304783 60.56558132 54.12304783 62.56558132 54.12304783 C62.80131863 53.56133884 63.03705593 52.99962986 63.27993679 52.42089939 C64.86958504 49.57969747 66.81901408 47.64497497 69.13589382 45.35742283 C70.03179226 44.4679697 70.9276907 43.57851658 71.85073757 42.66211033 C72.78788601 41.7417197 73.72503445 40.82132908 74.69058132 39.87304783 C75.64546769 38.92819926 76.59989991 37.9828915 77.55386257 37.03711033 C79.88667219 34.72786445 82.22402219 32.4234158 84.56558132 30.12304783 C83.47785931 30.11274036 82.39013729 30.1024329 81.269454 30.09181309 C71.04198702 29.99425423 60.81458326 29.89153724 50.58721924 29.78370857 C45.32864495 29.72843408 40.07006515 29.67500698 34.81143093 29.62573338 C29.74100068 29.57815641 24.67064035 29.52581629 19.60029316 29.47010708 C17.66133193 29.44965321 15.7223515 29.43094526 13.78335667 29.41397381 C11.07731178 29.38999666 8.37140033 29.35993338 5.66543484 29.32837009 C4.85551586 29.32261463 4.04559689 29.31685917 3.21113491 29.3109293 C-2.32036652 29.23709999 -2.32036652 29.23709999 -3.43441868 28.12304783 C-3.53424926 26.13547755 -3.56522621 24.14437263 -3.56723118 22.15429783 C-3.56852024 20.94386814 -3.5698093 19.73343845 -3.57113743 18.48632908 C-3.56727024 17.21144627 -3.56340305 15.93656345 -3.55941868 14.62304783 C-3.56328587 13.34816502 -3.56715305 12.0732822 -3.57113743 10.75976658 C-3.56984837 9.54933689 -3.5685593 8.3389072 -3.56723118 7.09179783 C-3.56610325 5.97224705 -3.56497532 4.85269627 -3.56381321 3.6992197 C-3.39409366 0.32019963 -3.36766298 0.17021871 0 0 Z " fill="#000000" transform="translate(460.4344186782837,3.8769521713256836)"/>
<path d="M0 0 C2.11231045 -0.01881255 4.22462529 -0.03713974 6.33694458 -0.05493164 C7.81666166 -0.07883343 7.81666166 -0.07883343 9.32627201 -0.10321808 C10.68433791 -0.11116016 10.68433791 -0.11116016 12.06983948 -0.1192627 C13.26711497 -0.13288471 13.26711497 -0.13288471 14.48857784 -0.14678192 C16.44070435 0.08374023 16.44070435 0.08374023 18.44070435 2.08374023 C20.76963294 10.76655494 21.68580019 21.56159508 18.44070435 30.08374023 C13.28902841 38.82568926 4.70881544 45.75855057 -3.02912903 52.15499878 C-6.70689881 55.20118773 -9.59449867 58.37187488 -12.55929565 62.08374023 C-14.74679565 64.45874023 -14.74679565 64.45874023 -16.55929565 66.08374023 C-17.21929565 66.08374023 -17.87929565 66.08374023 -18.55929565 66.08374023 C-19.05429565 67.56874023 -19.05429565 67.56874023 -19.55929565 69.08374023 C-21.49679565 71.27124023 -21.49679565 71.27124023 -23.55929565 73.08374023 C-24.21929565 73.08374023 -24.87929565 73.08374023 -25.55929565 73.08374023 C-24.03111689 75.83446201 -22.60613773 78.03689816 -20.37179565 80.27124023 C-19.77367065 80.86936523 -19.17554565 81.46749023 -18.55929565 82.08374023 C-18.55929565 82.74374023 -18.55929565 83.40374023 -18.55929565 84.08374023 C-18.01651978 84.29981934 -17.4737439 84.51589844 -16.91452026 84.73852539 C-13.74590524 86.54831794 -11.40042799 89.01588763 -8.8757019 91.60717773 C-8.33831894 92.14976227 -7.80093597 92.6923468 -7.24726868 93.25137329 C-5.53394151 94.98246488 -3.82745214 96.7200928 -2.12179565 98.45874023 C-0.41888137 100.18938928 1.28551064 101.91851419 2.9929657 103.64468384 C4.05321045 104.71705718 5.11077223 105.79209215 6.16517639 106.87020874 C9.10194414 109.84634139 12.14480148 112.51493265 15.44070435 115.08374023 C17.90650133 117.59778107 18.40420751 118.72789609 18.76882935 122.28295898 C18.7430481 123.4340918 18.71726685 124.58522461 18.69070435 125.77124023 C18.6752356 126.93010742 18.65976685 128.08897461 18.64382935 129.28295898 C18.44070435 132.08374023 18.44070435 132.08374023 17.44070435 133.08374023 C15.24592743 133.18388933 13.04792034 133.21455242 10.8508606 133.21655273 C10.19113754 133.21750946 9.53141449 133.21846619 8.85169983 133.2194519 C7.45371404 133.22013359 6.0557251 133.21828009 4.65774536 133.21411133 C2.51566452 133.2087713 0.37379418 133.21405223 -1.76828003 133.22045898 C-3.12440028 133.21979803 -4.48052041 133.21851652 -5.8366394 133.21655273 C-7.07663696 133.2154248 -8.31663452 133.21429688 -9.59420776 133.21313477 C-12.55929565 133.08374023 -12.55929565 133.08374023 -14.55929565 132.08374023 C-14.55929565 131.42374023 -14.55929565 130.76374023 -14.55929565 130.08374023 C-15.21929565 130.08374023 -15.87929565 130.08374023 -16.55929565 130.08374023 C-16.55929565 129.42374023 -16.55929565 128.76374023 -16.55929565 128.08374023 C-17.21929565 128.08374023 -17.87929565 128.08374023 -18.55929565 128.08374023 C-18.55929565 127.42374023 -18.55929565 126.76374023 -18.55929565 126.08374023 C-20.53929565 125.09374023 -20.53929565 125.09374023 -22.55929565 124.08374023 C-22.55929565 123.42374023 -22.55929565 122.76374023 -22.55929565 122.08374023 C-24.53929565 121.09374023 -24.53929565 121.09374023 -26.55929565 120.08374023 C-26.55929565 119.42374023 -26.55929565 118.76374023 -26.55929565 118.08374023 C-27.21929565 118.08374023 -27.87929565 118.08374023 -28.55929565 118.08374023 C-29.78862182 116.62183884 -31.01359256 115.15576641 -32.2038269 113.66186523 C-33.63622203 111.89555487 -33.63622203 111.89555487 -36.05929565 110.08374023 C-38.14862838 108.41227405 -39.5855961 106.94716403 -41.24679565 104.89624023 C-43.25319816 102.0672679 -43.25319816 102.0672679 -45.55929565 101.08374023 C-45.55929565 100.42374023 -45.55929565 99.76374023 -45.55929565 99.08374023 C-46.21929565 99.08374023 -46.87929565 99.08374023 -47.55929565 99.08374023 C-47.55929565 98.42374023 -47.55929565 97.76374023 -47.55929565 97.08374023 C-48.21929565 97.08374023 -48.87929565 97.08374023 -49.55929565 97.08374023 C-49.55929565 96.42374023 -49.55929565 95.76374023 -49.55929565 95.08374023 C-50.87929565 94.42374023 -52.19929565 93.76374023 -53.55929565 93.08374023 C-53.55929565 92.42374023 -53.55929565 91.76374023 -53.55929565 91.08374023 C-54.87929565 90.42374023 -56.19929565 89.76374023 -57.55929565 89.08374023 C-57.55929565 88.42374023 -57.55929565 87.76374023 -57.55929565 87.08374023 C-58.21929565 87.08374023 -58.87929565 87.08374023 -59.55929565 87.08374023 C-59.55929565 86.42374023 -59.55929565 85.76374023 -59.55929565 85.08374023 C-60.21929565 85.08374023 -60.87929565 85.08374023 -61.55929565 85.08374023 C-61.55929565 84.42374023 -61.55929565 83.76374023 -61.55929565 83.08374023 C-62.69109253 83.0231543 -63.8228894 82.96256836 -64.98898315 82.90014648 C-66.47076711 82.81574107 -67.95253726 82.73109307 -69.43429565 82.64624023 C-70.18066284 82.60692383 -70.92703003 82.56760742 -71.6960144 82.52709961 C-77.33273315 82.19702148 -77.33273315 82.19702148 -79.55929565 81.08374023 C-79.58395447 77.11443034 -79.60213588 73.14514989 -79.61422729 69.17578125 C-79.61926622 67.82453637 -79.62609743 66.47329698 -79.63473511 65.12207031 C-79.64681985 63.18353589 -79.65199394 61.24496223 -79.6569519 59.30639648 C-79.66218872 58.13858643 -79.66742554 56.97077637 -79.67282104 55.76757812 C-79.55929565 53.08374023 -79.55929565 53.08374023 -78.55929565 52.08374023 C-76.24274176 51.94914272 -73.92233818 51.88002682 -71.6022644 51.83764648 C-70.16540961 51.80469703 -68.7285608 51.77148558 -67.29171753 51.73803711 C-65.02052092 51.69068473 -62.74934667 51.64628443 -60.47799683 51.60693359 C-58.28998729 51.5671256 -56.10249003 51.51559013 -53.9147644 51.46264648 C-52.60145142 51.43759033 -51.28813843 51.41253418 -49.93502808 51.38671875 C-46.80774297 51.10603886 -45.06180667 50.92659507 -42.55929565 49.08374023 C-42.11356453 48.16263206 -42.11356453 48.16263206 -41.65882874 47.22291565 C-40.46546461 44.90118904 -39.15929501 43.45464869 -37.30148315 41.63061523 C-36.67628784 41.01186523 -36.05109253 40.39311523 -35.4069519 39.75561523 C-34.75597534 39.12139648 -34.10499878 38.48717773 -33.43429565 37.83374023 C-32.77558472 37.18405273 -32.11687378 36.53436523 -31.4382019 35.86499023 C-29.81632923 34.26662296 -28.18996756 32.67312126 -26.55929565 31.08374023 C-27.22835434 31.09119766 -27.89741302 31.09865509 -28.58674622 31.1063385 C-35.57953879 31.17539571 -42.57039306 31.18114047 -49.56344604 31.15087891 C-52.16959655 31.14780542 -54.77581797 31.16062753 -57.38180542 31.18994141 C-61.13890065 31.22939916 -64.89202749 31.21082245 -68.6491394 31.18139648 C-70.38404884 31.21826317 -70.38404884 31.21826317 -72.15400696 31.25587463 C-78.62718785 31.14210636 -82.03021865 30.32590336 -86.69943237 25.68261719 C-88.00957831 24.16971445 -89.29959935 22.63890014 -90.55929565 21.08374023 C-93.24138694 18.38986817 -95.93663632 15.71483739 -98.6725769 13.07592773 C-99.73905023 12.03693408 -100.80545583 10.9978709 -101.87179565 9.95874023 C-102.69647339 9.17176758 -102.69647339 9.17176758 -103.53781128 8.36889648 C-104.93591322 6.99684614 -106.2544025 5.54472108 -107.55929565 4.08374023 C-107.55929565 3.09374023 -107.55929565 2.10374023 -107.55929565 1.08374023 C-94.78777148 0.95197075 -82.01623477 0.82149469 -69.24468136 0.69258881 C-63.31186727 0.6326688 -57.37905807 0.5723331 -51.44625854 0.51098633 C-45.70146748 0.45159993 -39.95666555 0.39338515 -34.21185493 0.33592224 C-32.03985751 0.31400239 -29.86786404 0.29168766 -27.69587517 0.26893616 C-21.65862539 0.20583974 -15.62142304 0.1523364 -9.58399582 0.10946655 C-6.38917237 0.08229327 -3.19467349 0.04100291 0 0 Z " fill="#010101" transform="translate(897.5592956542969,2.916259765625)"/>
<path d="M0 0 C2.17471324 -0.00067559 4.34942641 -0.00164773 6.5241394 -0.00289917 C11.04376965 -0.004361 15.56337992 -0.00226874 20.08300781 0.00244141 C25.86160917 0.00817222 31.6401644 0.00482902 37.41876411 -0.00113106 C41.89352769 -0.00474861 46.36828037 -0.00359317 50.84304428 -0.00100327 C52.97440471 -0.00033908 55.10576615 -0.00114455 57.2371254 -0.00348282 C60.21035639 -0.00603279 63.18351282 -0.00213728 66.15673828 0.00341797 C67.02542038 0.00139374 67.89410248 -0.00063049 68.78910828 -0.00271606 C73.90247739 0.01491114 78.80533342 0.39897227 83.8671875 1.1328125 C87.0015435 10.94920219 88.41241203 21.59212129 83.8671875 31.1328125 C74.50570808 44.72829898 60.73384334 56.18975731 48.38340759 67.0425415 C47.54282303 67.78727722 46.70223846 68.53201294 45.83618164 69.29931641 C45.09227676 69.9460733 44.34837189 70.5928302 43.58192444 71.25918579 C41.7556022 73.25473744 41.24574077 74.48768554 40.8671875 77.1328125 C42.8471875 78.1228125 42.8471875 78.1228125 44.8671875 79.1328125 C44.8671875 79.7928125 44.8671875 80.4528125 44.8671875 81.1328125 C45.4859375 81.3803125 46.1046875 81.6278125 46.7421875 81.8828125 C49.27077377 83.37021619 49.58557754 84.56959259 50.8671875 87.1328125 C52.19321896 87.81388723 53.52752296 88.47896149 54.8671875 89.1328125 C56.44915771 90.37333679 56.44915771 90.37333679 57.98339844 91.78393555 C58.85384796 92.5819886 58.85384796 92.5819886 59.74188232 93.39616394 C62.36534252 95.86259452 64.97082216 98.34650051 67.55908203 100.84985352 C68.92335303 102.15602566 70.30260108 103.44674415 71.69677734 104.72094727 C83.91563731 115.9029588 83.91563731 115.9029588 84.75585938 122.43603516 C84.89513186 126.06692149 84.52044951 129.55610748 83.8671875 133.1328125 C79.74167881 133.30726477 75.61762754 133.43352137 71.48925781 133.51733398 C70.08848634 133.55230492 68.68796608 133.59990282 67.28808594 133.66088867 C65.2617381 133.7468856 63.23879146 133.78572137 61.2109375 133.81640625 C59.99599609 133.85306396 58.78105469 133.88972168 57.52929688 133.92749023 C52.24145546 132.78002865 49.59544888 129.92050239 45.8671875 126.1328125 C45.12156555 125.37864548 44.3759436 124.62447845 43.60772705 123.84745789 C41.10795615 121.27725982 38.6399447 118.67875883 36.171875 116.078125 C33.82289229 113.64589537 31.47042765 111.21714152 29.11599541 108.79019356 C26.6789535 106.27401146 24.2550586 103.74727341 21.85546875 101.1953125 C19.96662593 99.18772474 18.06121013 97.19909267 16.13406372 95.22824097 C14.33144857 93.38474425 12.55304946 91.51713856 10.8041687 89.62258911 C5.81370693 84.60693851 2.49738765 82.60297891 -4.66357422 82.11669922 C-6.81998949 82.12094518 -8.97640366 82.12604703 -11.1328125 82.1328125 C-11.7928125 81.8028125 -12.4528125 81.4728125 -13.1328125 81.1328125 C-13.15747131 77.16350261 -13.17565273 73.19422216 -13.18774414 69.22485352 C-13.19278307 67.87360864 -13.19961427 66.52236924 -13.20825195 65.17114258 C-13.22033669 63.23260816 -13.22551078 61.2940345 -13.23046875 59.35546875 C-13.23570557 58.18765869 -13.24094238 57.01984863 -13.24633789 55.81665039 C-13.1328125 53.1328125 -13.1328125 53.1328125 -12.1328125 52.1328125 C-9.81625861 51.99821498 -7.49585503 51.92909909 -5.17578125 51.88671875 C-3.73892645 51.8537693 -2.30207764 51.82055784 -0.86523438 51.78710938 C1.40596224 51.739757 3.67713648 51.6953567 5.94848633 51.65600586 C8.13649586 51.61619786 10.32399312 51.5646624 12.51171875 51.51171875 C13.82503174 51.4866626 15.13834473 51.46160645 16.49145508 51.43579102 C19.61874018 51.15511113 21.36467648 50.97566734 23.8671875 49.1328125 C24.31291862 48.21170433 24.31291862 48.21170433 24.76765442 47.27198792 C25.96101855 44.95026131 27.26718815 43.50372095 29.125 41.6796875 C29.75019531 41.0609375 30.37539062 40.4421875 31.01953125 39.8046875 C31.67050781 39.17046875 32.32148438 38.53625 32.9921875 37.8828125 C33.65089844 37.233125 34.30960937 36.5834375 34.98828125 35.9140625 C36.61015393 34.31569523 38.2365156 32.72219353 39.8671875 31.1328125 C39.18924637 31.13138748 38.51130524 31.12996246 37.81282043 31.12849426 C30.7559057 31.10880604 23.69985696 31.05455034 16.64331055 30.98022461 C14.00991021 30.95702928 11.3764169 30.94264534 8.74291992 30.93725586 C4.95692907 30.92797822 1.17240375 30.88700873 -2.61328125 30.83984375 C-4.3791584 30.84574272 -4.3791584 30.84574272 -6.18070984 30.85176086 C-14.38225506 30.70540452 -14.38225506 30.70540452 -18.26293945 27.74487305 C-18.87999756 26.88289307 -19.49705566 26.02091309 -20.1328125 25.1328125 C-22.67381811 22.52665289 -25.16949903 20.10330377 -28.0078125 17.8203125 C-31.22632888 15.19904658 -33.83236964 12.15580978 -36.51953125 9.00390625 C-38.29599632 6.94355087 -40.17055835 5.01657648 -42.1328125 3.1328125 C-41.8028125 2.4728125 -41.4728125 1.8128125 -41.1328125 1.1328125 C-27.41173445 0.19260871 -13.75016329 -0.01525236 0 0 Z " fill="#010101" transform="translate(215.1328125,2.8671875)"/>
<path d="M0 0 C1.44767588 0.00138269 1.44767588 0.00138269 2.92459774 0.00279331 C4.02822659 0.00141865 5.13185543 0.00004398 6.26892757 -0.00137234 C7.49027905 0.00222294 8.71163052 0.00581821 9.96999264 0.00952244 C11.88678829 0.0093034 11.88678829 0.0093034 13.84230709 0.00907993 C17.35661253 0.00879197 20.87088412 0.01468843 24.38518167 0.02165389 C28.05407018 0.02788771 31.72295939 0.02849125 35.39185238 0.0296793 C42.34398097 0.03279253 49.29609392 0.04100581 56.24821562 0.05102879 C64.16102442 0.06219017 72.07383396 0.06770044 79.98664868 0.07272422 C96.26813383 0.08318843 112.54960323 0.10078772 128.83107662 0.12304783 C130.6720361 3.80496678 130.19781314 8.09526918 129.83107662 12.12304783 C128.45607662 15.24804783 128.45607662 15.24804783 126.83107662 17.12304783 C126.17107662 17.12304783 125.51107662 17.12304783 124.83107662 17.12304783 C124.17107662 18.44304783 123.51107662 19.76304783 122.83107662 21.12304783 C122.17107662 21.12304783 121.51107662 21.12304783 120.83107662 21.12304783 C120.58357662 21.74179783 120.33607662 22.36054783 120.08107662 22.99804783 C118.62479023 25.4737347 117.45295156 26.07429785 114.83107662 27.12304783 C114.83107662 27.78304783 114.83107662 28.44304783 114.83107662 29.12304783 C102.62107662 29.12304783 90.41107662 29.12304783 77.83107662 29.12304783 C77.83107662 63.11304783 77.83107662 97.10304783 77.83107662 132.12304783 C68.26107662 132.12304783 58.69107662 132.12304783 48.83107662 132.12304783 C48.83107662 98.13304783 48.83107662 64.14304783 48.83107662 29.12304783 C32.00107662 29.12304783 15.17107662 29.12304783 -2.16892338 29.12304783 C-3.97171529 27.32025591 -3.29928943 24.58257082 -3.30173588 22.15429783 C-3.30302494 20.94386814 -3.304314 19.73343845 -3.30564213 18.48632908 C-3.30177494 17.21144627 -3.29790775 15.93656345 -3.29392338 14.62304783 C-3.29779057 13.34816502 -3.30165775 12.0732822 -3.30564213 10.75976658 C-3.30435307 9.54933689 -3.303064 8.3389072 -3.30173588 7.09179783 C-3.30060795 5.97224705 -3.29948002 4.85269627 -3.29831791 3.6992197 C-3.12141006 0.17708451 -3.12141006 0.17708451 0 0 Z " fill="#000000" transform="translate(315.1689233779907,3.8769521713256836)"/>
<path d="M0 0 C1.09092453 -0.00549866 2.18184906 -0.01099731 3.30583191 -0.0166626 C4.49769608 -0.00228149 5.68956024 0.01209961 6.9175415 0.0269165 C8.17633621 0.0263324 9.43513092 0.02574829 10.73207092 0.02514648 C14.18029994 0.02399907 17.62797211 0.04751194 21.07607174 0.07544231 C24.6808534 0.10045185 28.2856479 0.1027976 31.89050293 0.10754395 C38.71514971 0.1199751 45.5395401 0.15279839 52.36407399 0.1929419 C60.1342366 0.23765543 67.90441146 0.25964556 75.6746707 0.27972364 C91.65714329 0.32153108 107.63936011 0.39188559 123.62164307 0.48101807 C121.39389569 10.80932439 110.35782665 20.97456635 102.03063965 27.01098633 C89.03639658 35.15200973 69.69191173 32.01361332 55.11157227 31.19763184 C49.97109223 30.93809469 44.82738324 30.82693426 39.68218994 30.70172119 C29.65372661 30.43654656 19.63930239 30.01220903 9.62164307 29.48101807 C9.63052551 30.43679749 9.63940796 31.3925769 9.64855957 32.37731934 C9.72962751 41.38228665 9.78959976 50.38717999 9.82889175 59.39242935 C9.84977133 64.02221122 9.87809555 68.65169864 9.92340088 73.28131104 C9.9668457 77.74873501 9.99077739 82.21587566 10.00115204 86.68349457 C10.00854589 88.38837902 10.02298439 90.09324787 10.04456329 91.79801178 C10.07358001 94.18520171 10.07759993 96.57121937 10.07574463 98.95855713 C10.09731628 100.01699577 10.09731628 100.01699577 10.11932373 101.09681702 C10.09060246 104.50967691 9.82851792 106.2125418 7.71826172 108.95117188 C5.62164307 110.48101807 5.62164307 110.48101807 3.62164307 110.48101807 C3.29164307 111.47101807 2.96164307 112.46101807 2.62164307 113.48101807 C1.14968199 114.72400742 -0.32610157 115.96331429 -1.83538818 117.16070557 C-3.57234706 118.56364542 -3.57234706 118.56364542 -5.37835693 120.98101807 C-7.78051082 123.98371043 -10.38743563 126.06282637 -13.37835693 128.48101807 C-13.91460693 129.09976807 -14.45085693 129.71851807 -15.00335693 130.35601807 C-15.68398193 130.91289307 -15.68398193 130.91289307 -16.37835693 131.48101807 C-18.46429443 131.05133057 -18.46429443 131.05133057 -20.37835693 130.48101807 C-20.49524536 115.72099069 -20.58337188 100.96102471 -20.63741779 86.20062828 C-20.66318124 79.34683113 -20.69829543 72.49332184 -20.7555542 65.63970947 C-20.81078096 59.02615634 -20.83977562 52.41282374 -20.85274315 45.7990303 C-20.86198489 43.27521684 -20.88003177 40.75141983 -20.90700722 38.22773361 C-20.94328035 34.69380006 -20.94830272 31.16110379 -20.94598389 27.62701416 C-20.96396027 26.58260162 -20.98193665 25.53818909 -21.00045776 24.46212769 C-20.94418087 16.54081427 -20.94418087 16.54081427 -17.948349 12.90158081 C-16.67620293 11.70340225 -16.67620293 11.70340225 -15.37835693 10.48101807 C-14.82148193 9.86226807 -14.26460693 9.24351807 -13.69085693 8.60601807 C-12.37835693 7.48101807 -12.37835693 7.48101807 -10.37835693 7.48101807 C-10.04835693 6.49101807 -9.71835693 5.50101807 -9.37835693 4.48101807 C-6.44885478 0.81999647 -4.65293269 -0.0181048 0 0 Z " fill="#000000" transform="translate(948.3783569335938,3.51898193359375)"/>
<path d="M0 0 C0.99 0.33 1.98 0.66 3 1 C3.0700808 15.14271531 3.12278414 29.28540369 3.15543652 43.42825699 C3.17110635 49.99503849 3.19236894 56.56170351 3.22631836 63.12841797 C3.2588644 69.46317442 3.27684308 75.79781869 3.28463173 82.13265228 C3.29018376 84.55202755 3.30102522 86.97139654 3.31719017 89.39072418 C3.33890081 92.77396515 3.34196954 96.15673988 3.34057617 99.54003906 C3.351362 100.54488846 3.36214783 101.54973785 3.3732605 102.58503723 C3.36913651 103.50767868 3.36501251 104.43032013 3.36076355 105.38092041 C3.36352893 106.18103672 3.36629431 106.98115303 3.36914349 107.80551529 C2.90460766 110.56708849 1.89982487 111.97111924 0 114 C-0.66 114 -1.32 114 -2 114 C-2.99 115.98 -2.99 115.98 -4 118 C-4.66 118 -5.32 118 -6 118 C-6.495 119.485 -6.495 119.485 -7 121 C-7.66 121 -8.32 121 -9 121 C-9.28875 121.639375 -9.5775 122.27875 -9.875 122.9375 C-11 125 -11 125 -13 126 C-14.59654031 126.09265761 -16.19694716 126.12192385 -17.7961731 126.12025452 C-18.80862091 126.12162918 -19.82106873 126.12300385 -20.86419678 126.12442017 C-21.97909485 126.12082489 -23.09399292 126.11722961 -24.24267578 126.11352539 C-25.4133963 126.11367142 -26.58411682 126.11381744 -27.79031372 126.1139679 C-31.0049861 126.1133896 -34.21961523 126.10836593 -37.43427896 126.10139394 C-40.79219278 126.09515295 -44.1501074 126.09455601 -47.50802612 126.09336853 C-53.86867548 126.09025742 -60.22930769 126.08204698 -66.58994949 126.07201904 C-73.83048451 126.06085109 -81.07102034 126.05534573 -88.31156182 126.05032361 C-103.20771744 126.0398642 -118.10385701 126.022269 -133 126 C-133.33 124.68 -133.66 123.36 -134 122 C-132.989375 121.175 -131.97875 120.35 -130.9375 119.5 C-128.31310352 117.25276229 -125.98918379 114.94204997 -123.75 112.3125 C-123.19174026 111.67947464 -122.63348053 111.04644928 -122.05830383 110.39424133 C-120.61365174 108.71380635 -119.23035931 106.97959665 -117.8959198 105.21037292 C-113.35055246 99.78889421 -109.82305662 96.47750865 -102.58737659 95.83185291 C-98.37827149 95.68825676 -94.19611797 95.78542869 -89.98828125 95.92578125 C-88.16559069 95.9463349 -86.34283874 95.96197536 -84.52006531 95.97294617 C-79.75582787 96.01465894 -74.99536535 96.12243952 -70.23260498 96.24468994 C-65.35936544 96.35785528 -60.48550694 96.40759025 -55.61132812 96.46289062 C-46.07257314 96.58035104 -36.53660217 96.76771995 -27 97 C-27.00523682 96.13197754 -27.01047363 95.26395508 -27.01586914 94.36962891 C-27.03289862 91.15299727 -27.04544408 87.93638859 -27.05493164 84.71972656 C-27.0599643 83.32681523 -27.06679098 81.9339092 -27.07543945 80.54101562 C-27.08755152 78.54038754 -27.09270412 76.53972112 -27.09765625 74.5390625 C-27.10289307 73.33459473 -27.10812988 72.13012695 -27.11352539 70.88916016 C-27 68 -27 68 -26 66 C-25.34 66 -24.68 66 -24 66 C-24 60.39 -24 54.78 -24 49 C-25.485 48.505 -25.485 48.505 -27 48 C-27.08115993 44.93696422 -27.14057409 41.87609185 -27.1875 38.8125 C-27.21263672 37.94818359 -27.23777344 37.08386719 -27.26367188 36.19335938 C-27.33868132 29.66753804 -26.29903754 26.46440691 -21.7734375 21.61328125 C-20.98195313 20.85402344 -20.19046875 20.09476563 -19.375 19.3125 C-16.28109484 16.4554665 -16.28109484 16.4554665 -14 13 C-13.34 13 -12.68 13 -12 13 C-12 12.34 -12 11.68 -12 11 C-11.34 11 -10.68 11 -10 11 C-10 10.34 -10 9.68 -10 9 C-9.34 9 -8.68 9 -8 9 C-8 8.34 -8 7.68 -8 7 C-5.47107279 4.26602464 -3.10404867 2.06936578 0 0 Z " fill="#020202" transform="translate(1075,10)"/>
<path d="M0 0 C3.36181903 1.48225657 5.7860133 3.41196412 8.5 5.875 C9.62921875 6.89207031 9.62921875 6.89207031 10.78125 7.9296875 C15.25396825 12.1031746 15.25396825 12.1031746 17 14 C17 14.66 17 15.32 17 16 C17.66 16 18.32 16 19 16 C20.3671875 17.390625 20.3671875 17.390625 21.875 19.25 C23.54068574 21.29068305 24.94097019 22.95657559 27.07267761 24.5247345 C30.01928082 28.30906519 29.53570021 31.85801051 29.4699707 36.52612305 C29.4721611 37.49070435 29.4743515 38.45528564 29.47660828 39.44909668 C29.47891968 42.63698622 29.45266573 45.82395238 29.42578125 49.01171875 C29.4208589 51.22320767 29.41755901 53.43470075 29.41581726 55.64619446 C29.40817581 60.27899492 29.38760686 64.9114866 29.35668945 69.54418945 C29.31704523 75.49652952 29.29907017 81.44866885 29.28938007 87.40112591 C29.27943006 93.06301764 29.25952286 98.72485979 29.23828125 104.38671875 C29.2348855 105.47420599 29.23148975 106.56169323 29.2279911 107.68213463 C29.21647259 110.74217077 29.19796229 113.80207632 29.17700195 116.86206055 C29.17431305 117.77790421 29.17162415 118.69374786 29.16885376 119.63734436 C29.11490151 125.88509849 29.11490151 125.88509849 28 127 C23.52668042 127.25380234 19.0421654 127.18522721 14.5625 127.1875 C12.66274414 127.20586914 12.66274414 127.20586914 10.72460938 127.22460938 C9.51740234 127.22654297 8.31019531 127.22847656 7.06640625 127.23046875 C5.3949353 127.23663208 5.3949353 127.23663208 3.68969727 127.24291992 C1 127 1 127 -1 125 C-1.24888897 122.8201437 -1.24888897 122.8201437 -1.24723816 120.05870056 C-1.25143265 119.01404129 -1.25562714 117.96938202 -1.25994873 116.89306641 C-1.25432922 115.74233643 -1.24870972 114.59160645 -1.24291992 113.40600586 C-1.24481827 112.19787735 -1.24671661 110.98974884 -1.24867249 109.74501038 C-1.25174839 106.42689331 -1.24585748 103.10902401 -1.23571944 99.79093623 C-1.22695126 96.32405033 -1.22869614 92.85716878 -1.2290802 89.39027405 C-1.2281431 83.56867217 -1.21945237 77.74712235 -1.20581055 71.92553711 C-1.19007717 65.18630823 -1.18481267 58.44713637 -1.1855461 51.70789045 C-1.18615556 45.2344419 -1.18105811 38.761012 -1.17275429 32.28756905 C-1.16921564 29.52800921 -1.16739021 26.76845597 -1.16686058 24.00889397 C-1.16567341 20.16077518 -1.15597699 16.31270425 -1.14526367 12.46459961 C-1.14571686 11.3118454 -1.14617004 10.15909119 -1.14663696 8.97140503 C-1.14237198 7.92956558 -1.13810699 6.88772614 -1.13371277 5.8143158 C-1.13203692 4.90341659 -1.13036108 3.99251738 -1.12863445 3.05401516 C-1 1 -1 1 0 0 Z " fill="#010101" transform="translate(782,9)"/>
<path d="M0 0 C11.540153 5.35196281 23.54219357 15.32761929 29 27 C33.48725436 42.15778076 31.47821256 59.50463791 30.71661377 75.07281494 C30.45761281 80.93751988 30.34602143 86.80501468 30.22070312 92.67382812 C29.95513115 104.12309952 29.53043587 115.56014606 29 127 C25.03069011 127.02465881 21.06140966 127.04284023 17.09204102 127.05493164 C15.74079614 127.05997057 14.38955674 127.06680177 13.03833008 127.07543945 C11.09979566 127.08752419 9.161222 127.09269828 7.22265625 127.09765625 C5.47094116 127.10551147 5.47094116 127.10551147 3.68383789 127.11352539 C1 127 1 127 0 126 C-0.11036141 124.38315955 -0.15128742 122.76153621 -0.16494751 121.14099121 C-0.17618149 120.08929245 -0.18741547 119.03759369 -0.19898987 117.95402527 C-0.20631638 116.79034927 -0.21364288 115.62667328 -0.22119141 114.42773438 C-0.2326973 113.20999832 -0.24420319 111.99226227 -0.25605774 110.73762512 C-0.28654698 107.38855928 -0.31253971 104.03951791 -0.3362546 100.69040108 C-0.3617911 97.19278682 -0.39213805 93.69521375 -0.42172241 90.19763184 C-0.47059959 84.32302197 -0.51527216 78.4483908 -0.55761719 72.57373047 C-0.60670491 65.77256096 -0.66300294 58.97147923 -0.72303832 52.17039824 C-0.77430385 46.34113836 -0.8216589 40.51185631 -0.86572587 34.68253756 C-0.89208453 31.19655482 -0.91982876 27.7105976 -0.9510994 24.22465515 C-0.98568607 20.34055934 -1.01207637 16.45643212 -1.03759766 12.57226562 C-1.04897263 11.40858963 -1.0603476 10.24491364 -1.07206726 9.04597473 C-1.07766159 7.99427597 -1.08325592 6.94257721 -1.08901978 5.85900879 C-1.09601709 4.93943642 -1.10301441 4.01986404 -1.11022377 3.07242584 C-1 1 -1 1 0 0 Z " fill="#000000" transform="translate(166,9)"/>
<path d="M0 0 C4.65759871 0.25998534 9.31880395 0.37078455 13.98162842 0.49591064 C23.06308003 0.76075787 32.1289528 1.18478953 41.19842529 1.71661377 C42.54890568 4.41757454 42.32806106 6.54387894 42.33123779 9.56427002 C42.33252686 10.72635986 42.33381592 11.88844971 42.33514404 13.08575439 C42.33127686 14.30456299 42.32740967 15.52337158 42.32342529 16.77911377 C42.32729248 18.00178955 42.33115967 19.22446533 42.33514404 20.48419189 C42.33385498 21.64499268 42.33256592 22.80579346 42.33123779 24.00177002 C42.33010986 25.07306152 42.32898193 26.14435303 42.32781982 27.24810791 C42.19842529 29.71661377 42.19842529 29.71661377 41.19842529 30.71661377 C39.81966504 30.81200567 38.43605613 30.83849999 37.05400085 30.83686829 C36.16072586 30.83824295 35.26745087 30.83961761 34.34710693 30.84103394 C32.86573242 30.83564102 32.86573242 30.83564102 31.35443115 30.83013916 C29.80339439 30.8303582 29.80339439 30.8303582 28.22102356 30.83058167 C24.78508443 30.82988204 21.34919876 30.82208735 17.91326904 30.81427002 C15.53815236 30.81240601 13.16303529 30.81098203 10.78791809 30.8099823 C4.52266385 30.80615574 -1.74256738 30.79632427 -8.0078125 30.78527832 C-14.39544361 30.77506717 -20.78307842 30.77048532 -27.17071533 30.76544189 C-39.71434497 30.75470213 -52.25795862 30.73781504 -64.80157471 30.71661377 C-62.61487978 20.47568977 -51.22581297 10.26569772 -43.03869629 4.18664551 C-31.03789696 -3.58704378 -13.56787162 -0.8399519 0 0 Z " fill="#000000" transform="translate(564.8015747070313,105.28338623046875)"/>
<path d="M0 0 C13.80340887 -0.02333058 27.6068147 -0.04091354 41.41023922 -0.05181217 C47.81899128 -0.05704166 54.22773015 -0.0641405 60.63647461 -0.07543945 C66.81559441 -0.08626599 72.99470148 -0.09227634 79.17383003 -0.09487724 C81.5370561 -0.09673192 83.90028144 -0.10035332 86.26350212 -0.10573006 C89.56101896 -0.11293738 92.85848247 -0.11399107 96.15600586 -0.11352539 C97.14358887 -0.11712067 98.13117188 -0.12071594 99.14868164 -0.12442017 C100.04195663 -0.1230455 100.93523163 -0.12167084 101.85557556 -0.12025452 C102.63633422 -0.12117631 103.41709288 -0.1220981 104.22151089 -0.12304783 C106 0 106 0 107 1 C107.15227908 2.74535255 107.22189694 4.49824241 107.25 6.25 C107.27578125 7.20390625 107.3015625 8.1578125 107.328125 9.140625 C106.93777151 12.54227682 105.84506352 14.12327691 104 17 C103.12770752 18.51279541 103.12770752 18.51279541 102.23779297 20.05615234 C98.42240193 25.13364802 95.09322851 28.30281162 88.7520752 29.73205566 C80.40412543 30.78158632 72.06463875 30.80485741 63.66552734 30.67431641 C59.88681531 30.61718026 56.1204886 30.67838869 52.34285355 30.76988602 C26.8697396 31.29952902 26.8697396 31.29952902 18.83346558 23.92367554 C16.27447972 21.10004118 14.13110895 18.15913165 12 15 C11.34 14.67 10.68 14.34 10 14 C10 13.34 10 12.68 10 12 C9.34 12 8.68 12 8 12 C8 11.34 8 10.68 8 10 C7.34 10 6.68 10 6 10 C6 9.34 6 8.68 6 8 C5.34 8 4.68 8 4 8 C4 7.34 4 6.68 4 6 C3.34 6 2.68 6 2 6 C2 5.34 2 4.68 2 4 C1.34 4 0.68 4 0 4 C0 2.68 0 1.36 0 0 Z " fill="#010101" transform="translate(662,4)"/>
</svg>
