<?xml version="1.0" encoding="UTF-8"?>
<svg version="1.1" xmlns="http://www.w3.org/2000/svg" width="280" height="280">
<path d="M0 0 C0.73856232 -0.00570007 1.47712463 -0.01140015 2.23806763 -0.01727295 C3.79981051 -0.02671145 5.3615732 -0.03325237 6.92333984 -0.03710938 C9.30471776 -0.04681146 11.68523094 -0.07784278 14.06640625 -0.109375 C15.58593239 -0.11590594 17.10546469 -0.12115606 18.625 -0.125 C19.68773636 -0.1435202 19.68773636 -0.1435202 20.77194214 -0.16241455 C26.37889735 -0.13732374 29.52596681 1.28377931 33.4453125 5.203125 C34.08087958 6.97693494 34.65518529 8.77296301 35.1953125 10.578125 C40.67099207 27.49189078 50.8740859 43.08723586 66.7421875 51.89453125 C71.85164056 54.36803815 77.06866801 56.39038862 82.4453125 58.203125 C83.16976562 58.45191406 83.89421875 58.70070312 84.640625 58.95703125 C100.90684171 63.51795084 119.08089618 59.70464305 133.60546875 51.88671875 C151.08310574 41.52514854 161.21033451 26.46881381 167.265625 7.31640625 C169.0201592 4.17334996 171.39908445 2.04575528 174.4453125 0.203125 C177.32915101 -0.28801716 179.60659905 -0.50151819 182.4765625 -0.4609375 C183.60777527 -0.46811295 183.60777527 -0.46811295 184.76184082 -0.47543335 C186.34857278 -0.47881994 187.9353757 -0.4697044 189.52197266 -0.44873047 C191.93942028 -0.4219403 194.3522266 -0.44851333 196.76953125 -0.48046875 C198.3177185 -0.47716442 199.86590287 -0.4707577 201.4140625 -0.4609375 C202.48775085 -0.47611923 202.48775085 -0.47611923 203.58312988 -0.49160767 C209.26211682 -0.36015741 211.65019746 1.24954624 215.4453125 5.203125 C219.08601509 20.52930848 210.14685646 39.17115121 202.7578125 52.203125 C184.74119368 80.7763564 158.28619571 100.69181336 125.2890625 108.234375 C119.01239285 109.56043197 112.86593625 110.09982289 106.4453125 110.203125 C105.445 110.23019531 104.4446875 110.25726563 103.4140625 110.28515625 C100.41893858 110.32850673 97.43955038 110.28405035 94.4453125 110.203125 C92.86556641 110.17798828 92.86556641 110.17798828 91.25390625 110.15234375 C61.31854543 108.93827929 34.25833669 94.04485662 13.75 72.796875 C9.63955645 68.17088429 5.99266017 63.26887008 2.4453125 58.203125 C1.82785156 57.34203125 1.21039063 56.4809375 0.57421875 55.59375 C-8.68941801 41.97682291 -17.50506011 21.92964689 -14.5546875 5.203125 C-10.44304343 0.03519869 -6.21084149 0.03704401 0 0 Z " fill="#000000" transform="translate(39.5546875,147.796875)"/>
<path d="M0 0 C3.01292082 -0.0397483 6.01141551 0.00536112 9.0234375 0.0859375 C10.06628906 0.10269531 11.10914063 0.11945312 12.18359375 0.13671875 C28.46160616 0.80307014 43.72401286 5.46508807 58.0234375 13.0859375 C59.04566406 13.60800781 60.06789062 14.13007812 61.12109375 14.66796875 C69.73733923 19.33368271 76.83378722 25.51119152 84.0234375 32.0859375 C84.8484375 32.82714844 85.6734375 33.56835938 86.5234375 34.33203125 C100.52490875 47.55842105 110.28162902 64.80281049 116.0234375 83.0859375 C116.24773437 83.73175781 116.47203125 84.37757812 116.703125 85.04296875 C118.63234413 91.31953782 119.3101925 98.67514028 118.0234375 105.0859375 C114.24996489 109.03668248 111.84266405 110.64784648 106.18690491 110.80632019 C105.47424973 110.79933609 104.76159454 110.79235199 104.02734375 110.78515625 C103.27557358 110.79231155 102.52380341 110.79946686 101.74925232 110.80683899 C100.16674985 110.81458775 98.58413976 110.80966367 97.00170898 110.79272461 C94.59476749 110.773508 92.19361712 110.81289791 89.78710938 110.85742188 C76.98534888 110.93159729 76.98534888 110.93159729 72.578125 107.44921875 C69.94684697 104.4804058 68.66209066 101.40829063 67.5859375 97.5859375 C61.42308718 78.51332555 49.87800416 65.70869873 32.2109375 56.3359375 C16.42755418 48.57183988 -0.92881459 47.80903648 -17.640625 52.88671875 C-22.34626055 54.5783231 -26.67026327 56.54843015 -30.9765625 59.0859375 C-32.07677734 59.71242188 -32.07677734 59.71242188 -33.19921875 60.3515625 C-48.94172224 70.01362814 -56.89867009 84.12702421 -62.9765625 101.0859375 C-65.20208724 106.95172576 -65.20208724 106.95172576 -67.9765625 109.0859375 C-73.71923912 111.06801483 -80.45738947 110.38985071 -86.47509766 110.43603516 C-88.05597651 110.45260077 -89.63678028 110.47989942 -91.21728516 110.51806641 C-93.50983056 110.57304925 -95.80063272 110.59473561 -98.09375 110.609375 C-98.79394257 110.63204437 -99.49413513 110.65471375 -100.21554565 110.67807007 C-104.04416726 110.66171905 -106.4688797 110.07109262 -109.42382812 107.73071289 C-111.9765625 105.0859375 -111.9765625 105.0859375 -112.703125 102.24609375 C-111.78304334 74.18360313 -96.10741717 49.80630843 -76.53125 30.69921875 C-55.18752737 10.99474755 -28.84146752 0.83269329 0 0 Z " fill="#000000" transform="translate(136.9765625,21.9140625)"/>
<path d="M0 0 C3.01292082 -0.0397483 6.01141551 0.00536112 9.0234375 0.0859375 C10.06628906 0.10269531 11.10914063 0.11945312 12.18359375 0.13671875 C28.46160616 0.80307014 43.72401286 5.46508807 58.0234375 13.0859375 C59.04566406 13.60800781 60.06789062 14.13007812 61.12109375 14.66796875 C69.73733923 19.33368271 76.83378722 25.51119152 84.0234375 32.0859375 C84.8484375 32.82714844 85.6734375 33.56835938 86.5234375 34.33203125 C100.52490875 47.55842105 110.28162902 64.80281049 116.0234375 83.0859375 C116.24773437 83.73175781 116.47203125 84.37757812 116.703125 85.04296875 C118.63234413 91.31953782 119.3101925 98.67514028 118.0234375 105.0859375 C114.24996489 109.03668248 111.84266405 110.64784648 106.18690491 110.80632019 C105.47424973 110.79933609 104.76159454 110.79235199 104.02734375 110.78515625 C103.27557358 110.79231155 102.52380341 110.79946686 101.74925232 110.80683899 C100.16674985 110.81458775 98.58413976 110.80966367 97.00170898 110.79272461 C94.59476749 110.773508 92.19361712 110.81289791 89.78710938 110.85742188 C76.98534888 110.93159729 76.98534888 110.93159729 72.578125 107.44921875 C69.94684697 104.4804058 68.66209066 101.40829063 67.5859375 97.5859375 C61.42308718 78.51332555 49.87800416 65.70869873 32.2109375 56.3359375 C16.42755418 48.57183988 -0.92881459 47.80903648 -17.640625 52.88671875 C-22.34626055 54.5783231 -26.67026327 56.54843015 -30.9765625 59.0859375 C-32.07677734 59.71242188 -32.07677734 59.71242188 -33.19921875 60.3515625 C-48.94172224 70.01362814 -56.89867009 84.12702421 -62.9765625 101.0859375 C-65.20208724 106.95172576 -65.20208724 106.95172576 -67.9765625 109.0859375 C-73.71923912 111.06801483 -80.45738947 110.38985071 -86.47509766 110.43603516 C-88.05597651 110.45260077 -89.63678028 110.47989942 -91.21728516 110.51806641 C-93.50983056 110.57304925 -95.80063272 110.59473561 -98.09375 110.609375 C-98.79394257 110.63204437 -99.49413513 110.65471375 -100.21554565 110.67807007 C-104.04416726 110.66171905 -106.4688797 110.07109262 -109.42382812 107.73071289 C-111.9765625 105.0859375 -111.9765625 105.0859375 -112.703125 102.24609375 C-111.78304334 74.18360313 -96.10741717 49.80630843 -76.53125 30.69921875 C-55.18752737 10.99474755 -28.84146752 0.83269329 0 0 Z M-67.9765625 35.0859375 C-68.82734375 35.74851562 -69.678125 36.41109375 -70.5546875 37.09375 C-74.15557705 40.05577205 -77.00540113 43.50776466 -79.9765625 47.0859375 C-80.54503906 47.7665625 -81.11351563 48.4471875 -81.69921875 49.1484375 C-92.90097642 63.02943105 -104.57829783 82.5658613 -103.9765625 101.0859375 C-101.30051605 102.42396073 -99.22763062 102.21554474 -96.234375 102.21875 C-94.51154297 102.22068359 -94.51154297 102.22068359 -92.75390625 102.22265625 C-90.94599609 102.21685547 -90.94599609 102.21685547 -89.1015625 102.2109375 C-87.30525391 102.21673828 -87.30525391 102.21673828 -85.47265625 102.22265625 C-84.32152344 102.22136719 -83.17039062 102.22007813 -81.984375 102.21875 C-80.92879395 102.21762207 -79.87321289 102.21649414 -78.78564453 102.21533203 C-76.31442395 102.10150039 -74.28843769 101.955061 -71.9765625 101.0859375 C-70.81594486 98.71924369 -70.81594486 98.71924369 -70.1015625 95.7734375 C-64.20156494 76.47267029 -52.19554858 60.78806761 -34.5390625 50.8984375 C-15.29825303 40.83525263 5.26469365 38.68878715 26.2734375 44.3359375 C39.53825243 48.80198072 51.75307031 56.56854122 61.0234375 67.0859375 C61.51070312 67.63121094 61.99796875 68.17648438 62.5 68.73828125 C70.03246887 77.94239428 74.97411104 90.00357036 79.0234375 101.0859375 C85.14619924 102.1649137 91.12839389 102.23539269 97.3359375 102.2109375 C98.33689453 102.21480469 99.33785156 102.21867187 100.36914062 102.22265625 C101.32369141 102.22136719 102.27824219 102.22007813 103.26171875 102.21875 C104.12837158 102.21762207 104.99502441 102.21649414 105.88793945 102.21533203 C108.07650815 102.22286001 108.07650815 102.22286001 110.0234375 101.0859375 C108.43676081 75.37083259 93.31960354 51.83730477 74.53149414 34.93774414 C33.03009571 -1.41619402 -26.5644305 0.81139139 -67.9765625 35.0859375 Z " fill="#FFFFFF" transform="translate(136.9765625,21.9140625)"/>
<path d="M0 0 C0.73856232 -0.00570007 1.47712463 -0.01140015 2.23806763 -0.01727295 C3.79981051 -0.02671145 5.3615732 -0.03325237 6.92333984 -0.03710938 C9.30471776 -0.04681146 11.68523094 -0.07784278 14.06640625 -0.109375 C15.58593239 -0.11590594 17.10546469 -0.12115606 18.625 -0.125 C19.68773636 -0.1435202 19.68773636 -0.1435202 20.77194214 -0.16241455 C26.37889735 -0.13732374 29.52596681 1.28377931 33.4453125 5.203125 C34.08087958 6.97693494 34.65518529 8.77296301 35.1953125 10.578125 C40.67099207 27.49189078 50.8740859 43.08723586 66.7421875 51.89453125 C71.85164056 54.36803815 77.06866801 56.39038862 82.4453125 58.203125 C83.16976562 58.45191406 83.89421875 58.70070312 84.640625 58.95703125 C100.90684171 63.51795084 119.08089618 59.70464305 133.60546875 51.88671875 C151.08310574 41.52514854 161.21033451 26.46881381 167.265625 7.31640625 C169.0201592 4.17334996 171.39908445 2.04575528 174.4453125 0.203125 C177.32915101 -0.28801716 179.60659905 -0.50151819 182.4765625 -0.4609375 C183.60777527 -0.46811295 183.60777527 -0.46811295 184.76184082 -0.47543335 C186.34857278 -0.47881994 187.9353757 -0.4697044 189.52197266 -0.44873047 C191.93942028 -0.4219403 194.3522266 -0.44851333 196.76953125 -0.48046875 C198.3177185 -0.47716442 199.86590287 -0.4707577 201.4140625 -0.4609375 C202.48775085 -0.47611923 202.48775085 -0.47611923 203.58312988 -0.49160767 C209.26211682 -0.36015741 211.65019746 1.24954624 215.4453125 5.203125 C219.08601509 20.52930848 210.14685646 39.17115121 202.7578125 52.203125 C184.74119368 80.7763564 158.28619571 100.69181336 125.2890625 108.234375 C119.01239285 109.56043197 112.86593625 110.09982289 106.4453125 110.203125 C105.445 110.23019531 104.4446875 110.25726563 103.4140625 110.28515625 C100.41893858 110.32850673 97.43955038 110.28405035 94.4453125 110.203125 C92.86556641 110.17798828 92.86556641 110.17798828 91.25390625 110.15234375 C61.31854543 108.93827929 34.25833669 94.04485662 13.75 72.796875 C9.63955645 68.17088429 5.99266017 63.26887008 2.4453125 58.203125 C1.82785156 57.34203125 1.21039063 56.4809375 0.57421875 55.59375 C-8.68941801 41.97682291 -17.50506011 21.92964689 -14.5546875 5.203125 C-10.44304343 0.03519869 -6.21084149 0.03704401 0 0 Z M-6.5546875 9.203125 C-5.18708254 29.37529813 4.92359891 47.76581633 17.4453125 63.203125 C18.1465625 64.110625 18.8478125 65.018125 19.5703125 65.953125 C36.03046431 85.70530717 63.44248567 99.21792421 88.96484375 101.703125 C111.11417549 103.4177754 131.82146492 99.66161487 151.4453125 89.203125 C152.46753906 88.68105469 153.48976562 88.15898437 154.54296875 87.62109375 C180.33324956 73.65560572 197.73230072 48.6028707 206.125 20.96484375 C207.22271825 16.97245752 207.65193011 13.33547721 207.4453125 9.203125 C201.56961038 7.93898943 195.73720058 8.01935512 189.7578125 8.015625 C188.71302734 8.00337891 187.66824219 7.99113281 186.59179688 7.97851562 C185.59083984 7.97658203 184.58988281 7.97464844 183.55859375 7.97265625 C182.19408081 7.96649292 182.19408081 7.96649292 180.80200195 7.96020508 C178.17610004 8.04570956 178.17610004 8.04570956 175.4453125 10.203125 C174.26135898 13.0593339 174.26135898 13.0593339 173.2578125 16.453125 C166.30422672 37.10519451 152.8468918 51.92382672 133.6328125 61.953125 C116.03111003 70.68013959 94.63791232 71.27381442 76.0078125 65.390625 C67.24609634 62.14243748 59.72182773 58.05383657 52.4453125 52.203125 C51.5996875 51.584375 50.7540625 50.965625 49.8828125 50.328125 C46.35368741 47.25145185 43.39601441 43.83134859 40.4453125 40.203125 C39.86523438 39.49542969 39.28515625 38.78773438 38.6875 38.05859375 C32.37755849 29.75380526 27.82856818 19.37487151 25.4453125 9.203125 C19.34237596 8.12914455 13.38265683 8.05363683 7.1953125 8.078125 C6.20273437 8.07425781 5.21015625 8.07039062 4.1875 8.06640625 C3.23617187 8.06769531 2.28484375 8.06898438 1.3046875 8.0703125 C0.01256348 8.07200439 0.01256348 8.07200439 -1.30566406 8.07373047 C-3.72467376 8.11466787 -3.72467376 8.11466787 -6.5546875 9.203125 Z " fill="#FFFFFF" transform="translate(39.5546875,147.796875)"/>
<path d="M0 0 C0.89420654 0.00572021 1.78841309 0.01144043 2.7097168 0.01733398 C9.29463768 0.19647858 14.12681724 1.02671791 19.1875 5.5 C19.826875 6.03109375 20.46625 6.5621875 21.125 7.109375 C26.64535973 12.12370175 30.2639035 17.80340622 30.71875 25.375 C30.72923057 27.08333294 30.71855605 28.79191721 30.6875 30.5 C30.70296875 31.35078125 30.7184375 32.2015625 30.734375 33.078125 C30.69032021 40.25905529 28.71621762 45.24879164 24.328125 50.890625 C23.70421875 51.50421875 23.0803125 52.1178125 22.4375 52.75 C21.82390625 53.37390625 21.2103125 53.9978125 20.578125 54.640625 C14.09542188 59.68272743 8.41048183 61.20540885 0.25 61.0625 C-1.0788623 61.04497681 -1.0788623 61.04497681 -2.43457031 61.02709961 C-11.9407026 60.70442568 -16.72162652 57.92235143 -23.1875 51.0625 C-30.75811359 42.35473664 -30.86340163 33.85608016 -30.10986328 22.80908203 C-29.10323397 14.99241531 -23.69427383 9.85392073 -17.9375 4.97265625 C-11.9008177 0.78914664 -7.18845626 -0.0527238 0 0 Z " fill="#000000" transform="translate(139.8125,109.5)"/>
<path d="M0 0 C0.89420654 0.00572021 1.78841309 0.01144043 2.7097168 0.01733398 C9.29463768 0.19647858 14.12681724 1.02671791 19.1875 5.5 C19.826875 6.03109375 20.46625 6.5621875 21.125 7.109375 C26.64535973 12.12370175 30.2639035 17.80340622 30.71875 25.375 C30.72923057 27.08333294 30.71855605 28.79191721 30.6875 30.5 C30.70296875 31.35078125 30.7184375 32.2015625 30.734375 33.078125 C30.69032021 40.25905529 28.71621762 45.24879164 24.328125 50.890625 C23.70421875 51.50421875 23.0803125 52.1178125 22.4375 52.75 C21.82390625 53.37390625 21.2103125 53.9978125 20.578125 54.640625 C14.09542188 59.68272743 8.41048183 61.20540885 0.25 61.0625 C-1.0788623 61.04497681 -1.0788623 61.04497681 -2.43457031 61.02709961 C-11.9407026 60.70442568 -16.72162652 57.92235143 -23.1875 51.0625 C-30.75811359 42.35473664 -30.86340163 33.85608016 -30.10986328 22.80908203 C-29.10323397 14.99241531 -23.69427383 9.85392073 -17.9375 4.97265625 C-11.9008177 0.78914664 -7.18845626 -0.0527238 0 0 Z M-17.765625 16.703125 C-21.48775621 22.09499731 -22.75600444 27.00341981 -22.39453125 33.53515625 C-21.08416068 40.21013117 -17.56132753 45.51417099 -12.125 49.5625 C-6.10961383 53.08093342 -0.6453719 53.10775227 6.1875 52.5 C12.37196831 50.79747638 16.7212175 46.80981491 20.1875 41.5 C23.10116347 35.47310707 23.35442093 28.54444186 21.5 22.1171875 C18.81117427 16.22417778 14.81857005 13.31669122 9.5625 9.6875 C-0.90979769 6.00280266 -10.42286833 8.42049548 -17.765625 16.703125 Z " fill="#FFFFFF" transform="translate(139.8125,109.5)"/>
</svg>
