<?xml version="1.0" encoding="UTF-8"?>
<svg version="1.1" xmlns="http://www.w3.org/2000/svg" width="1402" height="384">
<path d="M0 0 C462.66 0 925.32 0 1402 0 C1402 126.72 1402 253.44 1402 384 C939.34 384 476.68 384 0 384 C0 257.28 0 130.56 0 0 Z " fill="#FFFFFF" transform="translate(0,0)"/>
<path d="M0 0 C1.92585938 0.43505859 1.92585938 0.43505859 3.890625 0.87890625 C24.50704249 5.9481694 44.63747149 15.40515223 61 29 C61.54962402 29.44569336 62.09924805 29.89138672 62.66552734 30.35058594 C76.30685968 41.42632916 87.31287818 53.50116537 96.86914062 68.2578125 C97.7950351 69.6842337 98.74567323 71.09456621 99.703125 72.5 C111.83694074 91.16740883 121.708574 118.71990105 121.125 141.1875 C121.10695313 142.10917969 121.08890625 143.03085938 121.0703125 143.98046875 C121.03550781 144.98013672 121.03550781 144.98013672 121 146 C120.1646875 145.41992188 120.1646875 145.41992188 119.3125 144.828125 C115.58844041 142.28670595 112.01541657 139.92729898 107.875 138.125 C97.99475793 133.33161524 91.24223635 120.73218927 87 111 C87 110.34 87 109.68 87 109 C84.6704053 108.49758678 84.6704053 108.49758678 82 109 C75.14504379 116.45980529 74.4046292 127.32470999 74.66796875 137 C75.90403737 154.82035331 83.64338697 171.73347228 93.86767578 186.1875 C95 188 95 188 95 190 C73.43301021 209.1196718 46.83299301 212.63013984 19 211 C-39.14812774 204.69690767 -96.70151946 166.31090164 -136.625 125.25 C-144.95446409 116.8477895 -155.25517961 107.87130549 -167.546875 106.8828125 C-172.21372157 107.10575103 -176.58787342 108.54028709 -181 110 C-174.44083494 80.51499133 -155.19407083 52.07223295 -132 33 C-131.0615625 32.21367188 -130.123125 31.42734375 -129.15625 30.6171875 C-110.59301992 15.66347438 -89.08092392 5.67432686 -66 0 C-65.33548828 -0.16516113 -64.67097656 -0.33032227 -63.98632812 -0.50048828 C-43.46168039 -5.34130154 -20.47382263 -4.78955891 0 0 Z " fill="#FFFFFF" transform="translate(200,18)"/>
<path d="M0 0 C5.93854451 2.71663804 10.57763685 5.78611009 15.4375 10.125 C16.09073242 10.69831055 16.74396484 11.27162109 17.41699219 11.86230469 C21.90909974 15.86444513 25.91538895 20.1289441 29.8515625 24.6796875 C33.81277713 28.95779931 38.42880029 32.40328085 43 36 C44.03140376 36.86259845 45.05995953 37.72861136 46.0859375 38.59765625 C65.2337563 54.64666665 86.7607901 67.73816987 109 79 C110.22759033 79.63107666 110.22759033 79.63107666 111.47998047 80.27490234 C146.99692018 98.41918626 190.56903024 111.42602139 230.02709961 99.16308594 C241.49686634 95.30184039 251.4946646 89.46847781 261 82 C261.65226562 81.52433594 262.30453125 81.04867187 262.9765625 80.55859375 C265.2641479 78.82935266 266.81261374 77.44988515 267.92578125 74.77734375 C268.03444376 70.71107825 265.8948759 68.37308196 263.5625 65.25 C252.54544936 49.58579952 243.67075544 30.60898908 246 11 C246.66 10.01 247.32 9.02 248 8 C248.54527344 8.845625 249.09054687 9.69125 249.65234375 10.5625 C255.53642555 19.49607344 261.32711947 27.00904935 271.3125 31.5625 C276.2729426 33.83057173 277.92036872 35.98997919 280 41 C280 41.66 280 42.32 280 43 C278.50390625 44.078125 278.50390625 44.078125 276.5625 45.25 C273.66649839 47.22561243 273.09764579 47.70706263 271.9375 51.1875 C271.67893494 54.13975003 271.67893494 54.13975003 274 56 C276.58354218 56.16687448 276.58354218 56.16687448 279 56 C279.24105469 55.38511719 279.48210937 54.77023438 279.73046875 54.13671875 C281.29439885 51.5045041 282.5104199 50.96629769 285.3125 49.8125 C286.07175781 49.48894531 286.83101563 49.16539062 287.61328125 48.83203125 C296.08853764 45.87748197 308.79766754 45.0947889 317.11328125 48.8828125 C319.48946224 50.2898265 321.72535208 51.87178962 324 53.4375 C330.79675281 57.96227761 338.11089011 59.40634041 346 61 C342.83678839 64.51642383 339.32411161 66.79612457 335.1875 69 C334.53531494 69.34812744 333.88312988 69.69625488 333.21118164 70.05493164 C323.03561244 75.25783551 311.37664662 78.15658065 299.9453125 78.09765625 C298.83671875 78.09443359 297.728125 78.09121094 296.5859375 78.08789062 C295.44382812 78.07951172 294.30171875 78.07113281 293.125 78.0625 C291.9596875 78.05798828 290.794375 78.05347656 289.59375 78.04882812 C286.72911355 78.03708781 283.86458367 78.0206657 281 78 C280.74420166 78.72888428 280.48840332 79.45776855 280.22485352 80.20874023 C270.64804257 107.29645879 259.17095938 128.66821522 240 150 C239.09701172 151.01320313 239.09701172 151.01320313 238.17578125 152.046875 C214.28765554 177.31894754 179.02859905 191.97847838 145 196 C142.12920398 196.07415533 139.2686074 196.00086105 136.3984375 195.921875 C134.75783192 195.89463731 133.11720549 195.86863221 131.4765625 195.84375 C128.91739199 195.8004243 126.35932142 195.74955986 123.80078125 195.67773438 C121.31232717 195.61104533 118.82507435 195.57635605 116.3359375 195.546875 C115.57437347 195.51793152 114.81280945 195.48898804 114.02816772 195.45916748 C109.98602185 195.43886459 108.22294718 195.82300307 105.01611328 198.36889648 C101.49769749 202.96056117 102.41140184 207.4573673 103 213 C103.54544694 216.45449726 104.19082281 219.88605298 104.93164062 223.30395508 C105.84890855 227.60935422 106.13652065 231.60289735 106 236 C99.44835184 235.69707739 94.68355285 234.34944059 89.0625 231 C88.0271814 230.39442261 88.0271814 230.39442261 86.97094727 229.77661133 C72.44288389 221.03055751 64.84293419 210.11428168 60.7265625 193.73828125 C59.12216535 185.48339916 58.88258277 177.44972633 58.97265625 169.0546875 C58.98530882 166.73698069 58.99766931 164.41927228 59.00976562 162.1015625 C59.03446655 158.49473895 59.06237899 154.8880023 59.09594727 151.28125 C60.21456742 122.00727962 60.21456742 122.00727962 48.890625 95.828125 C45.87909227 92.91614707 42.3831746 90.91910383 38.80859375 88.765625 C17.84376888 75.58606889 12.28621616 50.74856724 6.80664062 28.265625 C5.45476968 22.79267533 3.98102077 17.35260456 2.50927734 11.91088867 C1.45711545 7.95958806 0.59701899 4.04575637 0 0 Z " fill="#FFFFFF" transform="translate(37,134)"/>
<path d="M0 0 C0.7155304 -0.00067474 1.43106079 -0.00134949 2.16827393 -0.00204468 C13.60026852 0.01506478 24.58926249 0.64146324 35.75 3.25 C36.85674072 3.49943359 36.85674072 3.49943359 37.98583984 3.75390625 C49.88078705 6.51008368 60.80099436 10.89497289 71.75 16.25 C72.41660645 16.57371582 73.08321289 16.89743164 73.77001953 17.23095703 C88.2774457 24.3667678 100.63684363 33.53042623 112.22265625 44.76953125 C113.68969604 46.1915468 115.1716799 47.5963329 116.65625 49 C144.24870375 75.66237104 162.79537741 116.02553941 163.98828125 154.4765625 C164.03306285 158.40902087 163.93979846 162.32222634 163.75 166.25 C164.91015625 166.20359375 166.0703125 166.1571875 167.265625 166.109375 C180.85236505 165.72593121 190.71007387 167.54514753 201.984375 175.6640625 C208.76602577 179.55297523 215.64977462 179.51860891 223.25 179.375 C224.1678125 179.36597656 225.085625 179.35695312 226.03125 179.34765625 C228.27111556 179.32432432 230.51041183 179.29159235 232.75 179.25 C233.41 180.9 234.07 182.55 234.75 184.25 C221.69047837 200.60783085 202.35887938 212.24536774 181.40234375 214.875 C176.49533049 215.34880592 171.61316405 215.36217698 166.6875 215.3125 C165.82189453 215.30798828 164.95628906 215.30347656 164.06445312 215.29882812 C161.95960461 215.28719913 159.85479242 215.26927073 157.75 215.25 C157.3375 216.4359375 156.925 217.621875 156.5 218.84375 C142.02691999 259.72966971 115.8866022 292.97272127 77.75 314.25 C76.65300781 314.86746094 75.55601562 315.48492187 74.42578125 316.12109375 C47.28059419 330.54498604 12.23715302 337.92564919 -18.25 332.25 C-18.12882813 333.06339844 -18.00765625 333.87679688 -17.8828125 334.71484375 C-17.42554001 337.84188406 -16.98613715 340.97093542 -16.55419922 344.1015625 C-16.24149966 346.31003454 -15.90373383 348.51391953 -15.56640625 350.71875 C-15.35572679 352.20818603 -15.14607241 353.69776745 -14.9375 355.1875 C-14.82486816 355.88415771 -14.71223633 356.58081543 -14.59619141 357.29858398 C-13.88254803 362.654753 -14.79476427 365.60716088 -17.25 370.25 C-19.6960519 373.05842996 -21.07639219 373.22867974 -24.8125 373.6875 C-39.21645582 373.04850751 -52.47367201 363.00880769 -62.25 353.25 C-62.82492188 352.68667969 -63.39984375 352.12335938 -63.9921875 351.54296875 C-73.04123093 341.90784738 -77.51434767 327.54913264 -78.4453125 314.515625 C-79.71200966 310.9491961 -82.66150947 309.68731244 -85.8125 307.9375 C-86.42802734 307.57849609 -87.04355469 307.21949219 -87.67773438 306.84960938 C-89.19339357 305.96841217 -90.72064376 305.10720523 -92.25 304.25 C-96.14101835 306.84401223 -96.30942504 309.43702377 -97.25 313.75 C-97.59382741 315.20341526 -97.93887913 316.65654144 -98.28515625 318.109375 C-98.60696411 319.48953828 -98.92859348 320.8697432 -99.25 322.25 C-101.37826202 331.20875742 -101.37826202 331.20875742 -104.5 334.9375 C-108.48103824 336.83754098 -110.05084282 336.71970501 -114.25 335.25 C-126.18371936 326.0029295 -131.24016142 313.42890611 -133.84765625 298.92578125 C-134.33520431 294.47158004 -134.39464176 290.10161379 -134.375 285.625 C-134.38297607 284.2961377 -134.38297607 284.2961377 -134.39111328 282.94042969 C-134.39021011 277.97840452 -133.98431358 273.39808743 -133.125 268.5 C-132.44379396 261.05403955 -136.40166361 256.47740536 -140.4140625 250.6015625 C-162.27005057 218.1514295 -166.39895681 172.59107978 -159.79345703 135.01123047 C-153.4291599 102.67511164 -138.53604484 73.30751742 -115.63574219 49.68261719 C-114.39249382 48.3973139 -113.16764896 47.09426923 -111.9453125 45.7890625 C-83.25427449 15.83687997 -40.9642603 0.03460116 0 0 Z M-73.25 28.25 C-73.88631348 28.59788574 -74.52262695 28.94577148 -75.17822266 29.30419922 C-84.22233498 34.29067043 -92.11038272 40.03352517 -99.78173828 46.9375 C-101.15733288 48.16716354 -102.56024952 49.36606865 -103.96484375 50.5625 C-110.15972371 55.90785097 -115.27845754 61.76263334 -120.25 68.25 C-120.92933594 69.12527344 -121.60867187 70.00054687 -122.30859375 70.90234375 C-131.79414474 83.49427402 -147.25 105.93383714 -147.25 122.25 C-146.21552734 121.90775391 -146.21552734 121.90775391 -145.16015625 121.55859375 C-136.73320948 118.98080345 -130.63826873 118.53420188 -122.5 122.125 C-111.73435741 127.96399259 -103.19932481 137.20185687 -94.69213867 145.83691406 C-89.51042152 151.06735791 -84.08816536 155.75851499 -78.25 160.25 C-76.97489633 161.25344377 -75.70018554 162.25738689 -74.42578125 163.26171875 C-59.21627657 175.16108733 -43.27469757 185.60264263 -26.42529297 195.02880859 C-24.47319242 196.12470163 -22.53465275 197.24101478 -20.59765625 198.36328125 C-3.07563541 208.1984763 16.3004576 215.30713938 35.75 220.25 C36.42804688 220.42644043 37.10609375 220.60288086 37.8046875 220.78466797 C56.00957237 225.32239742 77.75175696 225.62553329 95.75 220.25 C96.90886719 219.92128906 98.06773437 219.59257812 99.26171875 219.25390625 C110.41286866 215.70860116 119.75203153 209.6393931 128.75 202.25 C127.26361184 198.18318163 125.28273134 194.64951742 123.0625 190.9375 C113.10434244 173.79712133 105.19085773 154.75464996 109.546875 134.5546875 C112.34888634 124.92007928 112.34888634 124.92007928 115.75 121.25 C118.4375 121 118.4375 121 120.75 121.25 C121.02585937 121.96800781 121.30171875 122.68601562 121.5859375 123.42578125 C126.208136 134.64004138 132.54163635 145.84596753 143.75 151.25 C145.17664753 152.10863046 146.5932115 152.98420509 148 153.875 C148.64453125 154.27976563 149.2890625 154.68453125 149.953125 155.1015625 C151.56469706 156.13156725 153.15861288 157.18907525 154.75 158.25 C155.05429465 150.36345536 154.26052235 143.19537242 152.5625 135.5 C152.2219458 133.92412109 152.2219458 133.92412109 151.87451172 132.31640625 C150.03784848 124.06094135 147.82530172 116.14150701 144.75 108.25 C144.39131836 107.31679932 144.39131836 107.31679932 144.02539062 106.36474609 C137.85388724 90.55126023 129.08898204 75.90093038 117.75 63.25 C117.30575684 62.74162598 116.86151367 62.23325195 116.40380859 61.70947266 C90.79830613 32.43223777 54.89264367 12.50792356 15.75 9.25 C-15.99772457 7.79050745 -45.2333291 12.64164489 -73.25 28.25 Z M-129.25 128.25 C-127.50850349 136.32757956 -125.56331944 144.35413593 -123.58349609 152.37597656 C-123.19822554 153.94349575 -122.81632064 155.51184647 -122.43798828 157.08105469 C-117.09491895 179.22796042 -110.93991666 204.15774105 -90.5 217.125 C-89.61828125 217.63804687 -88.7365625 218.15109375 -87.828125 218.6796875 C-78.10458171 224.60220932 -75.07347711 231.79984726 -72.046875 242.4921875 C-70.22892048 251.0650907 -70.12877788 259.59508015 -70.22265625 268.328125 C-70.2353052 270.64713391 -70.24766596 272.96614441 -70.25976562 275.28515625 C-70.28449565 278.8898633 -70.31244874 282.4944845 -70.34594727 286.09912109 C-70.77087575 319.51763329 -70.77087575 319.51763329 -55.359375 348.3984375 C-50.82952774 352.77267932 -45.65827312 356.02140547 -40.25 359.1875 C-39.27172241 359.77265381 -39.27172241 359.77265381 -38.27368164 360.36962891 C-33.32752563 363.13179196 -28.88870816 363.99629076 -23.25 364.25 C-23.77702976 355.15275043 -23.77702976 355.15275043 -25.3125 346.1875 C-26.48357431 340.67444247 -27.37519031 334.81300386 -26.25 329.25 C-23.51994619 325.71434586 -22.12069038 324.37142741 -17.63500977 323.74584961 C-16.2364362 323.77319267 -14.83821205 323.82691691 -13.44140625 323.90234375 C-11.88436108 323.93995775 -10.32731346 323.97747011 -8.77026367 324.01489258 C-7.55528702 324.05835312 -7.55528702 324.05835312 -6.31576538 324.10269165 C8.80188184 324.61486376 23.04901495 324.16048116 37.75 320.25 C38.4733252 320.06276367 39.19665039 319.87552734 39.94189453 319.68261719 C80.5168816 308.8837583 114.61502592 281.24508133 135.75 245.25 C142.55802639 232.89412367 147.13691469 219.53857813 151.75 206.25 C152.74459229 206.2814209 152.74459229 206.2814209 153.75927734 206.31347656 C177.61864822 206.96467376 196.94006046 204.34787108 216.75 190.25 C216.75 189.92 216.75 189.59 216.75 189.25 C215.76902344 189.06566406 214.78804688 188.88132813 213.77734375 188.69140625 C204.27707368 186.71475246 196.95671587 183.49823474 188.859375 178.17578125 C181.36797642 173.53600801 170.93591193 174.42025409 162.4296875 175.78125 C157.43814603 177.0325356 153.36071993 178.3902649 149.75 182.25 C149.75 182.91 149.75 183.57 149.75 184.25 C147.375 184.375 147.375 184.375 144.75 184.25 C142.75 182.25 142.75 182.25 142.6875 179.4375 C144.16020452 175.01938643 146.85234044 173.54992444 150.75 171.25 C149.45667851 166.19428874 147.80581821 163.5453523 143.75 160.25 C142.13985026 159.42855072 140.51306604 158.63926485 138.875 157.875 C129.18428689 153.21600331 124.37673554 145.15047258 118.75 136.25 C114.81363167 142.15455249 116.22861855 150.15800998 117.3671875 156.91015625 C120.94991278 171.73249313 127.90599297 184.91821555 136.75 197.25 C138.75 200.25 138.75 200.25 138.671875 202.66796875 C135.53658052 211.44945032 121.60155927 218.11024572 113.75 222.25 C80.43527076 237.7105053 43.91093962 232.58185817 10.3125 220.8125 C-22.87093465 208.6594739 -53.70429513 190.2495898 -81.25 168.25 C-82.17941406 167.51394531 -83.10882813 166.77789062 -84.06640625 166.01953125 C-101.35711372 152.12301671 -101.35711372 152.12301671 -107.125 144.75 C-110.0701913 141.11494407 -113.66219573 138.32853349 -117.3125 135.4375 C-117.91497559 134.95667969 -118.51745117 134.47585937 -119.13818359 133.98046875 C-122.37982735 131.4650461 -125.30011067 129.54174075 -129.25 128.25 Z " fill="#000000" transform="translate(166.25,5.75)"/>
<path d="M0 0 C10.23 0 20.46 0 31 0 C49.76366567 60.53490303 49.76366567 60.53490303 57 85 C59.09359397 81.85960904 59.92877837 79.3384054 60.99951172 75.73120117 C61.18845001 75.09976196 61.37738831 74.46832275 61.572052 73.81774902 C62.1961297 71.72757022 62.81294701 69.63532315 63.4296875 67.54296875 C63.86523052 66.07851346 64.30120136 64.61418534 64.73757935 63.14997864 C65.88806561 59.28511979 67.03231971 55.41844181 68.17541504 51.5513916 C69.098025 48.43390045 70.02490363 45.31768706 70.95207024 42.20154858 C72.88650297 35.69976675 74.81821917 29.1971698 76.74169922 22.69213867 C77.02672208 21.72936902 77.02672208 21.72936902 77.31750298 20.74714947 C78.280967 17.48114549 79.22653572 14.21087512 80.14605713 10.93228149 C80.42028094 9.95719745 80.42028094 9.95719745 80.70004463 8.96241474 C81.20059488 7.17598726 81.69664989 5.38830198 82.19241333 3.60054016 C83 1 83 1 84 0 C85.85369611 -0.08737645 87.71067541 -0.10698153 89.56640625 -0.09765625 C90.69111328 -0.09443359 91.81582031 -0.09121094 92.97460938 -0.08789062 C94.15861328 -0.07951172 95.34261719 -0.07113281 96.5625 -0.0625 C97.75037109 -0.05798828 98.93824219 -0.05347656 100.16210938 -0.04882812 C103.10812226 -0.03699675 106.05403681 -0.02051287 109 0 C112.26609523 10.75080928 115.52624405 21.50340178 118.77878571 32.25831985 C120.28921109 37.25204605 121.801688 42.24513165 123.31884766 47.23681641 C124.78254889 52.05288539 126.24086836 56.87055355 127.69544983 61.68938446 C128.25171517 63.52878715 128.8099266 65.36760246 129.37010193 67.20581818 C130.15356697 69.77794303 130.9301252 72.35205772 131.70507812 74.92675781 C131.93884659 75.68848801 132.17261505 76.4502182 132.41346741 77.23503113 C133.44181832 80.67603729 134 83.37279419 134 87 C134.66 87 135.32 87 136 87 C136.08709229 86.47013992 136.17418457 85.94027985 136.26391602 85.3943634 C137.80602458 76.88122619 140.39328991 68.7015026 142.9375 60.44921875 C143.42345643 58.86134184 143.90904573 57.27335253 144.39428711 55.68525696 C145.40669273 52.37543207 146.42228285 49.06660815 147.44042969 45.75854492 C148.74312728 41.52564567 150.03964393 37.29088532 151.33403015 33.05543804 C152.33426521 29.78377621 153.33679649 26.51282185 154.34011841 23.24210548 C154.8190251 21.68058941 155.2974446 20.11892383 155.77536011 18.55710411 C156.44310739 16.37682765 157.11371045 14.19745041 157.78515625 12.01831055 C158.16551025 10.78050339 158.54586426 9.54269623 158.93774414 8.26737976 C159.84635154 5.47260542 160.90857063 2.72857343 162 0 C172.23 0 182.46 0 193 0 C188.07582445 16.73565312 182.73847249 33.32536069 177.34389877 49.91334915 C175.3870843 55.93337667 173.4359541 61.95525124 171.48415947 67.97690773 C170.99219521 69.49466131 170.50015651 71.01239076 170.00804329 72.53009605 C163.61124125 92.25928466 157.29201388 112.01320601 150.99098206 131.7731781 C150.7408989 132.55709427 150.49081573 133.34101044 150.2331543 134.14868164 C149.90966255 135.16340294 149.90966255 135.16340294 149.57963562 136.19862366 C149.06355442 137.80248723 148.53279622 139.40161133 148 141 C139.75 141 131.5 141 123 141 C117.29424837 124.42209478 112.35125957 107.62903874 107.37506104 90.82196045 C105.5549723 84.67534388 103.73147044 78.52974482 101.90488625 72.38505554 C101.2711632 70.25056063 100.63983973 68.11536627 100.00871277 65.98010254 C99.62398541 64.68397268 99.23916887 63.38786929 98.85424805 62.09179688 C98.51926804 60.96028198 98.18428802 59.82876709 97.8391571 58.66296387 C97.09609825 56.06076733 97.09609825 56.06076733 96 54 C87.42 82.71 78.84 111.42 70 141 C61.75 141 53.5 141 45 141 C40.49991746 129.74979365 40.49991746 129.74979365 38.96386719 124.96679688 C38.61482834 123.88586761 38.26578949 122.80493835 37.90617371 121.69125366 C37.35707085 119.97236435 37.35707085 119.97236435 36.796875 118.21875 C36.40168167 116.99137115 36.00648834 115.76399231 35.59931946 114.49942017 C34.53284524 111.18681201 33.47074454 107.87281729 32.40956497 104.55850983 C31.29951798 101.09404044 30.18550782 97.63084562 29.07202148 94.16748047 C26.81028645 87.13008842 24.55357064 80.09109487 22.29827881 73.05163574 C21.06001659 69.18677985 19.82044052 65.32234691 18.58056641 61.45800781 C16.4062179 54.68086988 14.23351772 47.90320567 12.0625 41.125 C11.73624634 40.10639893 11.40999268 39.08779785 11.07385254 38.03833008 C9.30593401 32.51619911 7.54267364 26.99262149 5.78594971 21.46691895 C5.01197473 19.03758597 4.23250753 16.61006277 3.45263672 14.18261719 C2.98770066 12.72338854 2.5230042 11.26408352 2.05859375 9.8046875 C1.65825928 8.55413574 1.2579248 7.30358398 0.84545898 6.01513672 C0 3 0 3 0 0 Z " fill="#000000" transform="translate(808,125)"/>
<path d="M0 0 C10.0462889 -0.44769558 18.87217182 2.36630194 27.00390625 8.15234375 C27.66390625 6.17234375 28.32390625 4.19234375 29.00390625 2.15234375 C38.90390625 2.15234375 48.80390625 2.15234375 59.00390625 2.15234375 C59.00390625 34.49234375 59.00390625 66.83234375 59.00390625 100.15234375 C49.10390625 100.15234375 39.20390625 100.15234375 29.00390625 100.15234375 C28.00390625 99.15234375 28.00390625 99.15234375 27.94140625 96.58984375 C27.96203125 95.78546875 27.98265625 94.98109375 28.00390625 94.15234375 C27.54242187 94.47847656 27.0809375 94.80460937 26.60546875 95.140625 C15.72502729 102.43009072 3.90413161 103.75345836 -8.89453125 101.68359375 C-21.94182159 98.2262676 -32.14978082 89.54620761 -38.99609375 78.15234375 C-45.65764799 65.03547533 -47.13996168 49.28014218 -42.99609375 35.15234375 C-38.5872231 22.341663 -31.19516675 10.75188025 -18.70703125 4.5078125 C-12.46123834 2.01667441 -6.69772411 0.5111766 0 0 Z " fill="#000000" transform="translate(1167.99609375,165.84765625)"/>
<path d="M0 0 C10.23 0 20.46 0 31 0 C31 17.82 31 35.64 31 54 C34.63 52.02 38.26 50.04 42 48 C53.56241153 44.85959193 65.35545232 44.84204401 76.36328125 50.13671875 C80.46262274 52.58397158 83.79630321 55.4403369 87 59 C87.680625 59.70125 88.36125 60.4025 89.0625 61.125 C96.57257424 72.26898114 96.1531531 85.27799992 96.1328125 98.1875 C96.13348733 99.53987648 96.13445885 100.89225284 96.13571167 102.24462891 C96.13717616 105.05844291 96.13507185 107.8722249 96.13037109 110.68603516 C96.12463037 114.29869585 96.12798784 117.91128295 96.13394356 121.52394104 C96.13754563 124.30678876 96.13641299 127.08961881 96.13381577 129.87246704 C96.13282301 131.85402474 96.1358632 133.83558312 96.13894653 135.81713867 C96.13421829 137.60535034 96.13421829 137.60535034 96.12939453 139.4296875 C96.12859894 140.48397949 96.12780334 141.53827148 96.12698364 142.62451172 C96 145 96 145 95 146 C92.70848583 146.08790975 90.41427476 146.10694038 88.12109375 146.09765625 C87.09110008 146.09553383 87.09110008 146.09553383 86.04029846 146.09336853 C83.83932199 146.08775479 81.63844591 146.07520007 79.4375 146.0625 C77.94856917 146.05748676 76.45963676 146.05292355 74.97070312 146.04882812 C71.31376925 146.03778093 67.65689442 146.02050713 64 146 C63.99413376 145.2616391 63.98826752 144.5232782 63.98222351 143.76254272 C63.92421089 136.7887618 63.85208515 129.81525263 63.76428509 122.84178734 C63.71964371 119.25701541 63.68037434 115.67235549 63.65356445 112.08740234 C63.62746856 108.62476248 63.58702301 105.16255507 63.53681374 101.70018387 C63.51212068 99.74279832 63.50211639 97.78524523 63.49235535 95.82772827 C63.47256119 94.62693634 63.45276703 93.42614441 63.43237305 92.18896484 C63.41571846 90.61011002 63.41571846 90.61011002 63.39872742 88.99935913 C62.76144668 84.20552323 61.0330673 80.95558725 57.5 77.6875 C52.84434001 74.54492951 48.43896179 74.4970823 43 75 C37.80581877 76.76406155 35.55207946 79.17940546 33 84 C32.17149192 87.96384339 31.85870535 91.77889074 31.79467773 95.82177734 C31.77473251 96.94248627 31.75478729 98.06319519 31.73423767 99.21786499 C31.71752518 100.41182892 31.70081268 101.60579285 31.68359375 102.8359375 C31.66281265 104.07042633 31.64203156 105.30491516 31.62062073 106.57681274 C31.55538164 110.50948671 31.49635948 114.44222589 31.4375 118.375 C31.39479388 121.04558857 31.35067536 123.71615149 31.30664062 126.38671875 C31.19896573 132.92441338 31.09970101 139.46215946 31 146 C20.77 146 10.54 146 0 146 C0 97.82 0 49.64 0 0 Z " fill="#000000" transform="translate(1015,120)"/>
<path d="M0 0 C10.23 0 20.46 0 31 0 C33.03942667 2.03942667 32.18539507 6.29566264 32.20532227 9.09985352 C32.21522186 9.94856018 32.22512146 10.79726685 32.23532104 11.67169189 C32.26703247 14.49073449 32.29173139 17.30979398 32.31640625 20.12890625 C32.33696746 22.07804311 32.3579637 24.02717544 32.37937927 25.9763031 C32.43468598 31.11701793 32.4840572 36.25777357 32.53222656 41.39855957 C32.58237897 46.64009247 32.63809763 51.8815658 32.69335938 57.12304688 C32.80104606 67.41531375 32.90246753 77.70763225 33 88 C35.21827074 84.99539826 37.43540079 81.98995654 39.65234375 78.984375 C40.27347046 78.14310059 40.89459717 77.30182617 41.5345459 76.43505859 C50.25347247 65.1238276 50.25347247 65.1238276 58.0206604 53.19218445 C59.20837085 51.21566358 60.34398064 49.60991624 62 48 C65.08278972 47.35198705 67.09062033 47.16726007 70.14453125 47.31640625 C70.91431808 47.32631088 71.68410492 47.33621552 72.47721863 47.34642029 C74.92429143 47.3854585 77.3667955 47.4732372 79.8125 47.5625 C81.47584643 47.59762858 83.13926354 47.62956492 84.80273438 47.65820312 C88.87023689 47.7351828 92.93434536 47.85587278 97 48 C95.38019603 51.34824256 93.50140187 54.1541652 91.25 57.125 C90.86585938 57.63289063 90.48171875 58.14078125 90.0859375 58.6640625 C85.83806932 64.25752868 81.50729573 69.78742188 77.18603516 75.32421875 C72.37790127 81.49165845 67.65654784 87.71735608 63 94 C65.93437168 99.43638426 69.31538926 104.20855365 73.125 109.0625 C77.69755649 114.96068663 82.1514732 120.91387879 86.44921875 127.01489258 C89.96802592 131.99914358 93.65248438 136.84439156 97.3828125 141.671875 C99 144 99 144 99 146 C87.38903327 148.40826384 73.16738029 151.19544694 62 146 C50.53975559 137.11137408 43.48338123 121.66930492 37.09884644 108.96160889 C35.81757462 106.572755 35.81757462 106.572755 33 103 C32.67 117.19 32.34 131.38 32 146 C21.44 146 10.88 146 0 146 C0 97.82 0 49.64 0 0 Z " fill="#000000" transform="translate(667,120)"/>
<path d="M0 0 C9.45410076 7.80921499 14.84773538 17.72197218 17.3125 29.59765625 C18.00588117 37.779554 17.90458015 44.30662571 15.625 52.28515625 C-6.815 52.61515625 -29.255 52.94515625 -52.375 53.28515625 C-47.6241108 60.88657897 -45.11045305 64.37333857 -36.9375 67.09765625 C-26.57447619 67.85592628 -18.26574645 67.45144978 -10.00390625 60.625 C-8.375 59.28515625 -8.375 59.28515625 -6.375 58.28515625 C-4.89 59.27515625 -4.89 59.27515625 -3.375 60.28515625 C-3.375 60.94515625 -3.375 61.60515625 -3.375 62.28515625 C-2.81167969 62.52363281 -2.24835938 62.76210937 -1.66796875 63.0078125 C1.12389204 64.56307396 3.06192408 66.45720049 5.3125 68.72265625 C6.49392578 69.89634766 6.49392578 69.89634766 7.69921875 71.09375 C9.625 73.28515625 9.625 73.28515625 10.625 76.28515625 C-0.71077561 87.31973975 -13.22922214 92.9012763 -29.125 92.72265625 C-30.08583496 92.71435791 -31.04666992 92.70605957 -32.03662109 92.69750977 C-46.71498587 92.35131029 -59.88559224 87.65803853 -70.75 77.47265625 C-81.27279252 66.14041815 -84.74535606 53.10601776 -84.5859375 37.9453125 C-83.78632396 24.07053687 -77.64732382 11.63967794 -67.375 2.28515625 C-47.48417088 -12.4466682 -20.7039888 -14.94909718 0 0 Z " fill="#000000" transform="translate(1378.375,175.71484375)"/>
<path d="M0 0 C9.13612634 7.59613535 13.64835311 16.94858866 15.0625 28.71484375 C15.14417927 30.93689099 15.18042845 33.1609779 15.17602539 35.38452148 C15.17591209 37.3057206 15.17591209 37.3057206 15.17579651 39.26573181 C15.17069145 40.64330078 15.16547548 42.02086934 15.16015625 43.3984375 C15.1582886 44.82332815 15.15686634 46.24821944 15.15586853 47.67311096 C15.15207066 51.40324715 15.14226402 55.13334371 15.13116455 58.86346436 C15.11908167 63.34980196 15.11453518 67.83615288 15.10871124 72.32250214 C15.09905053 79.1199768 15.07987498 85.91736472 15.0625 92.71484375 C4.5025 92.71484375 -6.0575 92.71484375 -16.9375 92.71484375 C-16.97488281 88.45320313 -17.01226563 84.1915625 -17.05078125 79.80078125 C-17.08891364 76.393071 -17.12998624 72.98542428 -17.1730423 69.57777405 C-17.21762123 65.98595321 -17.25707295 62.39424683 -17.28393555 58.80224609 C-17.31003144 55.33960623 -17.35047699 51.87739882 -17.40068626 48.41502762 C-17.42537932 46.45764207 -17.43538361 44.50008898 -17.44514465 42.54257202 C-17.46493881 41.34178009 -17.48473297 40.14098816 -17.50512695 38.90380859 C-17.52178154 37.32495377 -17.52178154 37.32495377 -17.53877258 35.71420288 C-18.17605332 30.92036698 -19.9044327 27.670431 -23.4375 24.40234375 C-28.02559381 21.30538043 -32.55671334 20.93376181 -37.9375 21.71484375 C-41.61077026 23.27660832 -44.84709164 25.08473833 -47.09765625 28.44921875 C-49.6655838 35.37665122 -49.14972102 43.15508521 -49.25390625 50.4296875 C-49.27468735 51.64056534 -49.29546844 52.85144318 -49.31687927 54.09901428 C-49.38203024 57.95006885 -49.44109914 61.80118902 -49.5 65.65234375 C-49.543218 68.27018896 -49.58683332 70.88802763 -49.63085938 73.50585938 C-49.73842046 79.90878802 -49.83775042 86.31176962 -49.9375 92.71484375 C-60.1675 92.71484375 -70.3975 92.71484375 -80.9375 92.71484375 C-80.9375 60.37484375 -80.9375 28.03484375 -80.9375 -5.28515625 C-70.7075 -5.28515625 -60.4775 -5.28515625 -49.9375 -5.28515625 C-49.6075 -3.30515625 -49.2775 -1.32515625 -48.9375 0.71484375 C-48.25945313 0.30492187 -47.58140625 -0.105 -46.8828125 -0.52734375 C-31.99667761 -9.14563237 -14.47215877 -10.56984453 0 0 Z " fill="#000000" transform="translate(633.9375,173.28515625)"/>
<path d="M0 0 C10.23 0 20.46 0 31 0 C32.75197267 1.75197267 32.12613706 4.20088608 32.12698364 6.58032227 C32.12980347 7.79188995 32.13262329 9.00345764 32.13552856 10.2517395 C32.13358397 11.60662857 32.13153578 12.96151748 32.12939453 14.31640625 C32.13074854 15.73363286 32.13252847 17.15085913 32.13470459 18.56808472 C32.13927899 22.42748241 32.13748934 26.28685349 32.1343255 30.14625168 C32.13180193 34.1763593 32.13413943 38.20646456 32.13571167 42.23657227 C32.13753338 49.0057008 32.13512703 55.77481843 32.13037109 62.54394531 C32.12492847 70.38116485 32.12669113 78.21835837 32.1321975 86.05557728 C32.1367286 92.77233256 32.13737919 99.48907998 32.13475883 106.2058363 C32.13319604 110.22276931 32.13300234 114.23969008 32.13629532 118.25662231 C32.139174 122.03221994 32.13719841 125.80778387 32.13140106 129.58337784 C32.13007344 130.97298247 32.13046761 132.36258992 32.13266373 133.75219345 C32.13537513 135.64135388 32.1313805 137.53052047 32.12698364 139.41967773 C32.12660662 140.47936264 32.12622959 141.53904755 32.12584114 142.63084412 C32 145 32 145 31 146 C20.77 146 10.54 146 0 146 C0 97.82 0 49.64 0 0 Z " fill="#000000" transform="translate(1248,120)"/>
<path d="M0 0 C10.56 0 21.12 0 32 0 C32 46.86 32 93.72 32 142 C21.44 142 10.88 142 0 142 C0 95.14 0 48.28 0 0 Z " fill="#000000" transform="translate(497,124)"/>
<path d="M0 0 C2.99895023 5.57342759 4.9316646 10.70905834 6.33203125 16.86328125 C6.74280715 18.57357525 7.15361555 20.28386144 7.56445312 21.99414062 C8.18602958 24.63408092 8.80373567 27.2748857 9.41918945 29.91625977 C15.76445 56.98136425 23.6305543 81.23909311 48 97 C55.24992858 101.98919816 58.05646863 108.57803073 60 117 C60 118.32 60 119.64 60 121 C52.10642805 117.35950562 47.098697 111.20311027 42.4453125 104.0390625 C41.15706842 101.88224419 41.15706842 101.88224419 39 101 C42.09911226 110.50394428 50.52047433 119.58972333 59.375 124.25 C61.47842232 126.51522404 61.2405166 127.64807139 61.25 130.6875 C61.18576167 132.1259798 61.10836453 133.56416999 61 135 C56.37065442 133.54261343 53.22781931 130.88813273 49.75 127.625 C49.17934814 127.09044189 48.60869629 126.55588379 48.02075195 126.00512695 C36.53167088 114.98149184 27.13171312 100.49392419 23 85 C23 84.01 23 83.02 23 82 C22.34 82.66 21.68 83.32 21 84 C27.73179928 107.1081956 40.86254289 125.57502859 61 139 C61.40843923 141.71203652 61.13336867 144.2437142 61 147 C55.00699001 144.88918763 50.80279358 141.0536698 46 137 C45.15695313 136.30519531 44.31390625 135.61039063 43.4453125 134.89453125 C23.60240419 117.92606293 13.8845447 93.99884928 9 69 C8.70029297 67.50339844 8.70029297 67.50339844 8.39453125 65.9765625 C8.26433594 65.32429688 8.13414063 64.67203125 8 64 C7.67 64 7.34 64 7 64 C7.10823702 90.62630814 21.98349544 117.20775988 40.47607422 135.57568359 C46.74021081 141.43037326 53.85246756 146.2990818 61 151 C60.67 153.97 60.34 156.94 60 160 C53.54933973 156.77466986 48.58353994 153.10877717 43.33203125 148.171875 C41.46152197 146.42982615 39.57961666 144.87227517 37.5625 143.3125 C14.08989569 123.14589629 1.33338896 87.81110358 -2 58 C-2.06056151 56.35514934 -2.08781955 54.70827043 -2.0625 53.0625 C-2.05347656 52.29035156 -2.04445313 51.51820313 -2.03515625 50.72265625 C-2.02355469 50.15417969 -2.01195312 49.58570313 -2 49 C-2.99 49 -3.98 49 -5 49 C0.11047496 90.38238259 14.18948785 128.81057527 47.96557617 155.34790039 C51.80083089 158.27199563 55.77150266 160.68183902 60 163 C60 165.97 60 168.94 60 172 C29.74653228 157.39487765 6.48547732 123.70795624 -5 93 C-13.75749216 67.7043581 -20.07092766 35.73681512 -10 10 C-4.96214552 0 -4.96214552 0 0 0 Z " fill="#FFFFFF" transform="translate(27,135)"/>
<path d="M0 0 C5.96345138 4.543582 10.42498887 9.39992953 11.625 17 C12.41735508 23.82934614 11.16362516 29.09463204 7.625 35 C3.14346512 40.28591293 -0.81305949 42.98369323 -7.6875 43.875 C-14.24943716 44.30775225 -18.48609318 42.67959699 -24.0625 39.4375 C-28.9763643 34.25802142 -31.6675936 28.48283542 -31.875 21.3125 C-31.44480328 13.45865222 -28.29755863 8.51959439 -23.2890625 2.69921875 C-17.15040238 -2.75040809 -7.46152744 -2.21082294 0 0 Z " fill="#FFFFFF" transform="translate(1186.375,196)"/>
<path d="M0 0 C3.18621303 1.50455505 5.0049478 2.88952378 7.25 5.625 C12.65349797 12.00043337 18.47394338 17.7791547 25 23 C24.68546875 23.58523438 24.3709375 24.17046875 24.046875 24.7734375 C19.69287539 33.50766563 17.87123948 42.49744868 16 52 C9.61491245 49.24780709 6.37449472 43.33369273 3.75 37.125 C0.2909737 28.41674958 -0.28590236 19.64545123 -0.125 10.375 C-0.11597656 9.37082031 -0.10695312 8.36664063 -0.09765625 7.33203125 C-0.07437746 4.88775874 -0.04168487 2.44401592 0 0 Z " fill="#FFFFFF" transform="translate(41,280)"/>
<path d="M0 0 C3.05947849 2.77216706 5.53060275 6.12613452 7 10 C7 10.99 7 11.98 7 13 C-6.53 13 -20.06 13 -34 13 C-30.09767178 5.19534356 -27.77378448 1.28311432 -20.125 -2.375 C-13.09862927 -3.78027415 -6.32149992 -3.71284603 0 0 Z " fill="#FFFFFF" transform="translate(1359,193)"/>
</svg>
