<?xml version="1.0" standalone="no"?>
<!DOCTYPE svg PUBLIC "-//W3C//DTD SVG 20010904//EN"
 "http://www.w3.org/TR/2001/REC-SVG-20010904/DTD/svg10.dtd">
<svg version="1.0" xmlns="http://www.w3.org/2000/svg"
 width="1280.000000pt" height="720.000000pt" viewBox="0 0 1280.000000 720.000000"
 preserveAspectRatio="xMidYMid meet">

<g transform="translate(0.000000,720.000000) scale(0.100000,-0.100000)"
fill="#000000" stroke="none">
<path d="M1145 4208 c-7 -22 -235 -1209 -235 -1224 0 -12 51 -14 328 -14 l328
0 18 93 c9 50 20 102 23 115 l5 22 -206 0 c-113 0 -206 3 -206 8 0 4 11 65 25
137 14 71 25 130 25 132 0 2 78 3 173 3 l173 0 18 93 c9 50 20 102 23 115 l5
22 -171 0 c-138 0 -171 3 -171 14 0 7 11 68 25 136 14 68 25 124 25 126 0 2
93 5 207 6 l207 3 18 90 c10 50 20 100 23 113 l5 22 -330 0 c-256 0 -332 -3
-335 -12z"/>
<path d="M2106 4209 c-46 -11 -95 -46 -130 -92 -21 -27 -38 -103 -120 -525
l-96 -494 19 -43 c34 -76 49 -80 327 -80 l241 0 49 30 c73 45 97 95 127 253
l24 132 -123 0 c-138 0 -124 9 -144 -95 -20 -104 -7 -95 -136 -95 -63 0 -114
3 -114 8 0 6 117 613 141 730 l10 52 115 0 c84 0 114 -3 114 -12 0 -7 -7 -48
-15 -91 -8 -43 -15 -81 -15 -83 0 -2 56 -4 124 -4 l124 0 27 146 28 146 -21
44 c-36 74 -54 79 -302 81 -118 1 -233 -3 -254 -8z"/>
<path d="M2905 4208 c-3 -7 -58 -287 -123 -623 l-118 -610 119 -3 c66 -1 122
-1 124 2 3 2 25 107 49 233 24 125 46 238 49 251 5 21 9 22 120 22 80 0 115
-4 115 -11 0 -7 -20 -115 -45 -241 -25 -126 -45 -236 -45 -244 0 -12 20 -14
122 -12 l123 3 117 600 c64 330 117 610 117 623 1 22 0 23 -121 20 l-122 -3
-42 -220 c-24 -121 -45 -235 -49 -252 l-6 -33 -114 0 c-103 0 -115 2 -115 18
0 9 20 120 45 246 25 127 45 233 45 238 0 14 -240 10 -245 -4z"/>
<path d="M4005 4211 c-68 -17 -143 -79 -159 -129 -16 -49 -186 -949 -186 -983
0 -51 46 -104 102 -120 25 -6 122 -9 257 -7 209 3 217 4 260 28 24 14 58 42
74 62 28 35 36 66 123 515 52 263 94 491 94 506 0 39 -24 81 -62 109 -32 22
-40 23 -253 25 -121 1 -233 -2 -250 -6z m298 -228 c2 -5 -31 -181 -72 -393
l-76 -385 -119 -3 -118 -3 5 23 c9 37 147 750 147 759 0 11 227 12 233 2z"/>
<path d="M5116 3608 c-66 -337 -121 -619 -124 -625 -3 -10 25 -13 121 -13
l125 0 10 48 c6 26 25 124 43 218 l32 170 126 11 c105 9 138 16 193 41 79 36
161 109 193 172 34 67 107 438 95 482 -13 45 -59 87 -106 99 -22 4 -163 9
-314 9 l-276 0 -118 -612z m554 375 c0 -5 -12 -68 -27 -142 -36 -182 -39 -185
-173 -189 -95 -4 -102 -3 -97 15 3 10 18 81 32 158 15 77 29 146 31 153 2 9
35 12 119 12 63 0 115 -3 115 -7z"/>
<path d="M6135 4208 c-2 -7 -58 -289 -123 -625 l-118 -613 122 0 c108 0 123 2
128 18 3 9 24 114 46 232 23 118 44 225 47 238 5 21 9 22 119 22 87 0 114 -3
114 -13 0 -7 -20 -116 -45 -243 -25 -126 -45 -235 -45 -241 0 -10 31 -13 123
-13 l122 0 118 613 c65 336 118 618 118 625 -1 9 -32 12 -120 12 -105 0 -120
-2 -125 -17 -3 -10 -21 -103 -41 -208 -20 -104 -41 -211 -47 -237 l-10 -48
-114 0 c-85 0 -114 3 -114 13 0 6 20 116 45 242 25 127 45 236 45 243 0 9 -31
12 -120 12 -88 0 -122 -3 -125 -12z"/>
<path d="M7276 4212 c-2 -4 -111 -282 -241 -617 -130 -335 -238 -613 -241
-617 -3 -4 52 -8 123 -8 l128 0 48 125 48 125 105 0 104 0 0 -125 0 -125 130
0 130 0 -2 623 -3 622 -162 3 c-89 1 -164 -1 -167 -6z m100 -484 c-23 -303
-16 -278 -81 -278 -37 0 -55 4 -55 13 0 19 144 487 148 482 2 -2 -3 -100 -12
-217z"/>
<path d="M7990 4214 c0 -8 -229 -1191 -237 -1221 -5 -23 -5 -23 121 -23 69 0
126 3 126 6 0 17 142 741 148 758 4 10 16 -125 26 -300 9 -176 20 -352 23
-391 l6 -73 171 0 171 0 118 613 c65 336 118 618 117 625 0 9 -31 12 -119 12
-105 0 -120 -2 -125 -17 -2 -10 -38 -189 -78 -398 -85 -443 -75 -451 -104 88
l-17 327 -174 0 c-95 0 -173 -3 -173 -6z"/>
<path d="M8934 4183 c-3 -21 -12 -69 -20 -106 -8 -38 -14 -73 -14 -78 0 -5 52
-9 120 -9 120 0 120 0 115 -22 -3 -13 -45 -232 -95 -488 -49 -256 -92 -475
-95 -487 -5 -23 -5 -23 119 -23 l124 0 72 373 c40 204 85 433 99 507 l27 135
121 3 120 3 22 107 c11 59 21 110 21 115 0 4 -164 7 -365 7 l-364 0 -7 -37z"/>
<path d="M9915 4211 c-63 -16 -126 -63 -153 -117 -15 -29 -192 -940 -192 -988
0 -21 9 -53 20 -71 34 -55 59 -60 320 -60 l235 0 47 28 c93 54 89 41 195 583
62 322 92 499 88 520 -8 44 -53 90 -101 103 -43 12 -410 13 -459 2z m294 -243
c0 -13 -33 -189 -72 -393 l-73 -370 -118 -3 -118 -3 6 28 c16 77 146 751 146
757 0 3 52 6 115 6 113 0 115 0 114 -22z"/>
<path d="M10746 4203 c-7 -26 -236 -1209 -236 -1222 0 -8 37 -11 122 -9 l123
3 75 389 c52 269 77 379 81 360 4 -16 7 -141 8 -279 1 -137 4 -301 8 -362 l6
-113 148 0 147 0 34 83 c19 45 90 220 158 389 68 169 126 306 128 304 3 -4
-133 -720 -144 -758 -5 -17 5 -18 119 -18 121 0 125 1 130 23 8 31 237 1213
237 1221 0 4 -77 5 -172 4 l-171 -3 -203 -485 c-111 -267 -207 -492 -213 -500
-7 -11 -10 11 -11 75 -1 71 -28 902 -30 913 0 1 -76 2 -169 2 -153 0 -170 -2
-175 -17z"/>
</g>
</svg>
