<?xml version="1.0" standalone="no"?>
<!DOCTYPE svg PUBLIC "-//W3C//DTD SVG 20010904//EN"
 "http://www.w3.org/TR/2001/REC-SVG-20010904/DTD/svg10.dtd">
<svg version="1.0" xmlns="http://www.w3.org/2000/svg"
 width="496.000000pt" height="447.000000pt" viewBox="0 0 496.000000 447.000000"
 preserveAspectRatio="xMidYMid meet">

<g transform="translate(0.000000,447.000000) scale(0.100000,-0.100000)"
fill="#000000" stroke="none">
<path d="M2215 4441 c-370 -113 -683 -371 -800 -660 -34 -83 -48 -140 -90
-370 -38 -211 -99 -490 -195 -896 -91 -382 -85 -418 107 -627 24 -26 43 -54
43 -62 0 -8 -16 -27 -36 -42 -49 -38 -74 -93 -81 -176 -8 -94 -26 -113 -160
-173 -125 -55 -428 -209 -570 -291 -54 -31 -155 -99 -224 -150 -106 -81 -131
-104 -161 -157 -48 -82 -52 -103 -37 -188 14 -81 26 -100 165 -260 152 -175
209 -222 357 -293 238 -115 255 -117 434 -36 256 114 609 211 933 256 156 21
650 30 844 15 345 -26 757 -123 1046 -246 45 -19 97 -31 167 -38 147 -15 160
-8 368 205 91 92 165 172 165 178 0 27 26 -2 135 -147 140 -188 172 -223 201
-223 12 0 45 18 73 40 65 51 66 72 5 142 -70 81 -244 350 -244 377 0 13 11 38
24 55 35 47 59 97 49 107 -4 4 -44 23 -88 42 -176 77 -273 126 -289 148 -10
14 -16 44 -16 76 0 62 -34 161 -79 232 -18 28 -71 87 -118 131 l-84 80 6 53
c8 72 -13 103 -104 151 -39 20 -71 43 -71 51 0 8 157 328 348 712 191 384 356
722 365 752 25 78 22 139 -8 183 -27 39 -107 85 -167 94 -63 11 -83 -18 -244
-361 -123 -263 -263 -542 -584 -1168 -35 -68 -60 -105 -68 -102 -7 2 -28 -3
-47 -12 -19 -9 -38 -13 -42 -10 -3 4 27 58 69 120 41 61 80 122 87 134 20 39
12 96 -39 279 -122 431 -180 707 -226 1069 -21 168 -53 294 -97 381 -132 260
-374 467 -697 595 -129 51 -228 60 -325 30z m269 -717 c190 -76 330 -208 485
-457 39 -64 97 -142 128 -173 69 -71 95 -127 96 -208 3 -167 -76 -246 -247
-246 -96 0 -178 25 -361 108 -167 75 -172 77 -250 77 -77 0 -85 -3 -205 -59
-69 -32 -172 -74 -230 -94 -94 -32 -116 -36 -210 -37 -94 0 -110 3 -149 25
-53 30 -78 73 -92 161 -19 115 1 190 71 264 20 22 105 121 188 220 168 202
230 265 317 323 70 46 173 99 230 119 56 18 149 9 229 -23z m1971 -419 c36
-27 53 -75 26 -75 -21 0 -117 45 -125 58 -9 15 21 42 46 42 12 0 36 -11 53
-25z m-153 -313 c12 -12 -64 -55 -90 -50 -16 3 -35 52 -23 63 9 10 100 0 113
-13z m-141 -199 c46 -27 34 -63 -20 -63 -21 0 -71 47 -71 66 0 20 56 18 91 -3z
m-104 -209 c51 -33 54 -37 40 -52 -37 -37 -150 33 -117 73 7 8 14 15 17 15 2
0 29 -16 60 -36z m-1675 15 c12 -6 47 -66 84 -145 35 -73 73 -138 83 -144 11
-5 53 -10 93 -10 83 0 98 -9 98 -55 0 -42 -16 -55 -70 -55 -70 0 -75 -7 -49
-74 11 -32 27 -60 35 -63 8 -3 14 -19 14 -38 0 -34 19 -58 42 -53 7 2 26 -7
42 -19 35 -28 28 -59 -20 -79 -47 -20 -90 -18 -114 6 -20 20 -71 122 -112 225
-27 68 -54 95 -95 95 -37 0 -42 17 -18 60 8 14 14 39 14 55 0 32 -68 180 -82
180 -5 0 -59 -123 -121 -274 -123 -302 -151 -347 -217 -358 -32 -5 -42 -1 -75
30 -37 34 -38 37 -27 67 10 27 9 33 -13 57 -13 14 -24 27 -24 29 0 2 24 -8 53
-21 28 -14 60 -25 69 -25 20 0 46 36 50 69 3 21 -5 26 -64 47 -80 27 -180 79
-204 106 -21 22 -26 24 120 -37 53 -22 109 -38 135 -39 43 -1 46 1 46 24 0 23
-5 25 -53 30 -59 6 -72 18 -72 67 0 17 -3 39 -7 49 -7 18 9 17 130 -2 59 -10
77 10 132 140 62 152 74 166 131 166 25 0 55 -5 66 -11z m1582 -192 c22 -12
41 -28 44 -34 5 -18 -41 -37 -71 -29 -34 8 -62 52 -46 72 16 19 27 18 73 -9z
m-104 -224 c29 -21 55 -44 58 -50 5 -16 -91 -18 -135 -2 l-31 10 16 40 c8 21
20 39 27 39 6 0 36 -17 65 -37z m44 -698 c27 -21 29 -26 17 -47 -28 -52 -68
-91 -86 -84 -15 5 -17 15 -13 70 3 35 9 69 12 75 11 18 39 12 70 -14z m-204
-175 c33 -11 -64 -11 -140 0 -52 7 -51 7 30 8 47 0 96 -4 110 -8z m383 -50
c46 -51 117 -163 117 -184 0 -12 -36 -5 -66 13 -26 16 -131 135 -158 179 -13
22 4 52 29 52 16 0 41 -19 78 -60z"/>
</g>
</svg>
