<?xml version="1.0" encoding="utf-8" ?>
<svg xmlns="http://www.w3.org/2000/svg" xmlns:xlink="http://www.w3.org/1999/xlink" width="1949" height="380">
	<path transform="scale(3.24885 3.24885)" d="M428.237 26.8308C429.124 26.4305 430.517 26.595 431.498 26.5924L438.91 26.593L464.472 26.6592C465.309 26.6982 466.337 26.7599 466.932 27.4173C466.444 28.6371 466.322 30.0538 466.069 31.3399L464.638 38.7092C463.469 39.0753 461.82 38.9092 460.58 38.9248L451.495 38.8975C451.167 43.3766 449.98 47.8667 449.16 52.2854L443.179 82.6457L440.941 92.9789L427.907 93.026L438.485 38.9446L428.922 38.9208C427.775 38.9158 426.47 39.1751 425.559 38.4663C426.505 36.0477 426.725 32.7989 427.225 30.2216C427.448 29.0775 427.593 27.8267 428.237 26.8308Z"/>
	<path transform="scale(3.24885 3.24885)" d="M36.0326 26.5337L66.6317 26.8705L64.4746 38.9115L42.1924 38.8281C41.4928 43.6239 40.6808 48.9982 39.2751 53.612L57.8237 53.7448L55.3179 65.9926L36.7672 66.0213C36.6401 70.6285 35.2633 76.0282 34.1989 80.5299L56.1702 80.8268L54.3942 89.8999C54.2323 90.7622 54.2312 92.1936 53.7765 92.9278L18.6406 92.9954L19.0549 90.3158L26.3705 52.4575L29.6329 36.2428C30.1493 33.6244 30.4482 30.8632 31.1083 28.2856C31.2352 27.7901 31.369 27.2509 31.7988 26.9518L31.8596 26.9099C32.7213 26.3097 34.9634 26.5267 36.0326 26.5337Z"/>
	<path transform="scale(3.24885 3.24885)" d="M81.7973 26.7572C84.9913 26.264 88.6272 26.5532 91.8621 26.5534C95.589 26.5536 99.6646 26.2411 103.346 26.8438C105.865 27.2562 107.883 28.3246 109.39 30.432C110.152 31.4983 110.201 32.449 110.201 33.719C110.201 38.8269 108.355 44.0799 107.542 49.1115L94.1609 48.988L96.3054 38.934L83.5997 38.9228L75.6016 80.688L88.0059 80.5389L89.9597 71.109L90.3121 70.732C91.2671 70.284 92.7437 70.4545 93.7924 70.4528L103.319 70.6713L101.592 79.6677C101.015 82.5402 100.478 85.5523 98.6589 87.9381C96.752 90.4392 93.713 92.3562 90.5823 92.76C86.7314 93.2567 82.5964 92.9963 78.7059 92.9899C75.0903 92.984 70.9859 93.3369 67.473 92.512C66.1596 92.2036 64.8342 91.4051 63.7731 90.5792C62.4723 89.5668 62.0691 88.6884 61.8702 87.0885C61.4103 83.3901 62.5239 79.4957 63.2393 75.8783L65.9087 62.2272C67.5041 53.7811 68.6863 44.9197 70.9211 36.6314C71.4 34.8554 71.9344 33.109 73.0805 31.6356C75.3984 28.656 78.0893 27.2218 81.7973 26.7572Z"/>
	<path transform="scale(3.24885 3.24885)" d="M343.322 26.6916C347.785 26.3912 352.365 26.5368 356.84 26.6071C357.824 26.6226 359.861 26.4018 360.717 26.8459L360.82 93.0187L347.145 93.1188L347.353 79.732L335.944 79.6801L330.695 93.0042L317.513 92.969C321.649 80.0493 327.251 67.5035 332.151 54.8549L339.449 35.835C340.679 32.7548 341.766 29.6275 343.322 26.6916ZM349.019 40.6128L341.012 66.7105C341.248 66.9416 341.412 67.1101 341.748 67.1852L347.438 67.1407C347.387 64.5084 347.768 61.9194 347.994 59.3036L348.869 48.4588C349.069 46.3782 349.993 42.743 349.349 40.8341L349.019 40.6128Z"/>
	<path transform="scale(3.24885 3.24885)" d="M238.722 26.8308C242.119 26.1898 246.07 26.5986 249.546 26.5904L261.424 26.577C264.408 26.5793 267.815 26.333 270.654 27.3595C272.345 27.9707 274.126 29.459 274.881 31.0989C276.345 34.2757 274.513 39.8212 273.871 43.1285C273.057 47.3198 272.429 51.706 270.959 55.7215C269.029 60.9911 264.96 64.788 259.919 67.1182C256.062 68.9008 251.91 69.2858 247.716 69.4326C246.376 69.4795 244.807 69.6688 243.535 69.1862L243.457 69.156C242.558 69.7336 242.358 71.967 242.105 73.0672L238.257 92.9082C237.205 93.2356 235.597 93.0022 234.457 92.9943L225.194 92.9735C225.116 92.8321 225.078 92.7235 225.104 92.5628L232.12 56.835L235.896 37.3872C236.452 34.4866 236.814 31.4537 237.501 28.5902C237.74 27.5966 237.877 27.3424 238.722 26.8308ZM248.709 38.88L245.367 56.9985C248.739 56.9048 253.837 57.3978 256.767 55.6498C260.338 51.3044 259.945 44.2264 261.45 38.9343L248.709 38.88Z"/>
	<path transform="scale(3.24885 3.24885)" d="M288.898 26.5327L297.624 26.8483L292.368 53.5232L305.12 53.533L307.931 38.5009C308.65 34.5613 309.213 30.6185 310.368 26.7742C314.601 26.235 319.157 26.5497 323.411 26.8094L310.542 92.6194C310.004 93.1579 308.21 92.9563 307.397 92.9736L297.164 93.0099C298.094 90.1062 298.463 86.8814 299.049 83.8866L302.575 65.95L293.149 66.0218C292.32 66.021 290.496 65.8007 289.867 66.1916L284.782 92.9784C282.997 92.9724 272.284 93.266 271.709 92.8634L280.25 48.0067L282.654 35.691C283.157 32.9667 283.46 29.6746 284.489 27.1241C285.589 26.3556 287.579 26.5559 288.898 26.5327Z"/>
	<path transform="scale(3.24885 3.24885)" d="M123.418 26.5339L132.84 26.7466L127.739 53.6964L140.203 53.5994L145.584 26.76C149.665 25.9928 154.658 26.5639 158.806 26.7159L153.198 54.9812C152.305 59.6146 146.805 91.4907 145.743 92.6805C145.355 93.1144 144.217 92.9698 143.628 92.9829L132.645 92.997L137.87 65.9741L125.358 66.0209L120.082 92.9347L110.209 92.9223C109.178 92.9146 107.685 93.1502 106.893 92.515C107.605 91.1767 107.634 88.9297 107.882 87.4198L109.482 78.7289C110.367 74.0371 119.391 27.4143 119.926 26.7695L123.418 26.5339Z"/>
	<path transform="scale(3.24885 3.24885)" d="M385.696 26.5326L397.419 26.7739C397.742 28.165 397.699 29.8013 397.794 31.2301L398.265 40.7468L398.914 49.6469C399.227 55.8751 399.375 61.9519 400.194 68.1547C401.295 64.9566 401.567 61.1104 402.229 57.7669L408.381 26.7336C412.677 26.2806 417.253 26.5032 421.557 26.8463L408.666 92.9606L402.851 93.0031L390.244 93.0507L387.772 50.9677L379.366 93.02L366.27 92.9835C366.594 89.8202 367.305 86.7023 367.896 83.58L371.9 63.6598L375.881 43.3478C376.829 38.2557 377.596 32.9472 378.899 27.9437C378.982 27.6241 379.127 27.3976 379.357 27.1627C380.213 26.2864 384.417 26.5526 385.696 26.5326Z"/>
	<path transform="scale(3.24885 3.24885)" d="M177.655 26.7657L178.031 26.6853C180.603 26.2254 183.814 26.5469 186.441 26.5507C190.572 26.5568 195.172 26.1769 199.245 26.8585C200.644 27.0925 201.772 27.442 202.95 28.2633C204.415 29.2853 205.66 30.5427 205.978 32.3785C206.272 34.0743 205.868 35.7225 205.591 37.3879L204.072 45.6675L200.062 65.7112C198.971 71.1644 198.185 76.8926 196.791 82.2584C196.287 84.1968 195.716 86.1658 194.548 87.823C192.55 90.6567 189.478 92.1983 186.137 92.762C181.914 93.1965 177.522 92.9779 173.278 92.979C170.293 92.9798 166.932 93.2882 164.002 92.7237C162.705 92.4739 161.386 91.9293 160.317 91.1511C158.734 89.9988 157.661 88.4592 157.371 86.4891C156.992 83.9182 158.238 80.2969 158.729 77.7016L163.018 55.6274C164.255 49.2346 165.094 42.5519 166.715 36.2558C167.129 34.6458 167.778 32.9222 168.783 31.5814C170.991 28.6333 174.095 27.2603 177.655 26.7657ZM179.492 38.9145L171.411 80.6403L183.825 80.5589L189.911 49.9816L191.296 42.5379C191.505 41.3841 191.884 40.1452 191.928 38.9757L179.492 38.9145Z"/>
	<path transform="scale(3.24885 3.24885)" d="M463.982 92.0349C462.762 91.5152 460.649 90.1444 460.157 88.873C459.697 87.6823 459.527 86.0931 459.643 84.8359C460.171 79.0847 461.748 73.3466 462.811 67.669L466.658 47.2186C467.518 42.6929 468.004 37.1987 470.027 33.0632C471.302 30.4582 474.118 28.2125 476.85 27.2872C480.635 26.0047 485.361 26.5891 489.321 26.583C493.534 26.5764 500.408 25.713 504.235 27.6667C505.684 28.4065 507.38 30.0081 507.853 31.5812C508.214 32.7828 508.187 34.466 508.042 35.7055C507.176 43.1413 505.181 50.7865 503.719 58.1452L500.484 74.2955C499.712 78.205 499.269 83.3205 497.33 86.8124C495.843 89.4905 493.035 91.5575 490.095 92.3773C486.591 93.3544 482.295 92.9725 478.663 92.9687C475.692 92.9656 472.558 93.1605 469.612 92.9123C467.835 93.1075 465.609 92.776 463.982 92.0349ZM481.476 38.9232L473.559 80.6678L485.917 80.6639L492.079 49.5591C492.772 46.1272 493.073 42.2253 494.248 38.9535L481.476 38.9232ZM463.982 92.0349C465.609 92.776 467.835 93.1075 469.612 92.9123L469.429 92.5016C471.618 92.5052 483.936 92.9502 485.007 92.2218C483.75 91.4628 466.627 91.8931 463.982 92.0349Z"/>
	<path transform="scale(3.24885 3.24885)" d="M463.982 92.0349C466.627 91.8931 483.75 91.4628 485.007 92.2218C483.936 92.9502 471.618 92.5052 469.429 92.5016L469.612 92.9123C467.835 93.1075 465.609 92.776 463.982 92.0349Z"/>
	<path transform="scale(3.24885 3.24885)" d="M566.825 26.5329L581.249 26.8409C580.492 28.608 580.294 30.6719 579.935 32.5515L577.802 44.1711L570.806 79.1787L567.968 93.0049L554.996 93.0245L561.096 61.2798C561.795 57.7769 563.076 53.9391 563.327 50.4019L553.853 72.6555L547.769 88.0418C547.173 89.4892 546.522 91.8553 545.47 92.9584L529.593 93.0012L528.727 51.0231C527.687 53.7893 527.322 56.8963 526.821 59.8064L520.362 92.9515L507.225 93.011L520.107 26.8193C525.911 26.0862 532.422 26.4178 538.269 26.7528L539.978 80.1589C540.755 79.0374 541.2 77.6093 541.743 76.3553L544.831 69.2402L557.759 38.4001C559.43 34.527 560.876 30.4252 562.877 26.7167L566.825 26.5329Z"/>
</svg>
