<?xml version="1.0" encoding="UTF-8"?>
<svg version="1.1" xmlns="http://www.w3.org/2000/svg" width="1024" height="1024">
<path d="M0 0 C1.26729446 -0.00705963 2.53458893 -0.01411926 3.84028625 -0.02139282 C7.90788863 -0.03890715 11.97533655 -0.046085 16.04296875 -0.046875 C17.0839484 -0.04731686 17.0839484 -0.04731686 18.14595795 -0.04776764 C39.31106664 -0.04921862 60.23887786 0.18027177 81.23046875 3.203125 C81.94279663 3.3049408 82.65512451 3.40675659 83.38903809 3.51165771 C103.23266224 6.36886977 122.87008098 9.94304392 142.23046875 15.203125 C143.42414062 15.52651855 144.6178125 15.84991211 145.84765625 16.18310547 C175.2560942 24.24561817 203.43737974 34.6947514 231.23046875 47.203125 C232.09236816 47.58710449 232.95426758 47.97108398 233.84228516 48.36669922 C273.77257748 66.20934749 310.82720437 91.10424166 344.23046875 119.203125 C344.7620459 119.64978516 345.29362305 120.09644531 345.84130859 120.55664062 C362.21146034 134.3469423 378.45611857 148.76676558 392.23046875 165.203125 C393.00003906 166.08355469 393.76960937 166.96398437 394.5625 167.87109375 C454.36822109 236.6386999 498.26490837 324.6918544 515.54296875 421.203125 C515.66030365 421.87344757 515.77763855 422.54377014 515.89852905 423.23440552 C520.2905356 448.66310966 521.74983997 474.29684886 521.62158203 500.05761719 C521.60449132 503.51217793 521.61469771 506.96604453 521.63189888 510.42058182 C521.73928918 535.9153436 520.11696283 561.32293135 515.60546875 586.453125 C515.48241364 587.15350891 515.35935852 587.85389282 515.23257446 588.57550049 C499.91837261 675.23000891 462.22962912 759.91385072 405.23046875 827.203125 C404.33812157 828.26917975 403.44621827 829.33560615 402.5546875 830.40234375 C396.91616516 837.12953539 391.1505272 843.7211627 385.23046875 850.203125 C384.36679687 851.15960937 383.503125 852.11609375 382.61328125 853.1015625 C374.5733051 861.98097932 366.36136309 870.69557467 357.234375 878.4765625 C354.97813489 880.42053546 352.79682982 882.43636018 350.60546875 884.453125 C344.98290199 889.51857768 339.0829678 894.17441097 333.08251953 898.77929688 C331.87707952 899.70602059 330.67475112 900.63681057 329.47607422 901.57226562 C250.80218072 962.96556907 151.82170844 1000.71606218 18.48046875 1008.390625 C16.92761169 1008.38922012 16.92761169 1008.38922012 15.34338379 1008.38778687 C-22.99663105 1008.31287231 -60.47229295 1004.21573902 -97.76953125 995.203125 C-98.80706543 994.95369141 -99.84459961 994.70425781 -100.91357422 994.44726562 C-175.30920866 976.22601469 -248.86290296 941.10493785 -306.87890625 890.6953125 C-309.54371324 888.39781674 -312.26366842 886.20216288 -315.01953125 884.015625 C-332.37655056 869.84407022 -349.9245668 853.5428278 -363.6875 835.84375 C-365.71245758 833.27551112 -367.83036826 830.83073804 -369.99243164 828.37890625 C-376.95459913 820.45394501 -383.11730237 812.06116841 -389.18457031 803.43945312 C-390.67989709 801.32959587 -392.19957881 799.2403874 -393.73046875 797.15625 C-443.3123911 729.18049788 -474.92828748 643.59093638 -484.14453125 560.140625 C-484.22425171 559.42179138 -484.30397217 558.70295776 -484.3861084 557.96234131 C-486.30100698 540.32749675 -486.98045464 522.68506806 -486.95703125 504.953125 C-486.956427 504.09350159 -486.95582275 503.23387817 -486.9552002 502.34820557 C-486.80375873 422.08976874 -466.63461958 344.73923963 -430.76953125 273.203125 C-430.31755371 272.2965918 -429.86557617 271.39005859 -429.39990234 270.45605469 C-419.37197145 250.45877154 -407.75011791 231.415431 -394.76953125 213.203125 C-394.01422119 212.13118896 -394.01422119 212.13118896 -393.24365234 211.03759766 C-385.50743449 200.06030668 -377.37580423 189.5104475 -368.76953125 179.203125 C-368.28742188 178.62191895 -367.8053125 178.04071289 -367.30859375 177.44189453 C-361.12619264 169.99355287 -354.72815927 162.78224202 -348.14013672 155.69140625 C-346.76404195 154.19716441 -345.40716369 152.6875055 -344.0546875 151.171875 C-338.12934822 144.55576058 -331.90276543 138.47275761 -325.27685547 132.56201172 C-323.77884328 131.21152 -322.30460332 129.83933383 -320.8359375 128.45703125 C-314.01971785 122.0583164 -306.8982417 116.20184264 -299.47802734 110.51757812 C-297.87461318 109.28397111 -296.28445935 108.03318272 -294.6953125 106.78125 C-273.08041392 89.843583 -249.95321641 75.17567265 -225.76953125 62.203125 C-224.86847656 61.71376465 -223.96742188 61.2244043 -223.0390625 60.72021484 C-155.55051519 24.16391838 -77.17027888 0.28801151 0 0 Z M215.43344116 350.69029236 C214.70952179 350.97675125 213.98560242 351.26321014 213.23974609 351.55834961 C212.41904633 351.87875717 211.59834656 352.19916473 210.7527771 352.52928162 C209.42302353 353.06199425 209.42302353 353.06199425 208.06640625 353.60546875 C207.1591983 353.96202042 206.25199036 354.31857208 205.31729126 354.68592834 C202.41045172 355.83029882 199.50797921 356.98532423 196.60546875 358.140625 C194.63960055 358.91671923 192.67345805 359.69211907 190.70703125 360.46679688 C185.87829469 362.37084976 181.05310419 364.28367546 176.23046875 366.203125 C177.41552002 367.38116699 177.41552002 367.38116699 178.62451172 368.58300781 C186.32197369 376.32229597 190.26363011 383.55663626 190.66796875 394.578125 C190.29090337 407.53409161 184.4838093 416.1306662 175.39453125 424.95703125 C172.86586601 427.31796841 170.29071049 429.62339585 167.69580078 431.91113281 C165.54744877 433.80534788 163.42101379 435.72365435 161.29296875 437.640625 C160.48988281 438.36121094 159.68679688 439.08179688 158.859375 439.82421875 C155.22950916 443.10889675 151.63946554 446.43588402 148.04711914 449.76147461 C144.79681524 452.76708573 141.527498 455.74864424 138.23046875 458.703125 C133.28456439 463.13683214 128.40760221 467.6425592 123.53125 472.15234375 C116.82262655 478.35629261 110.09583185 484.53999293 103.29296875 490.640625 C98.83760071 494.63829873 94.43963356 498.69513385 90.04711914 502.76147461 C86.00596991 506.49839382 81.92336279 510.18611606 77.82421875 513.859375 C74.77155223 516.6178086 71.7496258 519.4081281 68.73046875 522.203125 C64.13005335 526.46197823 59.49313225 530.67554342 54.82421875 534.859375 C51.77155223 537.6178086 48.7496258 540.4081281 45.73046875 543.203125 C41.92062734 546.73010116 38.0970939 550.23822714 34.23046875 553.703125 C29.28181966 558.13929263 24.40212103 562.64746334 19.5234375 567.16015625 C14.93779665 571.40103233 10.33001958 575.61767349 5.72314453 579.83544922 C4.20231999 581.22891652 2.68299551 582.62400251 1.1640625 584.01953125 C-3.44027073 588.24835976 -8.0522972 592.46715586 -12.70703125 596.640625 C-16.75720997 600.27590736 -20.77001747 603.94982627 -24.76953125 607.640625 C-25.33406006 608.16132568 -25.89858887 608.68202637 -26.48022461 609.21850586 C-31.75608928 614.09552449 -33.15991713 616.3901992 -33.83203125 623.515625 C-33.95553955 624.73197632 -33.95553955 624.73197632 -34.08154297 625.97290039 C-34.32181813 628.38207522 -34.5480739 630.79215509 -34.76953125 633.203125 C-34.88425781 634.42257812 -34.99898438 635.64203125 -35.1171875 636.8984375 C-35.69727861 643.67978432 -35.89225763 650.39862878 -35.76953125 657.203125 C-31.76558082 653.88069805 -27.9864338 650.47078314 -24.33203125 646.765625 C-4.81524284 627.05036078 -4.81524284 627.05036078 9.85546875 626.703125 C24.85800105 626.81227153 34.77761636 636.39669733 46.109375 645.234375 C50.18558639 648.41215918 54.31373045 651.48306738 58.54296875 654.453125 C64.08011483 658.35538622 69.51032206 662.38398305 74.91918945 666.46191406 C80.16305589 670.41221402 85.44005885 674.3154228 90.73046875 678.203125 C96.58590566 682.50757345 102.42343473 686.83359147 108.23046875 691.203125 C114.25169635 695.73091661 120.29513286 700.22780003 126.35546875 704.703125 C127.14953125 705.2909375 127.94359375 705.87875 128.76171875 706.484375 C132.85313303 709.50057119 136.97188239 712.42756073 141.23046875 715.203125 C142.56461674 711.3618037 143.66446365 707.5814439 144.50413513 703.60365295 C144.73705482 702.50870042 144.9699745 701.41374788 145.20995235 700.28561497 C145.45963048 699.09445041 145.70930861 697.90328585 145.96655273 696.67602539 C146.23615846 695.40368262 146.50576418 694.13133986 146.78353977 692.82044125 C147.52826131 689.30555789 148.2686643 685.78977689 149.00837517 682.27383614 C149.80255624 678.50289235 150.60083962 674.73281707 151.39868164 670.96264648 C152.77289812 664.46628455 154.14470104 657.96941693 155.51486206 651.47219849 C157.68020561 641.20457829 159.85049483 630.93800689 162.02172852 620.67163086 C162.75726114 617.19356053 163.49277447 613.71548613 164.22828674 610.2374115 C164.41100213 609.37341793 164.59371751 608.50942436 164.78196973 607.61924917 C166.08541358 601.45550679 167.38821444 595.29162871 168.69078064 589.12770081 C175.23844515 558.14499484 181.81628979 527.16875193 188.40644193 496.19505882 C189.93703763 489.00121511 191.46705315 481.80724803 192.99707031 474.61328125 C194.58804202 467.13286982 196.17905878 459.65246799 197.77032471 452.17211914 C202.47063851 430.07638362 207.16692607 407.97979342 211.861866 385.8829155 C212.76196159 381.64662712 213.66211253 377.4103505 214.56225586 373.17407227 C216.11840223 365.8504392 217.67447221 358.5267899 219.23046875 351.203125 C217.3126091 349.96683591 217.3126091 349.96683591 215.43344116 350.69029236 Z M52.29638672 413.59814453 C51.09766434 414.06357414 51.09766434 414.06357414 49.87472534 414.53840637 C48.56195114 415.05693428 48.56195114 415.05693428 47.22265625 415.5859375 C45.83193405 416.12809151 45.83193405 416.12809151 44.41311646 416.68119812 C42.38375938 417.47296853 40.35530611 418.26705834 38.32763672 419.06314087 C35.05088695 420.34955315 31.77188983 421.63007091 28.4921875 422.90893555 C25.00740472 424.26776902 21.52274846 425.62691556 18.03875732 426.98777771 C6.29738372 431.57324665 -5.46102432 436.11413362 -17.22235107 440.64813232 C-22.01597524 442.49614838 -26.80907122 444.34553251 -31.60220337 446.19482422 C-35.23995052 447.59830027 -38.87778088 449.00156047 -42.515625 450.40478516 C-49.69433606 453.17396113 -56.87262841 455.94422114 -64.05078125 458.71484375 C-65.22538406 459.16821609 -66.39998688 459.62158844 -67.61018372 460.08869934 C-72.34303213 461.91551 -77.07586267 463.74236693 -81.8086853 465.56924438 C-94.49780606 470.46723952 -107.18719271 475.36454241 -119.87761116 480.25917435 C-146.52288838 490.53635692 -173.1627156 500.82671047 -199.76953125 511.203125 C-199.76953125 511.863125 -199.76953125 512.523125 -199.76953125 513.203125 C-184.37600967 518.26274125 -168.93568693 523.11805755 -153.39453125 527.703125 C-152.65656311 527.92208435 -151.91859497 528.1410437 -151.15826416 528.36663818 C-149.04288791 528.99331803 -146.92605338 529.61477563 -144.80859375 530.234375 C-143.59381348 530.59080078 -142.3790332 530.94722656 -141.12744141 531.31445312 C-135.38800008 533.11591514 -135.38800008 533.11591514 -129.64575195 532.40551758 C-129.00210693 531.97392334 -128.35846191 531.5423291 -127.6953125 531.09765625 C-126.58603394 530.37388794 -126.58603394 530.37388794 -125.4543457 529.63549805 C-124.28005005 528.83366089 -124.28005005 528.83366089 -123.08203125 528.015625 C-121.37396918 526.8928164 -119.66562834 525.77043178 -117.95703125 524.6484375 C-117.09078125 524.07125977 -116.22453125 523.49408203 -115.33203125 522.89941406 C-111.45505485 520.33298571 -107.5196263 517.86259935 -103.58203125 515.390625 C-102.00513511 514.39464717 -100.42831418 513.39855026 -98.8515625 512.40234375 C-92.14212935 508.17297385 -85.4118123 503.9770289 -78.68408203 499.77685547 C-69.35817999 493.9520842 -60.06007408 488.08407455 -50.76953125 482.203125 C-40.51784507 475.713768 -30.25129069 469.249786 -19.95703125 462.828125 C-12.2035211 457.99072807 -4.47297096 453.11985896 3.23046875 448.203125 C10.93391148 443.28638911 18.66462491 438.41579212 26.41796875 433.578125 C37.76840773 426.49506288 37.76840773 426.49506288 49.10546875 419.390625 C50.30079224 418.64401611 50.30079224 418.64401611 51.52026367 417.88232422 C52.24705322 417.42486816 52.97384277 416.96741211 53.72265625 416.49609375 C54.3554248 416.0993042 54.98819336 415.70251465 55.64013672 415.29370117 C57.39198493 414.16377951 57.39198493 414.16377951 59.23046875 412.203125 C56.32134239 412.203125 54.94169704 412.56135908 52.29638672 413.59814453 Z " fill="#000000" transform="translate(493.76953125,7.796875)"/>
<path d="M0 0 C1.26729446 -0.00705963 2.53458893 -0.01411926 3.84028625 -0.02139282 C7.90788863 -0.03890715 11.97533655 -0.046085 16.04296875 -0.046875 C17.0839484 -0.04731686 17.0839484 -0.04731686 18.14595795 -0.04776764 C39.31106664 -0.04921862 60.23887786 0.18027177 81.23046875 3.203125 C81.94279663 3.3049408 82.65512451 3.40675659 83.38903809 3.51165771 C103.23266224 6.36886977 122.87008098 9.94304392 142.23046875 15.203125 C143.42414062 15.52651855 144.6178125 15.84991211 145.84765625 16.18310547 C175.2560942 24.24561817 203.43737974 34.6947514 231.23046875 47.203125 C232.09236816 47.58710449 232.95426758 47.97108398 233.84228516 48.36669922 C273.77257748 66.20934749 310.82720437 91.10424166 344.23046875 119.203125 C344.7620459 119.64978516 345.29362305 120.09644531 345.84130859 120.55664062 C362.21146034 134.3469423 378.45611857 148.76676558 392.23046875 165.203125 C393.00003906 166.08355469 393.76960937 166.96398437 394.5625 167.87109375 C454.36822109 236.6386999 498.26490837 324.6918544 515.54296875 421.203125 C515.66030365 421.87344757 515.77763855 422.54377014 515.89852905 423.23440552 C520.2905356 448.66310966 521.74983997 474.29684886 521.62158203 500.05761719 C521.60449132 503.51217793 521.61469771 506.96604453 521.63189888 510.42058182 C521.73928918 535.9153436 520.11696283 561.32293135 515.60546875 586.453125 C515.48241364 587.15350891 515.35935852 587.85389282 515.23257446 588.57550049 C499.91837261 675.23000891 462.22962912 759.91385072 405.23046875 827.203125 C404.33812157 828.26917975 403.44621827 829.33560615 402.5546875 830.40234375 C396.91616516 837.12953539 391.1505272 843.7211627 385.23046875 850.203125 C384.36679687 851.15960937 383.503125 852.11609375 382.61328125 853.1015625 C374.5733051 861.98097932 366.36136309 870.69557467 357.234375 878.4765625 C354.97813489 880.42053546 352.79682982 882.43636018 350.60546875 884.453125 C344.98290199 889.51857768 339.0829678 894.17441097 333.08251953 898.77929688 C331.87707952 899.70602059 330.67475112 900.63681057 329.47607422 901.57226562 C250.80218072 962.96556907 151.82170844 1000.71606218 18.48046875 1008.390625 C16.92761169 1008.38922012 16.92761169 1008.38922012 15.34338379 1008.38778687 C-22.99663105 1008.31287231 -60.47229295 1004.21573902 -97.76953125 995.203125 C-98.80706543 994.95369141 -99.84459961 994.70425781 -100.91357422 994.44726562 C-175.30920866 976.22601469 -248.86290296 941.10493785 -306.87890625 890.6953125 C-309.54371324 888.39781674 -312.26366842 886.20216288 -315.01953125 884.015625 C-332.37655056 869.84407022 -349.9245668 853.5428278 -363.6875 835.84375 C-365.71245758 833.27551112 -367.83036826 830.83073804 -369.99243164 828.37890625 C-376.95459913 820.45394501 -383.11730237 812.06116841 -389.18457031 803.43945312 C-390.67989709 801.32959587 -392.19957881 799.2403874 -393.73046875 797.15625 C-443.3123911 729.18049788 -474.92828748 643.59093638 -484.14453125 560.140625 C-484.22425171 559.42179138 -484.30397217 558.70295776 -484.3861084 557.96234131 C-486.30100698 540.32749675 -486.98045464 522.68506806 -486.95703125 504.953125 C-486.956427 504.09350159 -486.95582275 503.23387817 -486.9552002 502.34820557 C-486.80375873 422.08976874 -466.63461958 344.73923963 -430.76953125 273.203125 C-430.31755371 272.2965918 -429.86557617 271.39005859 -429.39990234 270.45605469 C-419.37197145 250.45877154 -407.75011791 231.415431 -394.76953125 213.203125 C-394.01422119 212.13118896 -394.01422119 212.13118896 -393.24365234 211.03759766 C-385.50743449 200.06030668 -377.37580423 189.5104475 -368.76953125 179.203125 C-368.28742188 178.62191895 -367.8053125 178.04071289 -367.30859375 177.44189453 C-361.12619264 169.99355287 -354.72815927 162.78224202 -348.14013672 155.69140625 C-346.76404195 154.19716441 -345.40716369 152.6875055 -344.0546875 151.171875 C-338.12934822 144.55576058 -331.90276543 138.47275761 -325.27685547 132.56201172 C-323.77884328 131.21152 -322.30460332 129.83933383 -320.8359375 128.45703125 C-314.01971785 122.0583164 -306.8982417 116.20184264 -299.47802734 110.51757812 C-297.87461318 109.28397111 -296.28445935 108.03318272 -294.6953125 106.78125 C-273.08041392 89.843583 -249.95321641 75.17567265 -225.76953125 62.203125 C-224.86847656 61.71376465 -223.96742188 61.2244043 -223.0390625 60.72021484 C-155.55051519 24.16391838 -77.17027888 0.28801151 0 0 Z M-48.76953125 34.203125 C-49.92130859 34.36329102 -51.07308594 34.52345703 -52.25976562 34.68847656 C-115.83889809 43.70285687 -178.10123503 67.7608461 -232.76953125 101.203125 C-234.24862545 102.09517225 -235.72778683 102.98710812 -237.20703125 103.87890625 C-263.09375728 119.63564014 -288.88558059 138.60244247 -309.984375 160.41796875 C-311.8149984 162.24859215 -313.72852982 163.90936939 -315.70703125 165.578125 C-319.61940484 168.94901999 -323.00828738 172.66264871 -326.41796875 176.53515625 C-328.83118466 179.27307397 -331.29633553 181.95686308 -333.76953125 184.640625 C-338.64105906 190.00528292 -343.26414448 195.52942878 -347.76953125 201.203125 C-348.27468262 201.83573242 -348.77983398 202.46833984 -349.30029297 203.12011719 C-393.45767871 258.56144345 -426.51569887 322.90767394 -442.99755859 391.98681641 C-443.75746729 395.1528623 -444.55177381 398.30866713 -445.3515625 401.46484375 C-455.2108361 441.17383288 -457.45838685 481.43589135 -456.76953125 522.203125 C-456.7555127 523.13833984 -456.74149414 524.07355469 -456.72705078 525.03710938 C-456.22500155 550.48117135 -452.25342032 576.40752948 -446.76953125 601.203125 C-446.58310059 602.04842773 -446.39666992 602.89373047 -446.20458984 603.76464844 C-438.41642669 638.2877795 -426.63074496 672.13071742 -411.76953125 704.203125 C-411.29257812 705.24065918 -410.815625 706.27819336 -410.32421875 707.34716797 C-393.85567788 743.01983288 -373.30878239 776.22266675 -348.20947266 806.45898438 C-346.18198727 808.91479237 -344.19947429 811.40635368 -342.20703125 813.890625 C-334.34633317 823.45708035 -325.74861437 832.3090177 -317.01953125 841.078125 C-316.32279297 841.77953613 -315.62605469 842.48094727 -314.90820312 843.20361328 C-310.35759986 847.7401981 -305.64419979 852.01889802 -300.76953125 856.203125 C-299.68668506 857.15271734 -298.60460944 858.10318935 -297.5234375 859.0546875 C-288.58074272 866.85519926 -279.29340024 874.12723377 -269.76953125 881.203125 C-269.03154297 881.75145996 -268.29355469 882.29979492 -267.53320312 882.86474609 C-189.18202311 940.81126389 -92.40390644 977.02458998 64.23046875 976.203125 C65.93686523 976.00976562 65.93686523 976.00976562 67.67773438 975.8125 C160.50919734 965.11831547 251.57502235 927.59263011 323.23046875 867.203125 C323.75286133 866.76564941 324.27525391 866.32817383 324.81347656 865.87744141 C337.94129867 854.86614572 351.45842772 843.45448526 362.60546875 830.390625 C365.17795848 827.40082027 367.8103699 824.48102607 370.48046875 821.578125 C375.04008613 816.52474195 379.21887651 811.22871132 383.37890625 805.84765625 C385.17317027 803.53316544 387.00252355 801.26253019 388.89453125 799.02734375 C430.03669027 750.03037139 459.49086072 687.4573112 475.57275391 625.72558594 C476.03014286 623.97141272 476.49664242 622.21960012 476.97021484 620.46972656 C483.65430887 595.77113246 487.58002182 570.63111148 490.23046875 545.203125 C490.35546501 544.14705048 490.35546501 544.14705048 490.48298645 543.06964111 C491.23444375 536.35484804 491.39084951 529.71389981 491.3984375 522.9609375 C491.40271759 521.80762436 491.40699768 520.65431122 491.41140747 519.46604919 C491.42135933 515.75336787 491.42146821 512.04081708 491.41796875 508.328125 C491.41703217 507.06136932 491.41609558 505.79461365 491.41513062 504.48947144 C491.31046081 439.45652448 479.45008371 375.64344969 452.23046875 316.203125 C451.81039551 315.28466797 451.39032227 314.36621094 450.95751953 313.41992188 C437.76780026 284.80062741 422.22000715 257.09272038 404.23046875 231.203125 C403.5334082 230.19161377 403.5334082 230.19161377 402.82226562 229.15966797 C395.9652742 219.2242578 388.8118153 209.59620109 381.23046875 200.203125 C380.05677734 198.73746094 380.05677734 198.73746094 378.859375 197.2421875 C374.50508564 191.85403741 370.00065385 186.64127465 365.33203125 181.5234375 C363.50764081 179.50914769 361.73953073 177.46163886 359.98046875 175.390625 C352.40665286 166.70457041 344.03180445 158.63120265 335.23046875 151.203125 C334.18252909 150.29289095 333.13576282 149.38130513 332.08984375 148.46875 C309.01250287 128.39389263 283.737388 110.46590437 257.23046875 95.203125 C256.5667627 94.81979004 255.90305664 94.43645508 255.21923828 94.04150391 C232.6508345 81.07938334 209.38231336 70.32295821 185.13751221 60.94335938 C183.34422497 60.2472804 181.55454854 59.54191934 179.76513672 58.8359375 C151.34910392 47.69735894 120.89798246 39.68500087 90.64379883 35.55957031 C88.05713966 35.17752455 85.49827824 34.70339281 82.9296875 34.21484375 C40.15102716 26.35380788 -5.8962578 28.01466924 -48.76953125 34.203125 Z " fill="#FDFDFD" transform="translate(493.76953125,7.796875)"/>
<path d="M0 0 C6.28568389 3.78593171 10.06535349 9.02027922 12.3671875 15.92578125 C13.1378556 28.93185024 11.66916962 40.78708677 8.7421875 53.42578125 C8.37055911 55.09993514 8.00079778 56.77450446 7.6328125 58.44946289 C6.728002 62.54804077 5.80207943 66.64143429 4.86706543 70.73321533 C3.91776248 74.89705049 2.99263142 79.06628051 2.06445312 83.23486328 C1.5994858 85.32102969 1.1320359 87.40664432 0.66210938 89.49169922 C-1.97662862 101.27177956 -4.36030667 113.10498595 -6.7421875 124.93920898 C-8.44590097 133.36852983 -10.26475976 141.75314693 -12.26725769 150.11669922 C-13.52801853 155.40492211 -14.61177891 160.70087833 -15.5703125 166.05078125 C-17.08862034 174.2440566 -18.77968024 182.38598787 -20.57275391 190.52319336 C-22.25987408 198.18453332 -23.89081057 205.85694726 -25.50726318 213.53344727 C-28.18943461 226.26824923 -30.97082378 238.97739974 -33.8203125 251.67578125 C-36.13455657 261.99188272 -38.35984035 272.30877199 -40.27514648 282.70776367 C-42.54553276 294.9911356 -45.33879797 307.16710896 -48.07472229 319.3535614 C-48.94985109 323.25227717 -49.82296836 327.15144156 -50.6953125 331.05078125 C-50.87005096 331.83115753 -51.04478943 332.61153381 -51.224823 333.41555786 C-53.45604264 343.3972207 -55.56503652 353.38358505 -57.40649414 363.44580078 C-58.35159908 368.58184712 -59.51605061 373.60795027 -60.859375 378.65625 C-61.70848294 382.24566085 -62.36265598 385.84581022 -63.01147461 389.47583008 C-68.34732162 419.17337507 -68.34732162 419.17337507 -78.1953125 428.30078125 C-84.33126452 432.39141593 -89.31078477 432.73836905 -96.6328125 431.92578125 C-105.81414329 429.53960425 -113.17472272 424.05907596 -120.62255859 418.43701172 C-122.79699323 416.80235658 -124.98823648 415.19237491 -127.18359375 413.5859375 C-135.35603301 407.6020526 -143.48017185 401.55535312 -151.57373047 395.46533203 C-156.73590065 391.5856886 -161.92997222 387.75066223 -167.1328125 383.92578125 C-172.98815772 379.62120965 -178.82585775 375.29542158 -184.6328125 370.92578125 C-198.53834025 360.46556114 -212.59510157 350.20751272 -226.6328125 339.92578125 C-229.45739584 341.22055768 -231.59503029 342.60834285 -233.85546875 344.734375 C-234.46712891 345.30736328 -235.07878906 345.88035156 -235.70898438 346.47070312 C-236.6922168 347.4075293 -236.6922168 347.4075293 -237.6953125 348.36328125 C-238.38560547 349.01490234 -239.07589844 349.66652344 -239.78710938 350.33789062 C-246.31164052 356.5370667 -252.67034426 362.90161154 -258.98461914 369.31420898 C-263.12407408 373.50078907 -267.34854788 377.47818365 -271.81494141 381.31298828 C-274.48631813 383.68300099 -276.87291549 386.26226731 -279.3203125 388.86328125 C-286.74761306 396.49559689 -295.10498529 402.45583805 -305.6328125 404.92578125 C-306.9528125 404.92578125 -308.2728125 404.92578125 -309.6328125 404.92578125 C-308.55343974 385.01976642 -307.36271471 365.12215241 -305.99140358 345.23397732 C-305.57496235 339.17385855 -305.17845149 333.11374606 -304.82568359 327.04956055 C-304.48071027 321.1312973 -304.08534343 315.21835748 -303.65497971 309.30571175 C-303.50079455 307.06750133 -303.36445295 304.8279832 -303.24684525 302.58755302 C-302.26455214 284.2228053 -302.26455214 284.2228053 -298.17034912 279.66848755 C-295.42571547 277.42031906 -292.69049662 275.70774632 -289.6328125 273.92578125 C-288.02626372 272.43007293 -286.45654761 270.89273313 -284.9453125 269.30078125 C-281.7710333 266.04840028 -278.51043225 263.02667208 -275.0625 260.0703125 C-271.68737249 257.09130124 -268.41509817 254.00638237 -265.1328125 250.92578125 C-257.28984067 243.56954231 -257.28984067 243.56954231 -253.6328125 240.42578125 C-249.05092015 236.48415333 -244.67747835 232.31841999 -240.26831055 228.1862793 C-235.91821915 224.11365729 -231.52419091 220.09724525 -227.08203125 216.125 C-222.74404925 212.22981042 -218.45828676 208.27734395 -214.16503906 204.33300781 C-211.15817191 201.57144276 -208.14759661 198.8139211 -205.13769531 196.05566406 C-202.61138136 193.74028826 -200.0860135 191.42389671 -197.5625 189.10546875 C-192.13075925 184.1171354 -186.67528056 179.15719826 -181.1875 174.23046875 C-176.82172556 170.29192606 -172.49487061 166.31095464 -168.16503906 162.33300781 C-165.15817191 159.57144276 -162.14759661 156.8139211 -159.13769531 154.05566406 C-156.61138136 151.74028826 -154.0860135 149.42389671 -151.5625 147.10546875 C-146.95931485 142.87811374 -142.34867474 138.66052042 -137.6953125 134.48828125 C-133.23994446 130.49060752 -128.84197731 126.4337724 -124.44946289 122.36743164 C-121.19915899 119.36182052 -117.92984175 116.38026201 -114.6328125 113.42578125 C-110.81076642 109.99954577 -107.02651321 106.53538673 -103.2578125 103.05078125 C-102.44086914 102.29571289 -102.44086914 102.29571289 -101.60742188 101.52539062 C-99.39257247 99.47789702 -97.17798451 97.43012119 -94.96386719 95.38183594 C-93.3550566 93.89480403 -91.74417328 92.41004879 -90.1328125 90.92578125 C-89.194375 90.05953125 -88.2559375 89.19328125 -87.2890625 88.30078125 C-85.54713679 86.74329473 -83.75510176 85.23975446 -81.9140625 83.80078125 C-79.44157062 81.95371082 -79.44157062 81.95371082 -77.6328125 78.92578125 C-77.6328125 77.93578125 -77.6328125 76.94578125 -77.6328125 75.92578125 C-80.83981482 74.32228009 -84.14738027 74.53438634 -87.6328125 74.92578125 C-90.95277624 76.22454085 -90.95277624 76.22454085 -94.0703125 78.23828125 C-94.66175049 78.59438477 -95.25318848 78.95048828 -95.86254883 79.31738281 C-97.80149876 80.49702192 -99.71885892 81.70603973 -101.6328125 82.92578125 C-102.28958984 83.34327637 -102.94636719 83.76077148 -103.62304688 84.19091797 C-107.1535409 86.44556567 -110.66644767 88.72614073 -114.171875 91.01953125 C-118.6528898 93.94783605 -123.16766577 96.82022537 -127.6953125 99.67578125 C-128.47350342 100.1665918 -129.25169434 100.65740234 -130.0534668 101.16308594 C-137.59576482 105.91258656 -145.15717419 110.63151799 -152.71777344 115.35180664 C-161.27629091 120.69711431 -169.81197568 126.07777894 -178.33837891 131.47412109 C-183.0635508 134.46367973 -187.7921363 137.44783741 -192.52001953 140.43310547 C-196.41675764 142.8938249 -200.31278438 145.35565208 -204.20703125 147.8203125 C-214.02353068 154.03075091 -223.86478662 160.20045096 -233.71826172 166.35205078 C-243.04416376 172.17682205 -252.34226967 178.0448317 -261.6328125 183.92578125 C-272.97241302 191.10379223 -284.33412724 198.24484861 -295.71826172 205.35205078 C-304.27654885 210.69738518 -312.81212853 216.07787568 -321.33837891 221.47412109 C-325.26827212 223.96051661 -329.20071152 226.44287932 -333.1328125 228.92578125 C-334.6953163 229.9127544 -336.25781629 230.89973358 -337.8203125 231.88671875 C-341.19466163 234.01795989 -344.56979077 236.14796033 -347.9453125 238.27734375 C-348.81349609 238.82519531 -349.68167969 239.37304688 -350.57617188 239.9375 C-352.24394582 240.98989211 -353.91190588 242.04198936 -355.58007812 243.09375 C-356.32966797 243.56683594 -357.07925781 244.03992188 -357.8515625 244.52734375 C-358.51091797 244.94322754 -359.17027344 245.35911133 -359.84960938 245.78759766 C-361.45701061 246.81357035 -363.04615592 247.8680102 -364.6328125 248.92578125 C-371.28833516 248.59858237 -377.36954037 246.66812152 -383.6953125 244.67578125 C-384.71608887 244.3600415 -385.73686523 244.04430176 -386.78857422 243.71899414 C-392.30339831 242.00372613 -397.78995432 240.22223193 -403.2578125 238.36328125 C-408.94347092 236.43678753 -414.66701391 234.73957357 -420.4453125 233.11328125 C-436.70210901 228.53711615 -452.86907047 223.62793472 -468.83984375 218.1328125 C-471.87129979 217.1681164 -474.8829357 216.30942723 -477.95703125 215.5 C-478.89506592 215.24879395 -479.83310059 214.99758789 -480.79956055 214.73876953 C-482.63389363 214.2528807 -484.47249929 213.78273411 -486.31567383 213.33154297 C-492.2648689 211.74848564 -496.4503748 209.51031493 -500.6328125 204.92578125 C-502.4054491 201.38050806 -502.25695459 197.78804665 -501.6328125 193.92578125 C-496.75862203 183.27191829 -484.25200265 179.07089737 -474.05859375 175.1484375 C-472.9737117 174.72289078 -471.88882965 174.29734406 -470.77107239 173.85890198 C-467.39536624 172.53807281 -464.01473566 171.2305993 -460.6328125 169.92578125 C-458.56944438 169.12497717 -456.50612907 168.32403703 -454.44287109 167.52294922 C-449.31379348 165.53660057 -444.17941864 163.56433945 -439.0428772 161.59738159 C-434.53821139 159.872293 -430.03514715 158.14304043 -425.53196716 156.41407776 C-423.22455259 155.52818278 -420.91706797 154.64247022 -418.60951233 153.75694275 C-407.88258175 149.64001688 -397.16246328 145.50558995 -386.4453125 141.36328125 C-385.55911224 141.02083374 -384.67291199 140.67838623 -383.75985718 140.32556152 C-373.44770631 136.34033138 -363.13849122 132.34758071 -352.83203125 128.34765625 C-351.33591309 127.76702675 -351.33591309 127.76702675 -349.80957031 127.17466736 C-348.80555176 126.78501297 -347.8015332 126.39535858 -346.76708984 125.99389648 C-344.72233435 125.20034875 -342.67757522 124.40681037 -340.6328125 123.61328125 C-339.61954895 123.22004669 -338.6062854 122.82681213 -337.56231689 122.42166138 C-319.29671002 115.33433945 -301.01332799 108.29379111 -282.72460938 101.26635742 C-269.02170017 96.00069412 -255.32439012 90.72083543 -241.6328125 85.42578125 C-225.63977389 79.2409555 -209.63838997 73.07808278 -193.6328125 66.92578125 C-172.96514424 58.98110073 -152.3065438 51.01327729 -131.65483093 43.02722168 C-125.38384716 40.60232625 -119.11204378 38.17956007 -112.83984375 35.7578125 C-111.02563255 35.05721602 -109.21142357 34.35661379 -107.3972168 33.65600586 C-104.68047983 32.60687195 -101.96369076 31.55787405 -99.24673462 30.50930786 C-89.44220714 26.72534724 -79.64129633 22.93246599 -69.84986877 19.11471558 C-65.41781017 17.38664535 -60.98480869 15.66099977 -56.55184937 13.9352417 C-54.42976229 13.10817865 -52.30818349 12.27981006 -50.18716431 11.45001221 C-10.23981157 -4.17796466 -10.23981157 -4.17796466 0 0 Z M-22.42984009 33.41294861 C-23.15375946 33.6994075 -23.87767883 33.98586639 -24.62353516 34.28100586 C-25.44423492 34.60141342 -26.26493469 34.92182098 -27.11050415 35.25193787 C-28.44025772 35.7846505 -28.44025772 35.7846505 -29.796875 36.328125 C-30.70408295 36.68467667 -31.61129089 37.04122833 -32.54598999 37.40858459 C-35.45282953 38.55295507 -38.35530204 39.70798048 -41.2578125 40.86328125 C-43.2236807 41.63937548 -45.1898232 42.41477532 -47.15625 43.18945312 C-51.98498656 45.09350601 -56.81017706 47.00633171 -61.6328125 48.92578125 C-60.44776123 50.10382324 -60.44776123 50.10382324 -59.23876953 51.30566406 C-51.54130756 59.04495222 -47.59965114 66.27929251 -47.1953125 77.30078125 C-47.57237788 90.25674786 -53.37947195 98.85332245 -62.46875 107.6796875 C-64.99741524 110.04062466 -67.57257076 112.3460521 -70.16748047 114.63378906 C-72.31583248 116.52800413 -74.44226746 118.4463106 -76.5703125 120.36328125 C-77.37339844 121.08386719 -78.17648437 121.80445313 -79.00390625 122.546875 C-82.63377209 125.831553 -86.22381571 129.15854027 -89.81616211 132.48413086 C-93.06646601 135.48974198 -96.33578325 138.47130049 -99.6328125 141.42578125 C-104.57871686 145.85948839 -109.45567904 150.36521545 -114.33203125 154.875 C-121.0406547 161.07894886 -127.7674494 167.26264918 -134.5703125 173.36328125 C-139.02568054 177.36095498 -143.42364769 181.4177901 -147.81616211 185.48413086 C-151.85731134 189.22105007 -155.93991846 192.90877231 -160.0390625 196.58203125 C-163.09172902 199.34046485 -166.11365545 202.13078435 -169.1328125 204.92578125 C-173.7332279 209.18463448 -178.370149 213.39819967 -183.0390625 217.58203125 C-186.09172902 220.34046485 -189.11365545 223.13078435 -192.1328125 225.92578125 C-195.94265391 229.45275741 -199.76618735 232.96088339 -203.6328125 236.42578125 C-208.58146159 240.86194888 -213.46116022 245.37011959 -218.33984375 249.8828125 C-222.9254846 254.12368858 -227.53326167 258.34032974 -232.14013672 262.55810547 C-233.66096126 263.95157277 -235.18028574 265.34665876 -236.69921875 266.7421875 C-241.30355198 270.97101601 -245.91557845 275.18981211 -250.5703125 279.36328125 C-254.62049122 282.99856361 -258.63329872 286.67248252 -262.6328125 290.36328125 C-263.19734131 290.88398193 -263.76187012 291.40468262 -264.34350586 291.94116211 C-269.61937053 296.81818074 -271.02319838 299.11285545 -271.6953125 306.23828125 C-271.8188208 307.45463257 -271.8188208 307.45463257 -271.94482422 308.69555664 C-272.18509938 311.10473147 -272.41135515 313.51481134 -272.6328125 315.92578125 C-272.74753906 317.14523437 -272.86226562 318.3646875 -272.98046875 319.62109375 C-273.56055986 326.40244057 -273.75553888 333.12128503 -273.6328125 339.92578125 C-269.62886207 336.6033543 -265.84971505 333.19343939 -262.1953125 329.48828125 C-242.67852409 309.77301703 -242.67852409 309.77301703 -228.0078125 309.42578125 C-213.0052802 309.53492778 -203.08566489 319.11935358 -191.75390625 327.95703125 C-187.67769486 331.13481543 -183.5495508 334.20572363 -179.3203125 337.17578125 C-173.78316642 341.07804247 -168.35295919 345.1066393 -162.9440918 349.18457031 C-157.70022536 353.13487027 -152.4232224 357.03807905 -147.1328125 360.92578125 C-141.27737559 365.2302297 -135.43984652 369.55624772 -129.6328125 373.92578125 C-123.6115849 378.45357286 -117.56814839 382.95045628 -111.5078125 387.42578125 C-110.71375 388.01359375 -109.9196875 388.60140625 -109.1015625 389.20703125 C-105.01014822 392.22322744 -100.89139886 395.15021698 -96.6328125 397.92578125 C-95.29866451 394.08445995 -94.1988176 390.30410015 -93.35914612 386.3263092 C-93.12622643 385.23135667 -92.89330675 384.13640413 -92.6533289 383.00827122 C-92.40365077 381.81710666 -92.15397264 380.6259421 -91.89672852 379.39868164 C-91.62712279 378.12633887 -91.35751707 376.85399611 -91.07974148 375.5430975 C-90.33501994 372.02821414 -89.59461695 368.51243314 -88.85490608 364.99649239 C-88.06072501 361.2255486 -87.26244163 357.45547332 -86.46459961 353.68530273 C-85.09038313 347.1889408 -83.71858021 340.69207318 -82.34841919 334.19485474 C-80.18307564 323.92723454 -78.01278642 313.66066314 -75.84155273 303.39428711 C-75.10602011 299.91621678 -74.37050678 296.43814238 -73.63499451 292.96006775 C-73.45227912 292.09607418 -73.26956374 291.23208061 -73.08131152 290.34190542 C-71.77786767 284.17816304 -70.47506681 278.01428496 -69.17250061 271.85035706 C-62.6248361 240.86765109 -56.04699146 209.89140818 -49.45683932 178.91771507 C-47.92624362 171.72387136 -46.3962281 164.52990428 -44.86621094 157.3359375 C-43.27523923 149.85552607 -41.68422247 142.37512424 -40.09295654 134.89477539 C-35.39264274 112.79903987 -30.69635518 90.70244967 -26.00141525 68.60557175 C-25.10131966 64.36928337 -24.20116872 60.13300675 -23.30102539 55.89672852 C-21.74487902 48.57309545 -20.18880904 41.24944615 -18.6328125 33.92578125 C-20.55067215 32.68949216 -20.55067215 32.68949216 -22.42984009 33.41294861 Z M-185.56689453 96.32080078 C-186.76561691 96.78623039 -186.76561691 96.78623039 -187.98855591 97.26106262 C-189.30133011 97.77959053 -189.30133011 97.77959053 -190.640625 98.30859375 C-192.0313472 98.85074776 -192.0313472 98.85074776 -193.45016479 99.40385437 C-195.47952187 100.19562478 -197.50797514 100.98971459 -199.53564453 101.78579712 C-202.8123943 103.0722094 -206.09139142 104.35272716 -209.37109375 105.6315918 C-212.85587653 106.99042527 -216.34053279 108.34957181 -219.82452393 109.71043396 C-231.56589753 114.2959029 -243.32430557 118.83678987 -255.08563232 123.37078857 C-259.87925649 125.21880463 -264.67235247 127.06818876 -269.46548462 128.91748047 C-273.10323177 130.32095652 -276.74106213 131.72421672 -280.37890625 133.12744141 C-287.55761731 135.89661738 -294.73590966 138.66687739 -301.9140625 141.4375 C-303.08866531 141.89087234 -304.26326813 142.34424469 -305.47346497 142.81135559 C-310.20631338 144.63816625 -314.93914392 146.46502318 -319.67196655 148.29190063 C-332.36108731 153.18989577 -345.05047396 158.08719866 -357.74089241 162.9818306 C-384.38616963 173.25901317 -411.02599685 183.54936672 -437.6328125 193.92578125 C-437.6328125 194.58578125 -437.6328125 195.24578125 -437.6328125 195.92578125 C-422.23929092 200.9853975 -406.79896818 205.8407138 -391.2578125 210.42578125 C-390.51984436 210.6447406 -389.78187622 210.86369995 -389.02154541 211.08929443 C-386.90616916 211.71597428 -384.78933463 212.33743188 -382.671875 212.95703125 C-381.45709473 213.31345703 -380.24231445 213.66988281 -378.99072266 214.03710938 C-373.25128133 215.83857139 -373.25128133 215.83857139 -367.5090332 215.12817383 C-366.86538818 214.69657959 -366.22174316 214.26498535 -365.55859375 213.8203125 C-364.44931519 213.09654419 -364.44931519 213.09654419 -363.31762695 212.3581543 C-362.1433313 211.55631714 -362.1433313 211.55631714 -360.9453125 210.73828125 C-359.23725043 209.61547265 -357.52890959 208.49308803 -355.8203125 207.37109375 C-354.9540625 206.79391602 -354.0878125 206.21673828 -353.1953125 205.62207031 C-349.3183361 203.05564196 -345.38290755 200.5852556 -341.4453125 198.11328125 C-339.86841636 197.11730342 -338.29159543 196.12120651 -336.71484375 195.125 C-330.0054106 190.8956301 -323.27509355 186.69968515 -316.54736328 182.49951172 C-307.22146124 176.67474045 -297.92335533 170.8067308 -288.6328125 164.92578125 C-278.38112632 158.43642425 -268.11457194 151.97244225 -257.8203125 145.55078125 C-250.06680235 140.71338432 -242.33625221 135.84251521 -234.6328125 130.92578125 C-226.92936977 126.00904536 -219.19865634 121.13844837 -211.4453125 116.30078125 C-200.09487352 109.21771913 -200.09487352 109.21771913 -188.7578125 102.11328125 C-187.56248901 101.36667236 -187.56248901 101.36667236 -186.34301758 100.60498047 C-185.61622803 100.14752441 -184.88943848 99.69006836 -184.140625 99.21875 C-183.50785645 98.82196045 -182.87508789 98.4251709 -182.22314453 98.01635742 C-180.47129632 96.88643576 -180.47129632 96.88643576 -178.6328125 94.92578125 C-181.54193886 94.92578125 -182.92158421 95.28401533 -185.56689453 96.32080078 Z " fill="#FDFDFD" transform="translate(731.6328125,325.07421875)"/>
</svg>
